<?xml version="1.0" encoding="UTF-8" standalone="no"?>
<!DOCTYPE svg  PUBLIC '-//W3C//DTD SVG 1.1//EN'  'http://www.w3.org/Graphics/SVG/1.1/DTD/svg11.dtd'>
<svg xmlns="http://www.w3.org/2000/svg">
<defs>
<font id="FoundersGrotesqueSemibold-Regular" horiz-adv-x="500">
<font-face underline-position="-50" font-weight="600" descent="-200" panose-1="2 0 5 3 0 0 0 2 0 4" units-per-em="1000" unicode-range="U+000D-F6C3" bbox="-86 -213 961 952" x-height="444" underline-thickness="40" font-family="FoundersGrotesqueSemibold" ascent="800" cap-height="630"/>
<missing-glyph horiz-adv-x="1000"/>
<glyph glyph-name=".notdef" horiz-adv-x="1000"/>
<glyph glyph-name=".null" horiz-adv-x="0"/>
<glyph glyph-name="nonmarkingreturn" horiz-adv-x="1000" unicode=""/>
<glyph glyph-name="space" horiz-adv-x="180" unicode=" "/>
<glyph glyph-name="exclam" horiz-adv-x="223" unicode="!" d="M33 0v156h157v-156h-157zM35 630h154v-165l-32 -265h-90l-32 265v165z"/>
<glyph glyph-name="quotedbl" horiz-adv-x="350" unicode='&quot;' d="M33 378v252h117v-252h-117zM200 378v252h117v-252h-117z"/>
<glyph glyph-name="numbersign" horiz-adv-x="614" unicode="#" d="M282 0l40 166h-100l-40 -166h-110l40 166h-92l19 91h94l28 116h-100l18 91h103l40 166h110l-40 -166h100l40 166h110l-40 -166h92l-18 -91h-95l-28 -116h101l-19 -91h-103l-40 -166h-110zM343 257l28 116h-100l-28 -116h100z"/>
<glyph glyph-name="dollar" horiz-adv-x="595" unicode="$" d="M334 -101h-75v92q-104 11 -170.5 71t-66.5 162l136 5q3 -50 31.5 -80t69.5 -40v144l-51 9q-75 13 -122.5 56.5t-47.5 123.5q0 87 60 140t161 59v79h75v-80q104 -11 160.5 -70t57.5 -153l-133 -4q-2 43 -25 70.5t-60 37.5v-142l44 -8q96 -17 141.5 -63t45.5 -123 q0 -91 -66 -141t-165 -55v-90zM422 175q0 31 -24 45t-64 20v-136q40 4 64 22t24 49zM180 455q0 -30 22.5 -43t56.5 -20v135q-38 -4 -58.5 -22t-20.5 -50z"/>
<glyph glyph-name="percent" horiz-adv-x="781" unicode="%" d="M659 162q0 49 -16 70.5t-44 21.5t-43.5 -21.5t-15.5 -70.5t15.5 -71t43.5 -22t44 22t16 71zM760 162q0 -81 -48.5 -127.5t-112.5 -46.5t-112 46.5t-48 127.5t48 127.5t112 46.5t112.5 -46.5t48.5 -127.5zM123 468q0 -49 15.5 -70.5t43.5 -21.5t44 21.5t16 70.5t-16 71 t-44 22t-43.5 -22t-15.5 -71zM606 630l-330 -630h-101l330 630h101zM22 468q0 81 48 127.5t112 46.5t112.5 -46.5t48.5 -127.5t-48.5 -127.5t-112.5 -46.5t-112 46.5t-48 127.5z"/>
<glyph glyph-name="ampersand" horiz-adv-x="666" unicode="&amp;" d="M562 -8q-25 0 -56.5 9.5t-72.5 43.5q-40 -26 -87 -41.5t-101 -15.5q-96 0 -161.5 45.5t-65.5 132.5q0 58 33 98t97 73q-28 31 -44.5 62t-16.5 75q0 79 60 123.5t142 44.5q90 0 138 -43.5t48 -105.5q0 -61 -31 -98.5t-97 -72.5l103 -103q16 24 28 51t21 56l130 -6 q-14 -46 -38.5 -94t-58.5 -91q19 -19 34.5 -28t39.5 -9q13 0 24.5 1t27.5 5v-88q-14 -10 -39 -17t-57 -7zM253 100q27 0 52 6.5t47 18.5l-131 134q-27 -16 -43 -36t-16 -50q0 -37 26 -55t65 -18zM225 478q0 -24 16 -44.5t34 -39.5q41 20 56.5 39.5t15.5 48.5q0 23 -15 40 t-43 17t-46 -16.5t-18 -44.5z"/>
<glyph glyph-name="quotesingle" horiz-adv-x="191" unicode="&apos;" d="M33 378v252h125v-252h-125z"/>
<glyph glyph-name="parenleft" horiz-adv-x="333" unicode="(" d="M44 288q0 101 38 200.5t104 171.5h133q-78 -89 -106.5 -183t-28.5 -189t28.5 -189t106.5 -183h-133q-66 72 -104 171.5t-38 200.5z"/>
<glyph glyph-name="parenright" horiz-adv-x="333" unicode=")" d="M146 660q66 -72 104.5 -171.5t38.5 -200.5t-38.5 -200.5t-104.5 -171.5h-133q78 89 106.5 183t28.5 189t-28.5 189t-106.5 183h133z"/>
<glyph glyph-name="asterisk" horiz-adv-x="374" unicode="*" d="M11 471l27 86l104 -35v110h90v-109l103 34l28 -85l-104 -34l65 -87l-73 -53l-64 87l-64 -87l-72 52l63 88z"/>
<glyph glyph-name="plus" horiz-adv-x="613" unicode="+" d="M569 250h-202v-201h-120v201h-202v121h202v202h120v-202h202v-121z"/>
<glyph glyph-name="comma" horiz-adv-x="220" unicode="," d="M32 0v156h156v-147q0 -69 -39 -104.5t-117 -37.5v72q34 1 51.5 15.5t17.5 45.5h-69z"/>
<glyph glyph-name="hyphen" horiz-adv-x="357" unicode="-" d="M48 193v126h260v-126h-260z"/>
<glyph glyph-name="period" horiz-adv-x="220" unicode="." d="M32 0v156h156v-156h-156z"/>
<glyph glyph-name="slash" horiz-adv-x="358" unicode="/" d="M-20 -83l243 742h134l-243 -742h-134z"/>
<glyph glyph-name="zero" horiz-adv-x="612" unicode="0" d="M426 315q0 104 -28.5 154.5t-91.5 50.5t-91.5 -50.5t-28.5 -154.5t28.5 -154.5t91.5 -50.5t91.5 50.5t28.5 154.5zM586 315q0 -156 -76 -241.5t-204 -85.5t-204 85.5t-76 241.5t76 241.5t204 85.5t204 -85.5t76 -241.5z"/>
<glyph glyph-name="one" horiz-adv-x="341" unicode="1" d="M11 435v100q66 0 101 23.5t52 72.5h117v-631h-152v435h-118z"/>
<glyph glyph-name="two" horiz-adv-x="517" unicode="2" d="M245 126h262v-126h-482v106l174 141q72 59 105 97.5t33 87.5q0 35 -18.5 58.5t-61.5 23.5q-45 0 -65.5 -29t-20.5 -74q0 -17 2 -30t5 -23l-148 4q-3 15 -5.5 30t-2.5 29q0 100 66.5 160.5t173.5 60.5q113 0 173.5 -57.5t60.5 -143.5q0 -82 -45 -135.5t-119 -110.5z"/>
<glyph glyph-name="three" horiz-adv-x="536" unicode="3" d="M361 182q0 39 -27.5 58.5t-68.5 19.5q-11 0 -23.5 -1t-25.5 -2v111q8 -1 22.5 -2t28.5 -1q32 0 58 18t26 58q0 35 -21.5 57t-63.5 22q-46 0 -71 -32.5t-25 -83.5l-146 6q0 97 65.5 164.5t181.5 67.5q109 0 169.5 -51.5t60.5 -134.5q0 -57 -35.5 -94t-79.5 -43 q60 -10 95 -50t35 -98q0 -86 -67 -134.5t-176 -48.5q-120 0 -188.5 62t-68.5 166l149 -5q1 -51 30.5 -76t78.5 -25q36 0 61.5 18.5t25.5 53.5z"/>
<glyph glyph-name="four" horiz-adv-x="579" unicode="4" d="M331 497l-184 -229h184v229zM480 630v-362h86v-127h-86v-141h-149v141h-313v139l279 350h183z"/>
<glyph glyph-name="five" horiz-adv-x="528" unicode="5" d="M468 630v-133h-277q-1 -21 -6 -55t-9 -53q17 16 46.5 27t72.5 11q109 0 164 -63t55 -154q0 -102 -68 -162t-171 -60q-122 0 -184.5 61.5t-62.5 160.5v12l146 -11q1 -47 27.5 -74t73.5 -27q44 0 71 27t27 73q0 43 -25 73t-72 30q-35 0 -57 -14t-35 -35l-146 11 q11 64 25 170.5t16 184.5h389z"/>
<glyph glyph-name="six" horiz-adv-x="559" unicode="6" d="M191 203q0 -42 27 -69t74 -27q48 0 74.5 26.5t26.5 69.5t-26.5 69.5t-75.5 26.5q-47 0 -73.5 -26.5t-26.5 -69.5zM296 522q-62 0 -95 -51t-36 -132q20 33 60 53t92 20q102 0 161 -58t59 -148q0 -100 -68 -159t-175 -59q-130 0 -199 87t-69 235q0 144 68.5 238t203.5 94 q100 0 162 -51t71 -144l-142 -3q-4 37 -28 57.5t-65 20.5z"/>
<glyph glyph-name="seven" horiz-adv-x="505" unicode="7" d="M324 494h-308v136h473v-116q-122 -122 -150.5 -243.5t-29.5 -270.5h-166q2 156 44 273.5t137 220.5z"/>
<glyph glyph-name="eight" horiz-adv-x="552" unicode="8" d="M276 270q-48 0 -75 -21.5t-27 -61.5q0 -41 27 -63t75 -22q49 0 75.5 22t26.5 63q0 40 -26.5 61.5t-75.5 21.5zM276 532q-39 0 -63 -20.5t-24 -59.5q0 -37 24 -57t63 -20q40 0 64.5 20t24.5 57q0 39 -24.5 59.5t-64.5 20.5zM276 -12q-121 0 -188 49.5t-67 133.5 q0 60 34 100t85 53q-48 19 -73.5 54t-25.5 89q0 81 66 128t169 47t169 -47t66 -128q0 -54 -25.5 -89t-73.5 -54q51 -13 85 -53t34 -100q0 -84 -67 -133.5t-188 -49.5z"/>
<glyph glyph-name="nine" horiz-adv-x="559" unicode="9" d="M263 108q62 0 95 51t36 132q-20 -33 -60 -53t-92 -20q-102 0 -161 58t-59 148q0 100 68 159t175 59q130 0 199 -87t69 -235q0 -144 -68.5 -238t-203.5 -94q-100 0 -162 51t-71 144l142 3q4 -37 28 -57.5t65 -20.5zM368 427q0 42 -27 69t-74 27q-48 0 -74.5 -26.5 t-26.5 -69.5t26.5 -69.5t75.5 -26.5q47 0 73.5 26.5t26.5 69.5z"/>
<glyph glyph-name="colon" horiz-adv-x="220" unicode=":" d="M32 277v156h156v-156h-156zM32 0v156h156v-156h-156z"/>
<glyph glyph-name="semicolon" horiz-adv-x="220" unicode=";" d="M32 277v156h156v-156h-156zM32 0v156h156v-147q0 -69 -39 -104.5t-117 -37.5v72q34 1 51.5 15.5t17.5 45.5h-69z"/>
<glyph glyph-name="less" horiz-adv-x="471" unicode="&lt;" d="M33 227v163l399 178v-138l-290 -122l290 -121v-139z"/>
<glyph glyph-name="equal" horiz-adv-x="633" unicode="=" d="M55 155v111h524v-111h-524zM55 359v111h524v-111h-524z"/>
<glyph glyph-name="greater" horiz-adv-x="471" unicode="&gt;" d="M438 390v-163l-400 -179v139l290 121l-290 122v138z"/>
<glyph glyph-name="question" horiz-adv-x="516" unicode="?" d="M182 0v156h156v-156h-156zM331 201h-140q1 37 17.5 69.5t50.5 60.5q31 25 54 49t23 62q0 30 -19.5 51t-56.5 21q-48 0 -69 -29t-21 -74q0 -17 2 -30t5 -23l-148 4q-3 15 -5.5 30t-2.5 29q0 100 66.5 160.5t173.5 60.5q113 0 173 -56.5t60 -135.5q0 -63 -33.5 -102.5 t-78.5 -73.5q-25 -19 -37.5 -35.5t-13.5 -37.5z"/>
<glyph glyph-name="at" horiz-adv-x="774" unicode="@" d="M430 204l5 21q3 17 3 31q0 19 -8.5 36.5t-39.5 17.5q-36 0 -57 -41t-21 -85q0 -29 10 -46t35 -17q23 0 43.5 19t29.5 64zM565 106q46 0 72.5 40.5t26.5 127.5q0 99 -61.5 156.5t-178.5 57.5q-140 0 -223.5 -85.5t-83.5 -225.5q0 -119 74 -180.5t189 -61.5q57 0 106 10 t100 35l23 -65q-50 -30 -108 -43.5t-122 -13.5q-152 0 -252 83t-100 236q0 166 108.5 278t288.5 112q151 0 238.5 -83.5t87.5 -209.5q0 -122 -65.5 -181t-143.5 -59q-47 0 -74 18.5t-39 47.5q-18 -32 -44 -49t-65 -17q-58 0 -94 37.5t-36 105.5q0 86 48.5 150.5t128.5 64.5 q40 0 65.5 -15.5t35.5 -40.5l14 48h114l-57 -227q-3 -14 -3 -23q0 -10 5.5 -19t24.5 -9z"/>
<glyph glyph-name="A" horiz-adv-x="680" unicode="A" d="M516 0l-53 136h-255l-53 -136h-152l252 630h169l254 -630h-162zM333 457l-81 -207h166l-81 207h-4z"/>
<glyph glyph-name="B" horiz-adv-x="624" unicode="B" d="M343 261h-145v-139h146q50 0 74 19t24 50t-24 50.5t-75 19.5zM198 509v-134h132q49 0 70.5 19t21.5 47q0 29 -21.5 48.5t-70.5 19.5h-132zM465 327q56 -11 94 -49t38 -105q0 -81 -60.5 -127t-170.5 -46h-315v630h296q120 0 176 -47.5t56 -125.5q0 -52 -32 -87t-82 -43z "/>
<glyph glyph-name="C" horiz-adv-x="668" unicode="C" d="M23 315q0 145 92 236t228 91q142 0 219 -80t85 -198l-145 -6q-7 60 -44.5 105t-115.5 45q-75 0 -119 -52.5t-44 -140.5t44 -140.5t119 -52.5q78 0 115.5 45t44.5 105l145 -6q-8 -118 -85 -198t-219 -80q-136 0 -228 91t-92 236z"/>
<glyph glyph-name="D" horiz-adv-x="652" unicode="D" d="M203 120h82q89 0 138.5 51.5t49.5 144.5q0 91 -49.5 142.5t-138.5 51.5h-82v-390zM51 0v630h244q154 0 244.5 -84t90.5 -231t-90.5 -231t-244.5 -84h-244z"/>
<glyph glyph-name="E" horiz-adv-x="567" unicode="E" d="M537 125v-125h-486v630h477v-125h-328v-124h255v-123h-255v-133h337z"/>
<glyph glyph-name="F" horiz-adv-x="542" unicode="F" d="M202 0h-151v630h466v-125h-315v-140h239v-124h-239v-241z"/>
<glyph glyph-name="G" horiz-adv-x="697" unicode="G" d="M329 -12q-131 0 -218.5 90.5t-87.5 236.5q0 145 93.5 236t227.5 91q137 0 215.5 -70t88.5 -189l-148 -5q-6 59 -45.5 94.5t-107.5 35.5q-78 0 -123 -53t-45 -140q0 -90 47 -144.5t133 -54.5q51 0 92.5 25.5t57.5 71.5h-151v110h294v-323h-133v79q-25 -47 -76 -69 t-114 -22z"/>
<glyph glyph-name="H" horiz-adv-x="681" unicode="H" d="M203 0h-152v630h152v-249h275v249h152v-630h-152v258h-275v-258z"/>
<glyph glyph-name="I" horiz-adv-x="254" unicode="I" d="M51 630h152v-630h-152v630z"/>
<glyph glyph-name="J" horiz-adv-x="551" unicode="J" d="M358 630h152v-404q0 -123 -69.5 -180.5t-178.5 -57.5q-116 0 -184 66t-69 188l146 6q4 -63 29.5 -97.5t76.5 -34.5q50 0 73.5 30t23.5 92v392z"/>
<glyph glyph-name="K" horiz-adv-x="629" unicode="K" d="M637 0h-182l-193 261l-59 -63v-198h-152v630h152v-267l243 267h175l-249 -270z"/>
<glyph glyph-name="L" horiz-adv-x="548" unicode="L" d="M51 630h152v-505h320v-125h-472v630z"/>
<glyph glyph-name="M" horiz-adv-x="789" unicode="M" d="M454 0h-130l-129 465h-4v-465h-140v630h236l111 -421h3l106 421h231v-630h-152v465h-4z"/>
<glyph glyph-name="N" horiz-adv-x="655" unicode="N" d="M197 630l268 -378v378h139v-630h-121l-292 402v-402h-140v630h146z"/>
<glyph glyph-name="O" horiz-adv-x="693" unicode="O" d="M514 315q0 87 -45.5 140.5t-122.5 53.5q-76 0 -121.5 -53.5t-45.5 -140.5t45.5 -140.5t121.5 -53.5q77 0 122.5 53.5t45.5 140.5zM670 315q0 -145 -93.5 -236t-230.5 -91t-230 91t-93 236t93 236t230 91t230.5 -91t93.5 -236z"/>
<glyph glyph-name="P" horiz-adv-x="585" unicode="P" d="M202 327h109q62 0 89.5 23t27.5 67t-27.5 67.5t-89.5 23.5h-109v-181zM202 205v-205h-151v630h266q122 0 190 -55.5t68 -156.5t-68 -157t-190 -56h-115z"/>
<glyph glyph-name="Q" horiz-adv-x="693" unicode="Q" d="M346 119q19 0 36.5 3t32.5 8l-64 75l81 67l61 -71q11 22 17 51t6 63q0 87 -46.5 140.5t-123.5 53.5q-76 0 -121.5 -53.5t-45.5 -140.5t45.5 -141.5t121.5 -54.5zM558 -37l-54 64q-35 -19 -75 -29t-83 -10q-137 0 -230 91t-93 236t93 236t230 91t230.5 -91t93.5 -236 q0 -66 -22 -123.5t-61 -99.5l54 -63z"/>
<glyph glyph-name="R" horiz-adv-x="629" unicode="R" d="M607 0h-154q-10 13 -16 44t-10 81q-4 53 -28.5 73.5t-71.5 20.5h-127v-219h-149v630h304q122 0 182.5 -53.5t60.5 -143.5q0 -69 -39.5 -111.5t-96.5 -49.5q50 -10 78.5 -40.5t33.5 -85.5q7 -69 12 -99t21 -47zM200 336h131q59 0 88.5 19.5t29.5 65.5q0 42 -29.5 64.5 t-88.5 22.5h-131v-172z"/>
<glyph glyph-name="S" horiz-adv-x="596" unicode="S" d="M20 224l139 5q4 -65 47.5 -93.5t101.5 -28.5q50 0 79.5 18.5t29.5 49.5t-25.5 43t-66.5 20l-118 21q-75 14 -123 58t-48 124q0 93 68 147t182 54q128 0 196.5 -60.5t70.5 -164.5l-140 -4q-3 55 -38.5 82.5t-89.5 27.5q-48 0 -74 -18.5t-26 -50.5q0 -27 20 -39t54 -19 l118 -21q96 -17 142 -65t46 -125q0 -97 -75 -147t-182 -50q-125 0 -206.5 61t-81.5 175z"/>
<glyph glyph-name="T" horiz-adv-x="640" unicode="T" d="M394 0h-151v505h-219v125h592v-125h-222v-505z"/>
<glyph glyph-name="U" horiz-adv-x="650" unicode="U" d="M325 -12q-117 0 -198 61.5t-81 198.5v382h151v-360q0 -75 29.5 -114.5t98.5 -39.5t99 39t30 114v361h151v-382q0 -137 -81 -198.5t-199 -61.5z"/>
<glyph glyph-name="V" horiz-adv-x="655" unicode="V" d="M408 0h-161l-244 630h158l169 -443h4l167 443h151z"/>
<glyph glyph-name="W" horiz-adv-x="884" unicode="W" d="M513 630l112 -423h4l106 423h147l-165 -630h-163l-111 421h-4l-111 -421h-161l-164 630h151l107 -423h4l111 423h137z"/>
<glyph glyph-name="X" horiz-adv-x="661" unicode="X" d="M640 630l-224 -298l243 -332h-178l-157 214l-154 -214h-167l242 323l-224 307h178l137 -190l136 190h168z"/>
<glyph glyph-name="Y" horiz-adv-x="638" unicode="Y" d="M325 387l147 243h163l-243 -389v-241h-147v241l-242 389h168z"/>
<glyph glyph-name="Z" horiz-adv-x="587" unicode="Z" d="M221 125h336v-125h-527v114l325 391h-322v125h515v-117z"/>
<glyph glyph-name="bracketleft" horiz-adv-x="314" unicode="[" d="M199 559v-542h90v-101h-220v744h220v-101h-90z"/>
<glyph glyph-name="backslash" horiz-adv-x="358" unicode="\" d="M134 659l244 -742h-134l-243 742h133z"/>
<glyph glyph-name="bracketright" horiz-adv-x="314" unicode="]" d="M115 17v542h-90v101h220v-744h-220v101h90z"/>
<glyph glyph-name="asciicircum" horiz-adv-x="401" unicode="^" d="M125 630h151l115 -208h-131l-59 116l-60 -116h-131z"/>
<glyph glyph-name="underscore" horiz-adv-x="381" unicode="_" d="M20 -144v110h341v-110h-341z"/>
<glyph glyph-name="grave" d="M350 491h-104l-97 139h147z" unicode="`"/>
<glyph glyph-name="a" horiz-adv-x="519" unicode="a" d="M308 188v9l-73 -15q-34 -7 -53.5 -18t-19.5 -37q0 -19 14 -30.5t37 -11.5q40 0 67.5 28t27.5 75zM450 283v-162q0 -17 7.5 -25t20.5 -8q10 0 18.5 2t18.5 6v-77q-16 -12 -38.5 -20.5t-55.5 -8.5q-40 0 -67.5 20.5t-37.5 57.5q-19 -38 -58.5 -58t-90.5 -20 q-66 0 -105.5 32t-39.5 89q0 63 44.5 94.5t117.5 45.5l124 22v8q0 31 -16 49t-49 18q-31 0 -48 -17.5t-23 -45.5l-134 10q11 71 64.5 116t148.5 45q87 0 143 -41.5t56 -131.5z"/>
<glyph glyph-name="b" horiz-adv-x="561" unicode="b" d="M191 227v-10q0 -54 28 -85.5t73 -31.5q51 0 76 34t25 88t-25 87.5t-76 33.5q-45 0 -73 -31.5t-28 -84.5zM184 80l-26 -80h-111v630h144v-266q16 40 54.5 66t95.5 26q97 0 147.5 -68.5t50.5 -165.5q0 -98 -51 -166t-150 -68q-55 0 -95.5 26t-58.5 66z"/>
<glyph glyph-name="c" horiz-adv-x="499" unicode="c" d="M22 222q0 104 68 169t172 65q99 0 154 -57t63 -136l-120 -9q-7 45 -31.5 68.5t-64.5 23.5q-42 0 -68.5 -30.5t-26.5 -93.5t26.5 -93.5t68.5 -30.5q40 0 64.5 24t31.5 69l120 -10q-8 -80 -63 -136.5t-154 -56.5q-104 0 -172 64.5t-68 169.5z"/>
<glyph glyph-name="d" horiz-adv-x="560" unicode="d" d="M369 0v79q-16 -39 -54 -65t-95 -26q-98 0 -148 68t-50 166q0 97 50 165.5t148 68.5q57 0 95 -26t54 -66v266h145v-630h-145zM369 217v10q0 53 -28 84.5t-72 31.5q-51 0 -76 -33.5t-25 -87.5t25 -88t76 -34q44 0 72 31.5t28 85.5z"/>
<glyph glyph-name="e" horiz-adv-x="508" unicode="e" d="M166 267h179q-2 33 -23.5 58.5t-62.5 25.5q-43 0 -65 -24.5t-28 -59.5zM365 157l116 -11q-17 -75 -74 -116.5t-144 -41.5q-105 0 -173 61t-68 166q0 104 68.5 172.5t169.5 68.5q110 0 167 -66t57 -156v-44h-320q3 -44 32.5 -68.5t71.5 -24.5q37 0 61 14.5t36 45.5z"/>
<glyph glyph-name="f" horiz-adv-x="318" unicode="f" d="M65 343h-65v101h65v26q0 83 46.5 127.5t124.5 44.5q61 0 101.5 -29.5t53.5 -83.5l-90 -28q-7 17 -19 27t-31 10q-23 0 -33 -16t-10 -41v-37h115v-101h-115v-343h-143v343z"/>
<glyph glyph-name="g" horiz-adv-x="509" unicode="g" d="M125 -46q0 -26 30.5 -37t79.5 -11q60 0 99.5 12.5t39.5 37.5q0 18 -13 25t-38 7h-157q-17 0 -29 -8.5t-12 -25.5zM508 -14q0 -83 -84 -121.5t-190 -38.5q-93 0 -162.5 24.5t-69.5 86.5q0 31 24 52.5t62 25.5q-30 10 -46.5 33.5t-16.5 51.5q0 31 20 54.5t54 36.5 q-30 19 -46.5 48t-16.5 65q0 70 59 111t150 41q40 0 77.5 -9.5t65.5 -27.5q19 27 51.5 46.5t68.5 19.5v-111q-16 0 -34.5 -2.5t-34.5 -6.5q7 -13 11.5 -28.5t4.5 -32.5q0 -69 -59.5 -110t-150.5 -41q-27 0 -51.5 3.5t-45.5 10.5q-6 -4 -9.5 -10t-3.5 -15q0 -13 9.5 -21.5 t31.5 -8.5h182q74 0 112 -36t38 -90zM306 304q0 33 -17 51t-43 18q-25 0 -42 -18t-17 -51q0 -34 17 -52.5t42 -18.5q26 0 43 18.5t17 52.5z"/>
<glyph glyph-name="h" horiz-adv-x="538" unicode="h" d="M191 226v-226h-144v630h144v-255q18 37 56.5 59t88.5 22q90 0 125 -53.5t35 -124.5v-278h-144v243q0 48 -17 73.5t-57 25.5q-43 0 -65 -32t-22 -84z"/>
<glyph glyph-name="i" horiz-adv-x="238" unicode="i" d="M47 444h144v-444h-144v444zM46 498v132h147v-132h-147z"/>
<glyph glyph-name="j" horiz-adv-x="238" unicode="j" d="M191 444v-469q0 -77 -41.5 -113t-113.5 -36q-36 0 -68.5 8.5t-53.5 23.5l24 88q17 -10 33.5 -14.5t32.5 -4.5q21 0 32 12.5t11 40.5v464h144zM46 498v132h147v-132h-147z"/>
<glyph glyph-name="k" horiz-adv-x="532" unicode="k" d="M191 145v-145h-144v630h144v-350l168 164h171l-187 -176l194 -268h-163l-139 188z"/>
<glyph glyph-name="l" horiz-adv-x="238" unicode="l" d="M47 630h144v-630h-144v630z"/>
<glyph glyph-name="m" horiz-adv-x="821" unicode="m" d="M471 367q17 37 56.5 63t93.5 26q90 0 124 -54t34 -124v-278h-144v243q0 48 -14.5 73.5t-53.5 25.5q-42 0 -61.5 -32t-19.5 -84v-226h-145v243q0 48 -14.5 73.5t-54.5 25.5q-41 0 -61 -32t-20 -84v-226h-144v444h144v-69q18 37 54 59t86 22q58 0 92 -24.5t48 -64.5z"/>
<glyph glyph-name="n" horiz-adv-x="538" unicode="n" d="M191 226v-226h-144v444h144v-69q18 37 56.5 59t88.5 22q90 0 125 -53.5t35 -124.5v-278h-144v243q0 48 -17 73.5t-57 25.5q-43 0 -65 -32t-22 -84z"/>
<glyph glyph-name="o" horiz-adv-x="523" unicode="o" d="M168 222q0 -55 22.5 -90t70.5 -35q47 0 70.5 35t23.5 90t-23.5 90t-70.5 35q-48 0 -70.5 -35t-22.5 -90zM501 222q0 -103 -67 -168.5t-173 -65.5t-172.5 65.5t-66.5 168.5q0 102 66.5 168t172.5 66t173 -66t67 -168z"/>
<glyph glyph-name="p" horiz-adv-x="561" unicode="p" d="M191 79v-241h-144v606h144v-80q16 40 54.5 66t95.5 26q97 0 147.5 -68.5t50.5 -165.5q0 -98 -50.5 -166t-147.5 -68q-57 0 -95.5 26t-54.5 65zM191 227v-10q0 -54 28 -85.5t73 -31.5q51 0 76 34t25 88t-25 87.5t-76 33.5q-45 0 -73 -31.5t-28 -84.5z"/>
<glyph glyph-name="q" horiz-adv-x="560" unicode="q" d="M369 217v10q0 53 -28 84.5t-72 31.5q-51 0 -76 -33.5t-25 -87.5t25 -88t76 -34q44 0 72 31.5t28 85.5zM369 -162v241q-16 -39 -54 -65t-95 -26q-98 0 -148 68t-50 166q0 97 50 165.5t148 68.5q57 0 95 -26t54 -66v80h145v-606h-145z"/>
<glyph glyph-name="r" horiz-adv-x="382" unicode="r" d="M376 438l-9 -135q-17 10 -35 14t-41 4q-45 0 -72.5 -27t-27.5 -84v-210h-144v444h144v-81q13 37 45.5 65t77.5 28q20 0 36.5 -5.5t25.5 -12.5z"/>
<glyph glyph-name="s" horiz-adv-x="455" unicode="s" d="M15 145l126 3q4 -32 29 -49.5t65 -17.5q29 0 47 10t18 28q0 16 -11.5 26t-38.5 14l-68 11q-76 12 -116.5 42.5t-40.5 96.5q0 64 52.5 105.5t141.5 41.5q94 0 148.5 -40t61.5 -111l-119 -4q-5 29 -28.5 45t-64.5 16q-27 0 -42.5 -10.5t-15.5 -28.5q0 -13 10 -21.5 t26 -10.5l86 -15q72 -11 112.5 -45.5t40.5 -97.5q0 -69 -55 -107t-145 -38t-151.5 38t-67.5 119z"/>
<glyph glyph-name="t" horiz-adv-x="347" unicode="t" d="M63 119v224h-62v88l32 5q33 6 46.5 23.5t21.5 48.5l15 59h89v-123h118v-101h-118v-185q0 -28 13.5 -41t38.5 -13q16 0 34 4.5t38 13.5v-95q-25 -19 -55.5 -29t-73.5 -10q-54 0 -95.5 28t-41.5 103z"/>
<glyph glyph-name="u" horiz-adv-x="532" unicode="u" d="M341 218v226h145v-444h-145v69q-18 -37 -54.5 -59t-86.5 -22q-90 0 -124 53t-34 124v279h144v-244q0 -47 17 -72.5t57 -25.5t60.5 31.5t20.5 84.5z"/>
<glyph glyph-name="v" horiz-adv-x="507" unicode="v" d="M338 0h-169l-169 444h152l105 -290h4l105 290h141z"/>
<glyph glyph-name="w" horiz-adv-x="711" unicode="w" d="M420 444l71 -270h4l85 270h131l-141 -444h-141l-72 268h-4l-71 -268h-141l-141 444h144l85 -270h4l71 270h116z"/>
<glyph glyph-name="x" horiz-adv-x="508" unicode="x" d="M493 444l-162 -211l177 -233h-161l-98 132l-99 -132h-150l176 227l-162 217h161l83 -116l85 116h150z"/>
<glyph glyph-name="y" horiz-adv-x="514" unicode="y" d="M259 -162h-142l65 158l-182 448h152l107 -277h4l109 277h142z"/>
<glyph glyph-name="z" horiz-adv-x="447" unicode="z" d="M238 339h-206v105h383v-98l-214 -241h219v-105h-393v99z"/>
<glyph glyph-name="braceleft" horiz-adv-x="332" unicode="{" d="M33 238v100h25q31 0 39 16t8 57v119q0 65 33.5 97.5t90.5 32.5h78v-101h-40q-22 0 -26.5 -11t-4.5 -26v-119q0 -51 -18.5 -79.5t-64.5 -35.5q46 -7 64.5 -35.5t18.5 -79.5v-119q0 -15 4.5 -26t26.5 -11h40v-101h-78q-57 0 -90.5 32.5t-33.5 97.5v119q0 41 -8 57t-39 16 h-25z"/>
<glyph glyph-name="bar" horiz-adv-x="228" unicode="|" d="M51 -83v742h126v-742h-126z"/>
<glyph glyph-name="braceright" horiz-adv-x="332" unicode="}" d="M299 338v-100h-25q-31 0 -39 -16t-8 -57v-119q0 -65 -33.5 -97.5t-90.5 -32.5h-78v101h40q22 0 26.5 11t4.5 26v119q0 51 18.5 79.5t64.5 35.5q-46 7 -64.5 35.5t-18.5 79.5v119q0 15 -4.5 26t-26.5 11h-40v101h78q57 0 90.5 -32.5t33.5 -97.5v-119q0 -41 8 -57t39 -16 h25z"/>
<glyph glyph-name="asciitilde" horiz-adv-x="401" unicode="~" d="M113 205h-75q0 66 24 108.5t71 42.5q39 0 65 -22.5t54 -22.5q15 0 25 9.5t12 32.5h75q0 -67 -24.5 -109.5t-71.5 -42.5q-38 0 -64.5 22.5t-54.5 22.5q-14 0 -24 -9.5t-12 -31.5z"/>
<glyph glyph-name="exclamdown" horiz-adv-x="223" unicode="¡" d="M189 -112h-154v165l32 265h90l32 -265v-165zM33 362v156h157v-156h-157z"/>
<glyph glyph-name="cent" horiz-adv-x="516" unicode="¢" d="M495 181q-7 -70 -54 -123t-128 -66v-86h-78v83q-94 10 -153.5 72.5t-59.5 160.5q0 97 59.5 160t153.5 73v84h78v-87q81 -13 128 -66.5t54 -122.5l-118 -7q-6 34 -22.5 56.5t-41.5 32.5v-245q25 10 41.5 32.5t23.5 56.5zM163 222q0 -54 19.5 -85t52.5 -41v253 q-33 -10 -52.5 -41.5t-19.5 -85.5z"/>
<glyph glyph-name="sterling" horiz-adv-x="605" unicode="£" d="M136 74q16 0 28 10t19 29q-13 10 -25.5 16.5t-23.5 6.5q-16 0 -25 -8t-9 -23q0 -14 11 -22.5t25 -8.5zM431 -12q-52 0 -93 17.5t-73 40.5q-24 -28 -57.5 -43t-73.5 -15q-54 0 -88.5 32t-34.5 87q0 51 34.5 82t88.5 31q16 0 30.5 -3t27.5 -7q-2 17 -7 32t-11 28h-118v83 h69q-10 19 -17 42t-7 51q0 89 62.5 142.5t159.5 53.5q113 0 173 -62.5t60 -166.5l-128 -6q-1 54 -26 85t-68 31q-37 0 -56 -22t-19 -59q0 -26 6 -47.5t15 -41.5h126v-83h-94q4 -13 6 -27.5t2 -30.5q0 -18 -1.5 -35t-5.5 -33q19 -10 40.5 -17t44.5 -7q44 0 62 20.5t18 69.5 l105 -5q2 -22 2 -42q0 -82 -38 -128.5t-116 -46.5z"/>
<glyph glyph-name="yen" horiz-adv-x="633" unicode="¥" d="M563 109h-173v-109h-147v109h-173v90h173v54h-173v90h115l-183 287h168l152 -241l146 241h163l-183 -287h115v-90h-173v-54h173v-90z"/>
<glyph glyph-name="section" horiz-adv-x="504" unicode="§" d="M251 -94q-92 0 -146.5 40t-61.5 111l118 4q5 -30 29.5 -46.5t63.5 -16.5q23 0 40.5 12t17.5 35q0 13 -9 24.5t-34 22.5l-108 43q-67 27 -104 65.5t-37 101.5q0 34 18 65t46 50q-12 15 -19 34t-7 44q0 63 52.5 105t141.5 42q93 0 147.5 -40t60.5 -111l-118 -4 q-5 30 -29 46t-63 16q-24 0 -41 -11.5t-17 -34.5q0 -14 9 -25.5t34 -21.5l108 -44q66 -27 103.5 -65.5t37.5 -101.5q0 -34 -18 -65t-46 -50q12 -15 19 -34t7 -43q0 -64 -52.5 -105.5t-142.5 -41.5zM320 198q4 -1 7.5 -3.5t7.5 -3.5q9 6 15.5 16.5t6.5 24.5q0 21 -10.5 33 t-38.5 25l-124 59q-4 1 -7.5 3.5t-7.5 4.5q-9 -7 -16 -17t-7 -24q0 -21 10.5 -33.5t38.5 -25.5z"/>
<glyph glyph-name="dieresis" d="M97 497v131h129v-131h-129zM274 497v131h129v-131h-129z" unicode="¨"/>
<glyph glyph-name="copyright" horiz-adv-x="724" unicode="©" d="M166 315q0 90 57 146t141 56q87 0 134.5 -49.5t53.5 -122.5l-94 -3q-4 33 -25.5 58.5t-66.5 25.5q-44 0 -69 -30t-25 -81q0 -49 25 -79.5t69 -30.5q45 0 66.5 25.5t25.5 59.5l94 -5q-6 -73 -53.5 -122t-134.5 -49q-84 0 -141 55.5t-57 145.5zM84 315q0 -121 82 -200.5 t196 -79.5t196 79.5t82 200.5t-82 200.5t-196 79.5t-196 -79.5t-82 -200.5zM35 315q0 142 96.5 234.5t230.5 92.5t230.5 -92.5t96.5 -234.5t-96.5 -234.5t-230.5 -92.5t-230.5 92.5t-96.5 234.5z"/>
<glyph glyph-name="ordfeminine" horiz-adv-x="423" unicode="ª" d="M246 432v8l-55 -12q-25 -6 -40 -15t-15 -28q0 -15 10.5 -24t29.5 -9q29 0 49.5 21.5t20.5 58.5zM366 508v-126q0 -14 6 -20.5t16 -6.5q7 0 14 1.5t15 5.5v-66q-13 -9 -32 -15.5t-45 -6.5q-33 0 -56.5 16.5t-31.5 47.5q-16 -31 -46 -47.5t-73 -16.5q-51 0 -82.5 25 t-31.5 71q0 51 35 75.5t94 34.5l98 18v7q0 23 -11.5 36.5t-36.5 13.5q-23 0 -36 -13t-18 -34l-112 8q9 57 52.5 93.5t120.5 36.5q70 0 115.5 -33t45.5 -105z"/>
<glyph glyph-name="guillemotleft" horiz-adv-x="467" unicode="«" d="M249 161v127l184 126v-124l-95 -66l95 -65v-124zM33 161v127l184 126v-124l-95 -66l95 -65v-124z"/>
<glyph glyph-name="registered" horiz-adv-x="410" unicode="®" d="M301 358h-56q-4 4 -6 11.5t-3 23.5t-8.5 21.5t-21.5 5.5h-26v-62h-55v196h98q37 0 56 -16.5t19 -45.5q0 -21 -12 -34.5t-30 -16.5q16 -3 25 -12t10 -26q1 -22 3 -30.5t7 -14.5zM180 463h27q17 0 25.5 5.5t8.5 17.5q0 13 -8.5 18.5t-25.5 5.5h-27v-47zM355 456 q0 67 -43.5 110.5t-106.5 43.5t-106.5 -43.5t-43.5 -110.5t43.5 -110.5t106.5 -43.5t106.5 43.5t43.5 110.5zM389 456q0 -81 -54.5 -133.5t-129.5 -52.5t-129.5 52.5t-54.5 133.5t54.5 133.5t129.5 52.5t129.5 -52.5t54.5 -133.5z"/>
<glyph glyph-name="macron" d="M114 497v98h271v-98h-271z" unicode="¯"/>
<glyph glyph-name="degree" horiz-adv-x="363" unicode="°" d="M117 496q0 -28 17.5 -47t47.5 -19t47 19t17 47q0 27 -17 46t-47 19t-47.5 -19t-17.5 -46zM30 496q0 61 44 103.5t108 42.5t107.5 -42.5t43.5 -103.5q0 -62 -43.5 -104.5t-107.5 -42.5t-108 42.5t-44 104.5z"/>
<glyph glyph-name="plusminus" horiz-adv-x="627" unicode="±" d="M61 21v119h505v-119h-505zM566 345h-193v-150h-120v150h-192v119h192v150h120v-150h193v-119z"/>
<glyph glyph-name="twosuperior" horiz-adv-x="342" unicode="²" d="M182 323h149v-94h-311v82l111 86q46 36 62.5 56t16.5 48q0 17 -9 29t-31 12q-24 0 -33.5 -16.5t-9.5 -38.5q0 -12 1.5 -19.5t2.5 -13.5l-110 4q-1 9 -3 18t-2 19q0 64 44 103.5t113 39.5q73 0 113.5 -37.5t40.5 -92.5q0 -51 -24.5 -82t-73.5 -68z"/>
<glyph glyph-name="threesuperior" horiz-adv-x="355" unicode="³" d="M224 348q0 20 -14 30t-36 10h-13t-16 -1v79q5 -1 14 -1h16q16 0 29 10.5t13 29.5t-10 30t-31 11q-25 0 -37 -18t-12 -44l-108 4q0 62 42.5 106t117.5 44q71 0 110.5 -33.5t39.5 -87.5q0 -36 -21.5 -58.5t-49.5 -26.5q40 -7 61 -31.5t21 -61.5q0 -57 -44 -87.5t-115 -30.5 q-78 0 -122.5 40t-44.5 106l111 -3q1 -27 16 -39t40 -12q17 0 30 8.5t13 26.5z"/>
<glyph glyph-name="acute" d="M253 491h-104l54 139h147z" unicode="´"/>
<glyph glyph-name="paragraph" horiz-adv-x="564" unicode="¶" d="M260 0v247q-115 0 -177.5 51.5t-62.5 140.5q0 88 62.5 139.5t177.5 51.5h252v-630h-96v536h-60v-536h-96z"/>
<glyph glyph-name="periodcentered" horiz-adv-x="246" unicode="·" d="M45 178v156h156v-156h-156z"/>
<glyph glyph-name="cedilla" horiz-adv-x="776" unicode="¸" d="M503 -102q0 -40 -36.5 -56.5t-81.5 -16.5q-37 0 -67 10.5t-46 23.5l17 37q16 -10 38 -17t47 -7q19 0 30.5 5t11.5 18q0 22 -14.5 23t-18.5 1q-21 0 -39 -8l-29 11l62 89h50l-39 -49q16 3 31 3q26 0 55 -13t29 -54z"/>
<glyph glyph-name="onesuperior" horiz-adv-x="237" unicode="¹" d="M9 495v75q41 0 64.5 14.5t34.5 45.5h89v-401h-113v266h-75z"/>
<glyph glyph-name="ordmasculine" horiz-adv-x="425" unicode="º" d="M142 459q0 -43 17 -69t53 -26t53 26t17 69q0 42 -17 69t-53 27t-53 -27t-17 -69zM405 459q0 -82 -53.5 -134.5t-139.5 -52.5q-85 0 -138.5 52.5t-53.5 134.5t53.5 134.5t138.5 52.5q86 0 139.5 -52.5t53.5 -134.5z"/>
<glyph glyph-name="guillemotright" horiz-adv-x="467" unicode="»" d="M434 288v-127l-184 -126v124l95 65l-95 66v124zM218 288v-127l-184 -126v124l95 65l-95 66v124z"/>
<glyph glyph-name="onequarter" horiz-adv-x="776" unicode="¼" d="M594 302l-98 -133h98v133zM705 401v-232h50v-86h-50v-83h-111v83h-194v94l169 224h136zM595 630l-384 -630h-101l385 630h100zM18 495v75q41 0 64.5 15t34.5 46h88v-402h-112v266h-75z"/>
<glyph glyph-name="onehalf" horiz-adv-x="796" unicode="½" d="M617 94h149v-94h-312v82l111 85q46 37 62.5 57t16.5 48q0 17 -9 29t-31 12q-24 0 -33.5 -16.5t-9.5 -38.5q0 -12 1.5 -19.5t3.5 -13.5l-110 3q-1 10 -3 19t-2 19q0 64 44 103.5t113 39.5q72 0 113 -37.5t41 -92.5q0 -51 -24.5 -82t-73.5 -68zM595 630l-384 -630h-101 l385 630h100zM18 495v75q41 0 64.5 15t34.5 46h88v-402h-112v266h-75z"/>
<glyph glyph-name="threequarters" horiz-adv-x="866" unicode="¾" d="M684 302l-98 -133h98v133zM225 348q0 20 -14 30t-36 10h-13t-16 -1v80q5 -1 14 -1h16q16 0 29 10t13 30q0 19 -10 29.5t-31 10.5q-25 0 -37.5 -18t-12.5 -44l-107 4q0 62 42.5 106t117.5 44q71 0 110.5 -33.5t39.5 -87.5q0 -36 -21.5 -58.5t-49.5 -26.5q40 -7 60.5 -31.5 t20.5 -61.5q0 -57 -44 -87.5t-114 -30.5q-78 0 -122.5 40t-44.5 107l111 -4q1 -27 16 -39t40 -12q17 0 30 8.5t13 26.5zM794 401v-232h50v-86h-50v-83h-110v83h-195v94l170 224h135zM685 630l-385 -630h-100l384 630h101z"/>
<glyph glyph-name="questiondown" horiz-adv-x="516" unicode="¿" d="M184 317h140q-1 -37 -17.5 -69.5t-50.5 -60.5q-31 -25 -54 -49t-23 -62q0 -30 19.5 -51t56.5 -21q48 0 69 29t21 74q0 17 -2 30t-5 23l148 -4q3 -15 5.5 -30t2.5 -29q0 -100 -66.5 -160.5t-173.5 -60.5q-113 0 -173 56.5t-60 135.5q0 63 33.5 102.5t78.5 73.5 q25 19 37.5 35.5t13.5 37.5zM333 518v-156h-156v156h156z"/>
<glyph glyph-name="Agrave" horiz-adv-x="680" unicode="À" d="M516 0l-53 136h-255l-53 -136h-152l252 630h169l254 -630h-162zM333 457l-81 -207h166l-81 207h-4zM390 670h-104l-97 138h147z"/>
<glyph glyph-name="Aacute" horiz-adv-x="680" unicode="Á" d="M516 0l-53 136h-255l-53 -136h-152l252 630h169l254 -630h-162zM333 457l-81 -207h166l-81 207h-4zM386 670h-104l54 138h147z"/>
<glyph glyph-name="Acircumflex" horiz-adv-x="680" unicode="Â" d="M516 0l-53 136h-255l-53 -136h-152l252 630h169l254 -630h-162zM333 457l-81 -207h166l-81 207h-4zM265 808h140l85 -138h-93l-62 59l-62 -59h-93z"/>
<glyph glyph-name="Atilde" horiz-adv-x="680" unicode="Ã" d="M516 0l-53 136h-255l-53 -136h-152l252 630h169l254 -630h-162zM333 457l-81 -207h166l-81 207h-4zM256 670h-70q0 61 22.5 100t66.5 39q35 0 59.5 -21t50.5 -21q13 0 22.5 9t10.5 30h70q0 -61 -23 -100t-66 -39q-36 0 -60 20.5t-50 20.5q-13 0 -22.5 -8.5t-10.5 -29.5z "/>
<glyph glyph-name="Adieresis" horiz-adv-x="680" unicode="Ä" d="M516 0l-53 136h-255l-53 -136h-152l252 630h169l254 -630h-162zM333 457l-81 -207h166l-81 207h-4zM183 671v131h129v-131h-129zM360 671v131h129v-131h-129z"/>
<glyph glyph-name="Aring" horiz-adv-x="680" unicode="Å" d="M516 0l-53 136h-255l-53 -136h-152l252 630h169l254 -630h-162zM333 457l-81 -207h166l-81 207h-4zM299 754q0 -16 9 -26t27 -10t27 10t9 26t-9 26t-27 10t-27 -10t-9 -26zM239 754q0 40 26.5 66t69.5 26t69.5 -26t26.5 -66t-26.5 -66t-69.5 -26t-69.5 26t-26.5 66z"/>
<glyph glyph-name="AE" horiz-adv-x="991" unicode="Æ" d="M476 0v152h-224l-90 -152h-159l379 630h570v-125h-327v-124h254v-123h-254v-133h336v-125h-485zM472 523l-152 -256h156v256h-4z"/>
<glyph glyph-name="Ccedilla" horiz-adv-x="668" unicode="Ç" d="M468 -102q0 -40 -36.5 -56.5t-81.5 -16.5q-37 0 -67 10.5t-46 23.5l17 37q16 -10 38 -17t47 -7q19 0 30.5 5t11.5 18q0 22 -14.5 23t-18.5 1q-21 0 -39 -8l-29 11l46 66q-125 6 -211 91q-92 91 -92 236t92 236t228 91q142 0 219 -80t85 -198l-145 -6q-7 60 -44.5 105 t-115.5 45q-75 0 -119 -52.5t-44 -140.5t44 -140.5t119 -52.5q78 0 115.5 45t44.5 105l145 -6q-8 -118 -85 -198q-68 -71 -188 -79l-21 -27q16 3 31 3q26 0 55 -13t29 -54z"/>
<glyph glyph-name="Egrave" horiz-adv-x="567" unicode="È" d="M353 670h-104l-97 138h147zM537 125v-125h-486v630h477v-125h-328v-124h255v-123h-255v-133h337z"/>
<glyph glyph-name="Eacute" horiz-adv-x="567" unicode="É" d="M349 670h-104l54 138h147zM537 125v-125h-486v630h477v-125h-328v-124h255v-123h-255v-133h337z"/>
<glyph glyph-name="Ecircumflex" horiz-adv-x="567" unicode="Ê" d="M537 125v-125h-486v630h477v-125h-328v-124h255v-123h-255v-133h337zM229 808h140l85 -138h-93l-62 59l-62 -59h-93z"/>
<glyph glyph-name="Edieresis" horiz-adv-x="567" unicode="Ë" d="M146 671v131h129v-131h-129zM323 671v131h129v-131h-129zM537 125v-125h-486v630h477v-125h-328v-124h255v-123h-255v-133h337z"/>
<glyph glyph-name="Igrave" horiz-adv-x="254" unicode="Ì" d="M51 630h152v-630h-152v630zM181 670h-104l-97 138h147z"/>
<glyph glyph-name="Iacute" horiz-adv-x="254" unicode="Í" d="M51 630h152v-630h-152v630zM177 670h-104l54 138h147z"/>
<glyph glyph-name="Icircumflex" horiz-adv-x="254" unicode="Î" d="M51 630h152v-630h-152v630zM57 808h140l85 -138h-93l-62 59l-62 -59h-93z"/>
<glyph glyph-name="Idieresis" horiz-adv-x="254" unicode="Ï" d="M51 630h152v-630h-152v630zM-26 671v131h129v-131h-129zM151 671v131h129v-131h-129z"/>
<glyph glyph-name="Eth" horiz-adv-x="672" unicode="Ð" d="M223 120h82q89 0 138.5 51.5t49.5 144.5q0 91 -49.5 142.5t-138.5 51.5h-82v-129h140v-123h-140v-138zM315 0h-244v258h-58v123h58v249h244q154 0 244.5 -84t90.5 -231t-90.5 -231t-244.5 -84z"/>
<glyph glyph-name="Ntilde" horiz-adv-x="655" unicode="Ñ" d="M256 670h-70q0 61 22.5 100t66.5 39q35 0 59.5 -21t50.5 -21q13 0 22.5 9t10.5 30h70q0 -61 -23 -100t-66 -39q-36 0 -60 20.5t-50 20.5q-13 0 -22.5 -8.5t-10.5 -29.5zM197 630l268 -378v378h139v-630h-121l-292 402v-402h-140v630h146z"/>
<glyph glyph-name="Ograve" horiz-adv-x="693" unicode="Ò" d="M401 670h-104l-97 138h147zM514 315q0 87 -45.5 140.5t-122.5 53.5q-76 0 -121.5 -53.5t-45.5 -140.5t45.5 -140.5t121.5 -53.5q77 0 122.5 53.5t45.5 140.5zM670 315q0 -145 -93.5 -236t-230.5 -91t-230 91t-93 236t93 236t230 91t230.5 -91t93.5 -236z"/>
<glyph glyph-name="Oacute" horiz-adv-x="693" unicode="Ó" d="M397 670h-104l54 138h147zM514 315q0 87 -45.5 140.5t-122.5 53.5q-76 0 -121.5 -53.5t-45.5 -140.5t45.5 -140.5t121.5 -53.5q77 0 122.5 53.5t45.5 140.5zM670 315q0 -145 -93.5 -236t-230.5 -91t-230 91t-93 236t93 236t230 91t230.5 -91t93.5 -236z"/>
<glyph glyph-name="Ocircumflex" horiz-adv-x="693" unicode="Ô" d="M514 315q0 87 -45.5 140.5t-122.5 53.5q-76 0 -121.5 -53.5t-45.5 -140.5t45.5 -140.5t121.5 -53.5q77 0 122.5 53.5t45.5 140.5zM670 315q0 -145 -93.5 -236t-230.5 -91t-230 91t-93 236t93 236t230 91t230.5 -91t93.5 -236zM276 808h140l85 -138h-93l-62 59l-62 -59 h-93z"/>
<glyph glyph-name="Otilde" horiz-adv-x="693" unicode="Õ" d="M266 670h-70q0 61 22.5 100t66.5 39q35 0 59.5 -21t50.5 -21q13 0 22.5 9t10.5 30h70q0 -61 -23 -100t-66 -39q-36 0 -60 20.5t-50 20.5q-13 0 -22.5 -8.5t-10.5 -29.5zM514 315q0 87 -45.5 140.5t-122.5 53.5q-76 0 -121.5 -53.5t-45.5 -140.5t45.5 -140.5t121.5 -53.5 q77 0 122.5 53.5t45.5 140.5zM670 315q0 -145 -93.5 -236t-230.5 -91t-230 91t-93 236t93 236t230 91t230.5 -91t93.5 -236z"/>
<glyph glyph-name="Odieresis" horiz-adv-x="693" unicode="Ö" d="M194 671v131h129v-131h-129zM371 671v131h129v-131h-129zM514 315q0 87 -45.5 140.5t-122.5 53.5q-76 0 -121.5 -53.5t-45.5 -140.5t45.5 -140.5t121.5 -53.5q77 0 122.5 53.5t45.5 140.5zM670 315q0 -145 -93.5 -236t-230.5 -91t-230 91t-93 236t93 236t230 91 t230.5 -91t93.5 -236z"/>
<glyph glyph-name="multiply" horiz-adv-x="530" unicode="×" d="M183 309l-146 145l83 83l145 -147l146 147l82 -83l-146 -145l146 -146l-82 -81l-146 145l-145 -145l-83 81z"/>
<glyph glyph-name="Oslash" horiz-adv-x="693" unicode="Ø" d="M346 -12q-48 0 -91.5 12t-80.5 34l-54 -70l-65 47l56 72q-41 43 -64.5 102.5t-23.5 129.5q0 145 93 236t230 91q46 0 88.5 -11t78.5 -31l50 64l65 -47l-51 -66q43 -43 68 -103.5t25 -132.5q0 -145 -93.5 -236t-230.5 -91zM346 121q77 0 122.5 53.5t45.5 140.5 q0 34 -7.5 64.5t-21.5 53.5l-225 -289q18 -11 39.5 -17t46.5 -6zM179 315q0 -32 6.5 -60.5t18.5 -51.5l223 286q-17 10 -37.5 15t-43.5 5q-76 0 -121.5 -53.5t-45.5 -140.5z"/>
<glyph glyph-name="Ugrave" horiz-adv-x="650" unicode="Ù" d="M380 670h-104l-97 138h147zM325 -12q-117 0 -198 61.5t-81 198.5v382h151v-360q0 -75 29.5 -114.5t98.5 -39.5t99 39t30 114v361h151v-382q0 -137 -81 -198.5t-199 -61.5z"/>
<glyph glyph-name="Uacute" horiz-adv-x="650" unicode="Ú" d="M376 670h-104l54 138h147zM325 -12q-117 0 -198 61.5t-81 198.5v382h151v-360q0 -75 29.5 -114.5t98.5 -39.5t99 39t30 114v361h151v-382q0 -137 -81 -198.5t-199 -61.5z"/>
<glyph glyph-name="Ucircumflex" horiz-adv-x="650" unicode="Û" d="M325 -12q-117 0 -198 61.5t-81 198.5v382h151v-360q0 -75 29.5 -114.5t98.5 -39.5t99 39t30 114v361h151v-382q0 -137 -81 -198.5t-199 -61.5zM255 808h140l85 -138h-93l-62 59l-62 -59h-93z"/>
<glyph glyph-name="Udieresis" horiz-adv-x="650" unicode="Ü" d="M172 671v131h129v-131h-129zM349 671v131h129v-131h-129zM325 -12q-117 0 -198 61.5t-81 198.5v382h151v-360q0 -75 29.5 -114.5t98.5 -39.5t99 39t30 114v361h151v-382q0 -137 -81 -198.5t-199 -61.5z"/>
<glyph glyph-name="Yacute" horiz-adv-x="638" unicode="Ý" d="M325 387l147 243h163l-243 -389v-241h-147v241l-242 389h168zM369 670h-104l54 138h147z"/>
<glyph glyph-name="Thorn" horiz-adv-x="583" unicode="Þ" d="M202 235h107q62 0 90 23t28 67t-28 67.5t-90 23.5h-107v-181zM202 113v-113h-151v630h151v-92h114q122 0 189.5 -55.5t67.5 -156.5t-67.5 -157t-189.5 -56h-114z"/>
<glyph glyph-name="germandbls" horiz-adv-x="530" unicode="ß" d="M478 477q0 -47 -21 -79t-59 -46q46 -15 76 -55.5t30 -111.5q0 -91 -53.5 -140t-132.5 -49q-27 0 -44.5 4t-30.5 8v109q10 -4 22 -6t23 -2q37 0 59.5 23.5t22.5 68.5q0 43 -23 66t-63 23q-12 0 -20 -0.5t-18 -1.5v110q7 -1 14 -1h16q31 0 49 18t18 55q0 28 -17 48t-51 20 q-44 0 -64 -33t-20 -91v-414h-144v419q0 101 60.5 162t164.5 61q93 0 149.5 -45t56.5 -120z"/>
<glyph glyph-name="agrave" horiz-adv-x="519" unicode="à" d="M308 188v9l-73 -15q-34 -7 -53.5 -18t-19.5 -37q0 -19 14 -30.5t37 -11.5q40 0 67.5 28t27.5 75zM450 283v-162q0 -17 7.5 -25t20.5 -8q10 0 18.5 2t18.5 6v-77q-16 -12 -38.5 -20.5t-55.5 -8.5q-40 0 -67.5 20.5t-37.5 57.5q-19 -38 -58.5 -58t-90.5 -20 q-66 0 -105.5 32t-39.5 89q0 63 44.5 94.5t117.5 45.5l124 22v8q0 31 -16 49t-49 18q-31 0 -48 -17.5t-23 -45.5l-134 10q11 71 64.5 116t148.5 45q87 0 143 -41.5t56 -131.5zM309 491h-104l-97 139h147z"/>
<glyph glyph-name="aacute" horiz-adv-x="519" unicode="á" d="M308 188v9l-73 -15q-34 -7 -53.5 -18t-19.5 -37q0 -19 14 -30.5t37 -11.5q40 0 67.5 28t27.5 75zM450 283v-162q0 -17 7.5 -25t20.5 -8q10 0 18.5 2t18.5 6v-77q-16 -12 -38.5 -20.5t-55.5 -8.5q-40 0 -67.5 20.5t-37.5 57.5q-19 -38 -58.5 -58t-90.5 -20 q-66 0 -105.5 32t-39.5 89q0 63 44.5 94.5t117.5 45.5l124 22v8q0 31 -16 49t-49 18q-31 0 -48 -17.5t-23 -45.5l-134 10q11 71 64.5 116t148.5 45q87 0 143 -41.5t56 -131.5zM305 491h-104l54 139h147z"/>
<glyph glyph-name="acircumflex" horiz-adv-x="519" unicode="â" d="M308 188v9l-73 -15q-34 -7 -53.5 -18t-19.5 -37q0 -19 14 -30.5t37 -11.5q40 0 67.5 28t27.5 75zM450 283v-162q0 -17 7.5 -25t20.5 -8q10 0 18.5 2t18.5 6v-77q-16 -12 -38.5 -20.5t-55.5 -8.5q-40 0 -67.5 20.5t-37.5 57.5q-19 -38 -58.5 -58t-90.5 -20 q-66 0 -105.5 32t-39.5 89q0 63 44.5 94.5t117.5 45.5l124 22v8q0 31 -16 49t-49 18q-31 0 -48 -17.5t-23 -45.5l-134 10q11 71 64.5 116t148.5 45q87 0 143 -41.5t56 -131.5zM185 630h140l85 -139h-93l-62 60l-62 -60h-93z"/>
<glyph glyph-name="atilde" horiz-adv-x="519" unicode="ã" d="M308 188v9l-73 -15q-34 -7 -53.5 -18t-19.5 -37q0 -19 14 -30.5t37 -11.5q40 0 67.5 28t27.5 75zM450 283v-162q0 -17 7.5 -25t20.5 -8q10 0 18.5 2t18.5 6v-77q-16 -12 -38.5 -20.5t-55.5 -8.5q-40 0 -67.5 20.5t-37.5 57.5q-19 -38 -58.5 -58t-90.5 -20 q-66 0 -105.5 32t-39.5 89q0 63 44.5 94.5t117.5 45.5l124 22v8q0 31 -16 49t-49 18q-31 0 -48 -17.5t-23 -45.5l-134 10q11 71 64.5 116t148.5 45q87 0 143 -41.5t56 -131.5zM176 492h-70q0 61 22.5 100t66.5 39q35 0 59.5 -20.5t50.5 -20.5q13 0 22.5 8.5t10.5 29.5h70 q0 -61 -23 -100t-66 -39q-36 0 -60 21t-50 21q-13 0 -22.5 -9t-10.5 -30z"/>
<glyph glyph-name="adieresis" horiz-adv-x="519" unicode="ä" d="M308 188v9l-73 -15q-34 -7 -53.5 -18t-19.5 -37q0 -19 14 -30.5t37 -11.5q40 0 67.5 28t27.5 75zM450 283v-162q0 -17 7.5 -25t20.5 -8q10 0 18.5 2t18.5 6v-77q-16 -12 -38.5 -20.5t-55.5 -8.5q-40 0 -67.5 20.5t-37.5 57.5q-19 -38 -58.5 -58t-90.5 -20 q-66 0 -105.5 32t-39.5 89q0 63 44.5 94.5t117.5 45.5l124 22v8q0 31 -16 49t-49 18q-31 0 -48 -17.5t-23 -45.5l-134 10q11 71 64.5 116t148.5 45q87 0 143 -41.5t56 -131.5zM102 497v131h129v-131h-129zM279 497v131h129v-131h-129z"/>
<glyph glyph-name="aring" horiz-adv-x="519" unicode="å" d="M308 188v9l-73 -15q-34 -7 -53.5 -18t-19.5 -37q0 -19 14 -30.5t37 -11.5q40 0 67.5 28t27.5 75zM450 283v-162q0 -17 7.5 -25t20.5 -8q10 0 18.5 2t18.5 6v-77q-16 -12 -38.5 -20.5t-55.5 -8.5q-40 0 -67.5 20.5t-37.5 57.5q-19 -38 -58.5 -58t-90.5 -20 q-66 0 -105.5 32t-39.5 89q0 63 44.5 94.5t117.5 45.5l124 22v8q0 31 -16 49t-49 18q-31 0 -48 -17.5t-23 -45.5l-134 10q11 71 64.5 116t148.5 45q87 0 143 -41.5t56 -131.5zM219 576q0 -16 9 -26t27 -10t27 10t9 26t-9 26t-27 10t-27 -10t-9 -26zM159 576q0 39 26.5 65.5 t69.5 26.5t69.5 -26.5t26.5 -65.5q0 -40 -26.5 -66t-69.5 -26t-69.5 26t-26.5 66z"/>
<glyph glyph-name="ae" horiz-adv-x="780" unicode="æ" d="M218 84q40 0 68.5 26t28.5 72v10h-64q-46 0 -67.5 -14.5t-21.5 -44.5q0 -21 14 -35t42 -14zM531 351q-36 0 -61.5 -21t-34.5 -63h182q-2 34 -23.5 59t-62.5 25zM238 456q48 0 84.5 -15t59.5 -47q24 28 65.5 45t84.5 17q110 0 167 -66t57 -156v-42h-323q7 -51 38.5 -73 t68.5 -22t61 15t36 46l117 -11q-17 -75 -74.5 -117t-144.5 -42q-63 0 -107.5 22.5t-72.5 64.5q-22 -36 -65.5 -60.5t-109.5 -24.5q-76 0 -117 37.5t-41 91.5q0 73 58.5 110.5t162.5 37.5h72v9q0 34 -19 53t-52 19q-31 0 -51 -16.5t-27 -41.5l-126 8q11 71 66 114.5t132 43.5 z"/>
<glyph glyph-name="ccedilla" horiz-adv-x="499" unicode="ç" d="M374 -102q0 -40 -36.5 -56.5t-81.5 -16.5q-37 0 -67 10.5t-46 23.5l17 37q16 -10 38 -17t47 -7q19 0 30.5 5t11.5 18q0 22 -14.5 23t-18.5 1q-21 0 -39 -8l-29 11l47 68q-85 7 -143 62q-68 65 -68 170q0 104 68 169t172 65q99 0 154 -57t63 -136l-120 -9 q-7 45 -31.5 68.5t-64.5 23.5q-42 0 -68.5 -30.5t-26.5 -93.5t26.5 -93.5t68.5 -30.5q40 0 64.5 24t31.5 69l120 -10q-8 -80 -63 -137q-50 -51 -136 -55l-21 -27q16 3 31 3q26 0 55 -13t29 -54z"/>
<glyph glyph-name="egrave" horiz-adv-x="508" unicode="è" d="M166 267h179q-2 33 -23.5 58.5t-62.5 25.5q-43 0 -65 -24.5t-28 -59.5zM365 157l116 -11q-17 -75 -74 -116.5t-144 -41.5q-105 0 -173 61t-68 166q0 104 68.5 172.5t169.5 68.5q110 0 167 -66t57 -156v-44h-320q3 -44 32.5 -68.5t71.5 -24.5q37 0 61 14.5t36 45.5z M317 491h-104l-97 139h147z"/>
<glyph glyph-name="eacute" horiz-adv-x="508" unicode="é" d="M312 491h-104l54 139h147zM166 267h179q-2 33 -23.5 58.5t-62.5 25.5q-43 0 -65 -24.5t-28 -59.5zM365 157l116 -11q-17 -75 -74 -116.5t-144 -41.5q-105 0 -173 61t-68 166q0 104 68.5 172.5t169.5 68.5q110 0 167 -66t57 -156v-44h-320q3 -44 32.5 -68.5t71.5 -24.5 q37 0 61 14.5t36 45.5z"/>
<glyph glyph-name="ecircumflex" horiz-adv-x="508" unicode="ê" d="M192 630h140l85 -139h-93l-62 60l-62 -60h-93zM166 267h179q-2 33 -23.5 58.5t-62.5 25.5q-43 0 -65 -24.5t-28 -59.5zM365 157l116 -11q-17 -75 -74 -116.5t-144 -41.5q-105 0 -173 61t-68 166q0 104 68.5 172.5t169.5 68.5q110 0 167 -66t57 -156v-44h-320 q3 -44 32.5 -68.5t71.5 -24.5q37 0 61 14.5t36 45.5z"/>
<glyph glyph-name="edieresis" horiz-adv-x="508" unicode="ë" d="M109 497v131h129v-131h-129zM286 497v131h129v-131h-129zM166 267h179q-2 33 -23.5 58.5t-62.5 25.5q-43 0 -65 -24.5t-28 -59.5zM365 157l116 -11q-17 -75 -74 -116.5t-144 -41.5q-105 0 -173 61t-68 166q0 104 68.5 172.5t169.5 68.5q110 0 167 -66t57 -156v-44h-320 q3 -44 32.5 -68.5t71.5 -24.5q37 0 61 14.5t36 45.5z"/>
<glyph glyph-name="igrave" horiz-adv-x="238" unicode="ì" d="M47 444h144v-444h-144v444zM173 491h-104l-97 139h147z"/>
<glyph glyph-name="iacute" horiz-adv-x="238" unicode="í" d="M170 491h-104l54 139h147zM47 444h144v-444h-144v444z"/>
<glyph glyph-name="icircumflex" horiz-adv-x="238" unicode="î" d="M49 630h140l85 -139h-93l-62 60l-62 -60h-93zM47 444h144v-444h-144v444z"/>
<glyph glyph-name="idieresis" horiz-adv-x="238" unicode="ï" d="M-34 497v131h129v-131h-129zM143 497v131h129v-131h-129zM47 444h144v-444h-144v444z"/>
<glyph glyph-name="eth" horiz-adv-x="520" unicode="ð" d="M261 100q44 0 69 32t25 80q0 49 -25 81t-69 32t-68.5 -32t-24.5 -81q0 -48 24.5 -80t68.5 -32zM261 -12q-106 0 -172.5 60t-66.5 165q0 104 65.5 158t149.5 54q33 0 62 -12t50 -35q-10 23 -35.5 51.5t-60.5 56.5l-142 -45l-23 63l100 32q-22 16 -45 30.5t-45 27.5l125 48 q27 -14 52 -30t47 -33l91 29l24 -63l-58 -19q57 -60 88 -134t31 -155q0 -117 -65.5 -183t-171.5 -66z"/>
<glyph glyph-name="ntilde" horiz-adv-x="538" unicode="ñ" d="M191 226v-226h-144v444h144v-69q18 37 56.5 59t88.5 22q90 0 125 -53.5t35 -124.5v-278h-144v243q0 48 -17 73.5t-57 25.5q-43 0 -65 -32t-22 -84zM198 492h-70q0 61 22.5 100t66.5 39q35 0 59.5 -20.5t50.5 -20.5q13 0 22.5 8.5t10.5 29.5h70q0 -61 -23 -100t-66 -39 q-36 0 -60 21t-50 21q-13 0 -22.5 -9t-10.5 -30z"/>
<glyph glyph-name="ograve" horiz-adv-x="523" unicode="ò" d="M168 222q0 -55 22.5 -90t70.5 -35q47 0 70.5 35t23.5 90t-23.5 90t-70.5 35q-48 0 -70.5 -35t-22.5 -90zM501 222q0 -103 -67 -168.5t-173 -65.5t-172.5 65.5t-66.5 168.5q0 102 66.5 168t172.5 66t173 -66t67 -168zM316 491h-104l-97 139h147z"/>
<glyph glyph-name="oacute" horiz-adv-x="523" unicode="ó" d="M312 491h-104l54 139h147zM168 222q0 -55 22.5 -90t70.5 -35q47 0 70.5 35t23.5 90t-23.5 90t-70.5 35q-48 0 -70.5 -35t-22.5 -90zM501 222q0 -103 -67 -168.5t-173 -65.5t-172.5 65.5t-66.5 168.5q0 102 66.5 168t172.5 66t173 -66t67 -168z"/>
<glyph glyph-name="ocircumflex" horiz-adv-x="523" unicode="ô" d="M191 630h140l85 -139h-93l-62 60l-62 -60h-93zM168 222q0 -55 22.5 -90t70.5 -35q47 0 70.5 35t23.5 90t-23.5 90t-70.5 35q-48 0 -70.5 -35t-22.5 -90zM501 222q0 -103 -67 -168.5t-173 -65.5t-172.5 65.5t-66.5 168.5q0 102 66.5 168t172.5 66t173 -66t67 -168z"/>
<glyph glyph-name="otilde" horiz-adv-x="523" unicode="õ" d="M168 222q0 -55 22.5 -90t70.5 -35q47 0 70.5 35t23.5 90t-23.5 90t-70.5 35q-48 0 -70.5 -35t-22.5 -90zM501 222q0 -103 -67 -168.5t-173 -65.5t-172.5 65.5t-66.5 168.5q0 102 66.5 168t172.5 66t173 -66t67 -168zM183 492h-70q0 61 22.5 100t66.5 39q35 0 59.5 -20.5 t50.5 -20.5q13 0 22.5 8.5t10.5 29.5h70q0 -61 -23 -100t-66 -39q-36 0 -60 21t-50 21q-13 0 -22.5 -9t-10.5 -30z"/>
<glyph glyph-name="odieresis" horiz-adv-x="523" unicode="ö" d="M108 497v131h129v-131h-129zM285 497v131h129v-131h-129zM168 222q0 -55 22.5 -90t70.5 -35q47 0 70.5 35t23.5 90t-23.5 90t-70.5 35q-48 0 -70.5 -35t-22.5 -90zM501 222q0 -103 -67 -168.5t-173 -65.5t-172.5 65.5t-66.5 168.5q0 102 66.5 168t172.5 66t173 -66 t67 -168z"/>
<glyph glyph-name="divide" horiz-adv-x="613" unicode="÷" d="M228 24v149h158v-149h-158zM45 250v121h524v-121h-524zM228 448v149h158v-149h-158z"/>
<glyph glyph-name="oslash" horiz-adv-x="523" unicode="ø" d="M261 -12q-36 0 -68 8t-58 23l-44 -53l-52 41l43 52q-28 31 -44 72.5t-16 90.5q0 102 66.5 168t172.5 66q36 0 68 -8t59 -23l44 53l52 -41l-44 -53q29 -31 45 -72t16 -90q0 -103 -67 -168.5t-173 -65.5zM261 97q51 0 77.5 35t26.5 90q0 17 -2.5 32t-7.5 28l-145 -173 q10 -6 23 -9t28 -3zM158 222q0 -17 2.5 -32.5t7.5 -28.5l144 174q-10 6 -23 9t-28 3q-51 0 -77 -35t-26 -90z"/>
<glyph glyph-name="ugrave" horiz-adv-x="532" unicode="ù" d="M341 218v226h145v-444h-145v69q-18 -37 -54.5 -59t-86.5 -22q-90 0 -124 53t-34 124v279h144v-244q0 -47 17 -72.5t57 -25.5t60.5 31.5t20.5 84.5zM318 491h-104l-97 139h147z"/>
<glyph glyph-name="uacute" horiz-adv-x="532" unicode="ú" d="M315 491h-104l54 139h147zM341 218v226h145v-444h-145v69q-18 -37 -54.5 -59t-86.5 -22q-90 0 -124 53t-34 124v279h144v-244q0 -47 17 -72.5t57 -25.5t60.5 31.5t20.5 84.5z"/>
<glyph glyph-name="ucircumflex" horiz-adv-x="532" unicode="û" d="M194 630h140l85 -139h-93l-62 60l-62 -60h-93zM341 218v226h145v-444h-145v69q-18 -37 -54.5 -59t-86.5 -22q-90 0 -124 53t-34 124v279h144v-244q0 -47 17 -72.5t57 -25.5t60.5 31.5t20.5 84.5z"/>
<glyph glyph-name="udieresis" horiz-adv-x="532" unicode="ü" d="M111 497v131h129v-131h-129zM288 497v131h129v-131h-129zM341 218v226h145v-444h-145v69q-18 -37 -54.5 -59t-86.5 -22q-90 0 -124 53t-34 124v279h144v-244q0 -47 17 -72.5t57 -25.5t60.5 31.5t20.5 84.5z"/>
<glyph glyph-name="yacute" horiz-adv-x="514" unicode="ý" d="M259 -162h-142l65 158l-182 448h152l107 -277h4l109 277h142zM307 491h-104l54 139h147z"/>
<glyph glyph-name="thorn" horiz-adv-x="561" unicode="þ" d="M191 79v-241h-144v792h144v-266q16 40 54.5 66t95.5 26q97 0 147.5 -68.5t50.5 -165.5q0 -98 -50.5 -166t-147.5 -68q-57 0 -95.5 26t-54.5 65zM191 227v-10q0 -54 28 -85.5t73 -31.5q51 0 76 34t25 88t-25 87.5t-76 33.5q-45 0 -73 -31.5t-28 -84.5z"/>
<glyph glyph-name="ydieresis" horiz-adv-x="514" unicode="ÿ" d="M259 -162h-142l65 158l-182 448h152l107 -277h4l109 277h142zM104 497v131h129v-131h-129zM281 497v131h129v-131h-129z"/>
<glyph glyph-name="Amacron" horiz-adv-x="680" unicode="Ā" d="M516 0l-53 136h-255l-53 -136h-152l252 630h169l254 -630h-162zM333 457l-81 -207h166l-81 207h-4zM196 674v99h279v-99h-279z"/>
<glyph glyph-name="amacron" horiz-adv-x="519" unicode="ā" d="M308 188v9l-73 -15q-34 -7 -53.5 -18t-19.5 -37q0 -19 14 -30.5t37 -11.5q40 0 67.5 28t27.5 75zM450 283v-162q0 -17 7.5 -25t20.5 -8q10 0 18.5 2t18.5 6v-77q-16 -12 -38.5 -20.5t-55.5 -8.5q-40 0 -67.5 20.5t-37.5 57.5q-19 -38 -58.5 -58t-90.5 -20 q-66 0 -105.5 32t-39.5 89q0 63 44.5 94.5t117.5 45.5l124 22v8q0 31 -16 49t-49 18q-31 0 -48 -17.5t-23 -45.5l-134 10q11 71 64.5 116t148.5 45q87 0 143 -41.5t56 -131.5zM120 497v98h271v-98h-271z"/>
<glyph glyph-name="Abreve" horiz-adv-x="680" unicode="Ă" d="M516 0l-53 136h-255l-53 -136h-152l252 630h169l254 -630h-162zM333 457l-81 -207h166l-81 207h-4zM335 669q-64 0 -100 36.5t-36 102.5h83q0 -25 14.5 -38t38.5 -13t38.5 13t14.5 38h83q0 -66 -36 -102.5t-100 -36.5z"/>
<glyph glyph-name="abreve" horiz-adv-x="519" unicode="ă" d="M308 188v9l-73 -15q-34 -7 -53.5 -18t-19.5 -37q0 -19 14 -30.5t37 -11.5q40 0 67.5 28t27.5 75zM450 283v-162q0 -17 7.5 -25t20.5 -8q10 0 18.5 2t18.5 6v-77q-16 -12 -38.5 -20.5t-55.5 -8.5q-40 0 -67.5 20.5t-37.5 57.5q-19 -38 -58.5 -58t-90.5 -20 q-66 0 -105.5 32t-39.5 89q0 63 44.5 94.5t117.5 45.5l124 22v8q0 31 -16 49t-49 18q-31 0 -48 -17.5t-23 -45.5l-134 10q11 71 64.5 116t148.5 45q87 0 143 -41.5t56 -131.5zM255 491q-64 0 -100 36.5t-36 102.5h83q0 -26 14.5 -38.5t38.5 -12.5t38.5 12.5t14.5 38.5h83 q0 -66 -36 -102.5t-100 -36.5z"/>
<glyph glyph-name="Aogonek" horiz-adv-x="680" unicode="Ą" d="M333 457l-81 -207h166l-81 207h-4zM255 630h169l254 -630q-43 -24 -59.5 -39.5t-16.5 -31.5q0 -13 8 -20t21 -7t24 4t22 9v-66q-13 -8 -31 -16t-48 -8q-43 0 -67 19.5t-24 51.5q0 30 17 56t45 48h-53l-53 136h-255l-53 -136h-152z"/>
<glyph glyph-name="aogonek" horiz-adv-x="519" unicode="ą" d="M308 189v8l-73 -15q-34 -7 -53.5 -18.5t-19.5 -36.5q0 -19 14 -30.5t37 -11.5q40 0 67.5 28t27.5 76zM450 283v-162q0 -17 7.5 -25t20.5 -8q10 0 18.5 2t18.5 6v-78q-37 -31 -56 -50t-19 -39q0 -13 8 -20t21 -7q12 0 23.5 4t22.5 9v-66q-13 -8 -31 -16t-49 -8 q-42 0 -66.5 19.5t-24.5 51.5q0 27 14 51t39 45q-31 6 -52 25.5t-29 50.5q-19 -39 -58.5 -58.5t-91.5 -19.5q-66 0 -105 32t-39 89q0 63 44.5 94.5t117.5 45.5l124 22v8q0 31 -16 49t-49 18q-31 0 -48 -17.5t-23 -45.5l-134 10q11 71 64.5 116t148.5 45q87 0 143 -41.5 t56 -131.5z"/>
<glyph glyph-name="Cacute" horiz-adv-x="668" unicode="Ć" d="M23 315q0 145 92 236t228 91q142 0 219 -80t85 -198l-145 -6q-7 60 -44.5 105t-115.5 45q-75 0 -119 -52.5t-44 -140.5t44 -140.5t119 -52.5q78 0 115.5 45t44.5 105l145 -6q-8 -118 -85 -198t-219 -80q-136 0 -228 91t-92 236zM402 670h-104l54 138h147z"/>
<glyph glyph-name="cacute" horiz-adv-x="499" unicode="ć" d="M311 491h-104l54 139h147zM22 222q0 104 68 169t172 65q99 0 154 -57t63 -136l-120 -9q-7 45 -31.5 68.5t-64.5 23.5q-42 0 -68.5 -30.5t-26.5 -93.5t26.5 -93.5t68.5 -30.5q40 0 64.5 24t31.5 69l120 -10q-8 -80 -63 -136.5t-154 -56.5q-104 0 -172 64.5t-68 169.5z"/>
<glyph glyph-name="Ccircumflex" horiz-adv-x="668" unicode="Ĉ" d="M23 315q0 145 92 236t228 91q142 0 219 -80t85 -198l-145 -6q-7 60 -44.5 105t-115.5 45q-75 0 -119 -52.5t-44 -140.5t44 -140.5t119 -52.5q78 0 115.5 45t44.5 105l145 -6q-8 -118 -85 -198t-219 -80q-136 0 -228 91t-92 236zM279 808h140l85 -138h-93l-62 59l-62 -59 h-93z"/>
<glyph glyph-name="ccircumflex" horiz-adv-x="499" unicode="ĉ" d="M190 630h140l85 -139h-93l-62 60l-62 -60h-93zM22 222q0 104 68 169t172 65q99 0 154 -57t63 -136l-120 -9q-7 45 -31.5 68.5t-64.5 23.5q-42 0 -68.5 -30.5t-26.5 -93.5t26.5 -93.5t68.5 -30.5q40 0 64.5 24t31.5 69l120 -10q-8 -80 -63 -136.5t-154 -56.5 q-104 0 -172 64.5t-68 169.5z"/>
<glyph glyph-name="Cdotaccent" horiz-adv-x="668" unicode="Ċ" d="M275 671v131h147v-131h-147zM23 315q0 145 92 236t228 91q142 0 219 -80t85 -198l-145 -6q-7 60 -44.5 105t-115.5 45q-75 0 -119 -52.5t-44 -140.5t44 -140.5t119 -52.5q78 0 115.5 45t44.5 105l145 -6q-8 -118 -85 -198t-219 -80q-136 0 -228 91t-92 236z"/>
<glyph glyph-name="cdotaccent" horiz-adv-x="499" unicode="ċ" d="M22 222q0 104 68 169t172 65q99 0 154 -57t63 -136l-120 -9q-7 45 -31.5 68.5t-64.5 23.5q-42 0 -68.5 -30.5t-26.5 -93.5t26.5 -93.5t68.5 -30.5q40 0 64.5 24t31.5 69l120 -10q-8 -80 -63 -136.5t-154 -56.5q-104 0 -172 64.5t-68 169.5zM186 498v132h147v-132h-147z "/>
<glyph glyph-name="Ccaron" horiz-adv-x="668" unicode="Č" d="M23 315q0 145 92 236t228 91q142 0 219 -80t85 -198l-145 -6q-7 60 -44.5 105t-115.5 45q-75 0 -119 -52.5t-44 -140.5t44 -140.5t119 -52.5q78 0 115.5 45t44.5 105l145 -6q-8 -118 -85 -198t-219 -80q-136 0 -228 91t-92 236zM419 670h-140l-85 138h93l62 -59l62 59h93 z"/>
<glyph glyph-name="ccaron" horiz-adv-x="499" unicode="č" d="M330 491h-140l-85 139h93l62 -59l62 59h93zM22 222q0 104 68 169t172 65q99 0 154 -57t63 -136l-120 -9q-7 45 -31.5 68.5t-64.5 23.5q-42 0 -68.5 -30.5t-26.5 -93.5t26.5 -93.5t68.5 -30.5q40 0 64.5 24t31.5 69l120 -10q-8 -80 -63 -136.5t-154 -56.5 q-104 0 -172 64.5t-68 169.5z"/>
<glyph glyph-name="Dcaron" horiz-adv-x="652" unicode="Ď" d="M370 670h-140l-85 138h93l62 -59l62 59h93zM203 120h82q89 0 138.5 51.5t49.5 144.5q0 91 -49.5 142.5t-138.5 51.5h-82v-390zM51 0v630h244q154 0 244.5 -84t90.5 -231t-90.5 -231t-244.5 -84h-244z"/>
<glyph glyph-name="dcaron" horiz-adv-x="560" unicode="ď" d="M637 485h-91l14 145h141zM369 0v79q-16 -39 -54 -65t-95 -26q-98 0 -148 68t-50 166q0 97 50 165.5t148 68.5q57 0 95 -26t54 -66v266h145v-630h-145zM369 217v10q0 53 -28 84.5t-72 31.5q-51 0 -76 -33.5t-25 -87.5t25 -88t76 -34q44 0 72 31.5t28 85.5z"/>
<glyph glyph-name="Dcroat" horiz-adv-x="672" unicode="Đ" d="M223 120h82q89 0 138.5 51.5t49.5 144.5q0 91 -49.5 142.5t-138.5 51.5h-82v-129h140v-123h-140v-138zM315 0h-244v258h-58v123h58v249h244q154 0 244.5 -84t90.5 -231t-90.5 -231t-244.5 -84z"/>
<glyph glyph-name="dcroat" horiz-adv-x="560" unicode="đ" d="M369 77q-16 -38 -54 -63.5t-95 -25.5q-98 0 -148 65.5t-50 161.5q0 94 50 160t148 66q57 0 95 -25.5t54 -64.5v122h-128v90h128v67h145v-67h55v-90h-55v-473h-145v77zM369 214v9q0 50 -28 80.5t-72 30.5q-51 0 -76 -32.5t-25 -83.5q0 -52 25 -84t76 -32q44 0 72 30.5 t28 81.5z"/>
<glyph glyph-name="Emacron" horiz-adv-x="567" unicode="Ē" d="M160 674v99h279v-99h-279zM537 125v-125h-486v630h477v-125h-328v-124h255v-123h-255v-133h337z"/>
<glyph glyph-name="emacron" horiz-adv-x="508" unicode="ē" d="M166 267h179q-2 33 -23.5 58.5t-62.5 25.5q-43 0 -65 -24.5t-28 -59.5zM365 157l116 -11q-17 -75 -74 -116.5t-144 -41.5q-105 0 -173 61t-68 166q0 104 68.5 172.5t169.5 68.5q110 0 167 -66t57 -156v-44h-320q3 -44 32.5 -68.5t71.5 -24.5q37 0 61 14.5t36 45.5z M127 497v98h271v-98h-271z"/>
<glyph glyph-name="Ebreve" horiz-adv-x="567" unicode="Ĕ" d="M299 669q-64 0 -100 36.5t-36 102.5h83q0 -25 14.5 -38t38.5 -13t38.5 13t14.5 38h83q0 -66 -36 -102.5t-100 -36.5zM537 125v-125h-486v630h477v-125h-328v-124h255v-123h-255v-133h337z"/>
<glyph glyph-name="ebreve" horiz-adv-x="508" unicode="ĕ" d="M166 267h179q-2 33 -23.5 58.5t-62.5 25.5q-43 0 -65 -24.5t-28 -59.5zM365 157l116 -11q-17 -75 -74 -116.5t-144 -41.5q-105 0 -173 61t-68 166q0 104 68.5 172.5t169.5 68.5q110 0 167 -66t57 -156v-44h-320q3 -44 32.5 -68.5t71.5 -24.5q37 0 61 14.5t36 45.5z M262 491q-64 0 -100 36.5t-36 102.5h83q0 -26 14.5 -38.5t38.5 -12.5t38.5 12.5t14.5 38.5h83q0 -66 -36 -102.5t-100 -36.5z"/>
<glyph glyph-name="Edotaccent" horiz-adv-x="567" unicode="Ė" d="M225 671v131h147v-131h-147zM537 125v-125h-486v630h477v-125h-328v-124h255v-123h-255v-133h337z"/>
<glyph glyph-name="edotaccent" horiz-adv-x="508" unicode="ė" d="M166 267h179q-2 33 -23.5 58.5t-62.5 25.5q-43 0 -65 -24.5t-28 -59.5zM365 157l116 -11q-17 -75 -74 -116.5t-144 -41.5q-105 0 -173 61t-68 166q0 104 68.5 172.5t169.5 68.5q110 0 167 -66t57 -156v-44h-320q3 -44 32.5 -68.5t71.5 -24.5q37 0 61 14.5t36 45.5z M188 498v132h147v-132h-147z"/>
<glyph glyph-name="Eogonek" horiz-adv-x="567" unicode="Ę" d="M537 125v-125h-41q-24 -22 -37 -36q-16 -17 -16 -35q0 -13 8 -20t21 -7t24 4t22 9v-66q-13 -8 -31 -16t-49 -8q-42 0 -66.5 19.5t-24.5 51.5q0 34 22 63q16 21 41 41h-359v630h477v-125h-328v-124h255v-123h-255v-133h337z"/>
<glyph glyph-name="eogonek" horiz-adv-x="508" unicode="ę" d="M166 267h179q-2 33 -23.5 58.5t-62.5 25.5q-43 0 -65 -24.5t-28 -59.5zM365 157l116 -11q-9 -42 -31 -71.5t-53 -51.5q-41 -29 -60 -52t-19 -42q0 -13 8 -20t21 -7t24 4t22 9v-66q-13 -8 -31 -16t-48 -8q-43 0 -67 19.5t-24 51.5q0 26 13 49t36 43h-9q-105 0 -173 61 t-68 166q0 104 68.5 172.5t169.5 68.5q110 0 167 -66t57 -156v-44h-320q3 -44 32.5 -68.5t71.5 -24.5q37 0 61 14.5t36 45.5z"/>
<glyph glyph-name="Ecaron" horiz-adv-x="567" unicode="Ě" d="M369 670h-140l-85 138h93l62 -59l62 59h93zM537 125v-125h-486v630h477v-125h-328v-124h255v-123h-255v-133h337z"/>
<glyph glyph-name="ecaron" horiz-adv-x="508" unicode="ě" d="M332 491h-140l-85 139h93l62 -59l62 59h93zM166 267h179q-2 33 -23.5 58.5t-62.5 25.5q-43 0 -65 -24.5t-28 -59.5zM365 157l116 -11q-17 -75 -74 -116.5t-144 -41.5q-105 0 -173 61t-68 166q0 104 68.5 172.5t169.5 68.5q110 0 167 -66t57 -156v-44h-320 q3 -44 32.5 -68.5t71.5 -24.5q37 0 61 14.5t36 45.5z"/>
<glyph glyph-name="Gcircumflex" horiz-adv-x="697" unicode="Ĝ" d="M329 -12q-131 0 -218.5 90.5t-87.5 236.5q0 145 93.5 236t227.5 91q137 0 215.5 -70t88.5 -189l-148 -5q-6 59 -45.5 94.5t-107.5 35.5q-78 0 -123 -53t-45 -140q0 -90 47 -144.5t133 -54.5q51 0 92.5 25.5t57.5 71.5h-151v110h294v-323h-133v79q-25 -47 -76 -69 t-114 -22zM284 808h140l85 -138h-93l-62 59l-62 -59h-93z"/>
<glyph glyph-name="gcircumflex" horiz-adv-x="509" unicode="ĝ" d="M185 630h140l85 -139h-93l-62 60l-62 -60h-93zM125 -46q0 -26 30.5 -37t79.5 -11q60 0 99.5 12.5t39.5 37.5q0 18 -13 25t-38 7h-157q-17 0 -29 -8.5t-12 -25.5zM508 -14q0 -83 -84 -121.5t-190 -38.5q-93 0 -162.5 24.5t-69.5 86.5q0 31 24 52.5t62 25.5 q-30 10 -46.5 33.5t-16.5 51.5q0 31 20 54.5t54 36.5q-30 19 -46.5 48t-16.5 65q0 70 59 111t150 41q40 0 77.5 -9.5t65.5 -27.5q19 27 51.5 46.5t68.5 19.5v-111q-16 0 -34.5 -2.5t-34.5 -6.5q7 -13 11.5 -28.5t4.5 -32.5q0 -69 -59.5 -110t-150.5 -41q-27 0 -51.5 3.5 t-45.5 10.5q-6 -4 -9.5 -10t-3.5 -15q0 -13 9.5 -21.5t31.5 -8.5h182q74 0 112 -36t38 -90zM306 304q0 33 -17 51t-43 18q-25 0 -42 -18t-17 -51q0 -34 17 -52.5t42 -18.5q26 0 43 18.5t17 52.5z"/>
<glyph glyph-name="Gbreve" horiz-adv-x="697" unicode="Ğ" d="M354 669q-64 0 -100 36.5t-36 102.5h83q0 -25 14.5 -38t38.5 -13t38.5 13t14.5 38h83q0 -66 -36 -102.5t-100 -36.5zM329 -12q-131 0 -218.5 90.5t-87.5 236.5q0 145 93.5 236t227.5 91q137 0 215.5 -70t88.5 -189l-148 -5q-6 59 -45.5 94.5t-107.5 35.5q-78 0 -123 -53 t-45 -140q0 -90 47 -144.5t133 -54.5q51 0 92.5 25.5t57.5 71.5h-151v110h294v-323h-133v79q-25 -47 -76 -69t-114 -22z"/>
<glyph glyph-name="gbreve" horiz-adv-x="509" unicode="ğ" d="M125 -46q0 -26 30.5 -37t79.5 -11q60 0 99.5 12.5t39.5 37.5q0 18 -13 25t-38 7h-157q-17 0 -29 -8.5t-12 -25.5zM508 -14q0 -83 -84 -121.5t-190 -38.5q-93 0 -162.5 24.5t-69.5 86.5q0 31 24 52.5t62 25.5q-30 10 -46.5 33.5t-16.5 51.5q0 31 20 54.5t54 36.5 q-30 19 -46.5 48t-16.5 65q0 70 59 111t150 41q40 0 77.5 -9.5t65.5 -27.5q19 27 51.5 46.5t68.5 19.5v-111q-16 0 -34.5 -2.5t-34.5 -6.5q7 -13 11.5 -28.5t4.5 -32.5q0 -69 -59.5 -110t-150.5 -41q-27 0 -51.5 3.5t-45.5 10.5q-6 -4 -9.5 -10t-3.5 -15q0 -13 9.5 -21.5 t31.5 -8.5h182q74 0 112 -36t38 -90zM306 304q0 33 -17 51t-43 18q-25 0 -42 -18t-17 -51q0 -34 17 -52.5t42 -18.5q26 0 43 18.5t17 52.5zM255 491q-64 0 -100 36.5t-36 102.5h83q0 -26 14.5 -38.5t38.5 -12.5t38.5 12.5t14.5 38.5h83q0 -66 -36 -102.5t-100 -36.5z"/>
<glyph glyph-name="Gdotaccent" horiz-adv-x="697" unicode="Ġ" d="M280 671v131h147v-131h-147zM329 -12q-131 0 -218.5 90.5t-87.5 236.5q0 145 93.5 236t227.5 91q137 0 215.5 -70t88.5 -189l-148 -5q-6 59 -45.5 94.5t-107.5 35.5q-78 0 -123 -53t-45 -140q0 -90 47 -144.5t133 -54.5q51 0 92.5 25.5t57.5 71.5h-151v110h294v-323h-133 v79q-25 -47 -76 -69t-114 -22z"/>
<glyph glyph-name="gdotaccent" horiz-adv-x="509" unicode="ġ" d="M125 -46q0 -26 30.5 -37t79.5 -11q60 0 99.5 12.5t39.5 37.5q0 18 -13 25t-38 7h-157q-17 0 -29 -8.5t-12 -25.5zM508 -14q0 -83 -84 -121.5t-190 -38.5q-93 0 -162.5 24.5t-69.5 86.5q0 31 24 52.5t62 25.5q-30 10 -46.5 33.5t-16.5 51.5q0 31 20 54.5t54 36.5 q-30 19 -46.5 48t-16.5 65q0 70 59 111t150 41q40 0 77.5 -9.5t65.5 -27.5q19 27 51.5 46.5t68.5 19.5v-111q-16 0 -34.5 -2.5t-34.5 -6.5q7 -13 11.5 -28.5t4.5 -32.5q0 -69 -59.5 -110t-150.5 -41q-27 0 -51.5 3.5t-45.5 10.5q-6 -4 -9.5 -10t-3.5 -15q0 -13 9.5 -21.5 t31.5 -8.5h182q74 0 112 -36t38 -90zM306 304q0 33 -17 51t-43 18q-25 0 -42 -18t-17 -51q0 -34 17 -52.5t42 -18.5q26 0 43 18.5t17 52.5zM181 498v132h147v-132h-147z"/>
<glyph glyph-name="Gcommaaccent" horiz-adv-x="697" unicode="Ģ" d="M293 -130v92h130v-69q0 -54 -32.5 -80t-97.5 -26v50q26 0 38 7t13 26h-51zM329 -12q-131 0 -218.5 90.5t-87.5 236.5q0 145 93.5 236t227.5 91q137 0 215.5 -70t88.5 -189l-148 -5q-6 59 -45.5 94.5t-107.5 35.5q-78 0 -123 -53t-45 -140q0 -90 47 -144.5t133 -54.5 q51 0 92.5 25.5t57.5 71.5h-151v110h294v-323h-133v79q-25 -47 -76 -69t-114 -22z"/>
<glyph glyph-name="gcommaaccent" horiz-adv-x="509" unicode="ģ" d="M320 587v-92h-130v69q0 55 32.5 80.5t97.5 25.5v-49q-26 0 -38 -7t-13 -27h51zM125 -46q0 -26 30.5 -37t79.5 -11q60 0 99.5 12.5t39.5 37.5q0 18 -13 25t-38 7h-157q-17 0 -29 -8.5t-12 -25.5zM508 -14q0 -83 -84 -121.5t-190 -38.5q-93 0 -162.5 24.5t-69.5 86.5 q0 31 24 52.5t62 25.5q-30 10 -46.5 33.5t-16.5 51.5q0 31 20 54.5t54 36.5q-30 19 -46.5 48t-16.5 65q0 70 59 111t150 41q40 0 77.5 -9.5t65.5 -27.5q19 27 51.5 46.5t68.5 19.5v-111q-16 0 -34.5 -2.5t-34.5 -6.5q7 -13 11.5 -28.5t4.5 -32.5q0 -69 -59.5 -110 t-150.5 -41q-27 0 -51.5 3.5t-45.5 10.5q-6 -4 -9.5 -10t-3.5 -15q0 -13 9.5 -21.5t31.5 -8.5h182q74 0 112 -36t38 -90zM306 304q0 33 -17 51t-43 18q-25 0 -42 -18t-17 -51q0 -34 17 -52.5t42 -18.5q26 0 43 18.5t17 52.5z"/>
<glyph glyph-name="Hcircumflex" horiz-adv-x="681" unicode="Ĥ" d="M203 0h-152v630h152v-249h275v249h152v-630h-152v258h-275v-258zM270 808h140l85 -138h-93l-62 59l-62 -59h-93z"/>
<glyph glyph-name="hcircumflex" horiz-adv-x="538" unicode="ĥ" d="M191 226v-226h-144v630h144v-255q18 37 56.5 59t88.5 22q90 0 125 -53.5t35 -124.5v-278h-144v243q0 48 -17 73.5t-57 25.5q-43 0 -65 -32t-22 -84zM193 808h140l85 -138h-93l-62 59l-62 -59h-93z"/>
<glyph glyph-name="Hbar" horiz-adv-x="720" unicode="Ħ" d="M222 213v-213h-151v410h-58v124h58v96h151v-96h276v96h151v-96h58v-124h-58v-410h-151v213h-276zM222 336h276v74h-276v-74z"/>
<glyph glyph-name="hbar" horiz-adv-x="538" unicode="ħ" d="M191 212v-212h-144v473h-55v90h55v67h144v-67h129v-90h-129v-112q18 37 56.5 59t88.5 22q90 0 125 -53.5t35 -124.5v-264h-144v229q0 47 -17 73t-57 26q-43 0 -65 -32t-22 -84z"/>
<glyph glyph-name="Itilde" horiz-adv-x="254" unicode="Ĩ" d="M51 630h152v-630h-152v630zM48 669h-69q0 62 22 101t65 39q35 0 59 -21t49 -21q13 0 22 9t10 30h69q0 -61 -22 -100.5t-65 -39.5q-35 0 -59 21t-49 21q-13 0 -22 -9t-10 -30z"/>
<glyph glyph-name="itilde" horiz-adv-x="238" unicode="ĩ" d="M47 444h144v-444h-144v444zM48 493h-69q0 62 22 101t65 39q34 0 52 -21t44 -21q13 0 21.5 9t9.5 30h69q0 -61 -21.5 -100.5t-64.5 -39.5q-35 0 -53 21t-43 21q-13 0 -22 -8.5t-10 -30.5z"/>
<glyph glyph-name="Imacron" horiz-adv-x="254" unicode="Ī" d="M51 630h152v-630h-152v630zM-11 674v99h275v-99h-275z"/>
<glyph glyph-name="imacron" horiz-adv-x="238" unicode="ī" d="M47 444h144v-444h-144v444zM1 497v98h237v-98h-237z"/>
<glyph glyph-name="Ibreve" horiz-adv-x="254" unicode="Ĭ" d="M51 630h152v-630h-152v630zM127 669q-64 0 -100 36.5t-36 102.5h83q0 -25 14.5 -38t38.5 -13t38.5 13t14.5 38h83q0 -66 -36 -102.5t-100 -36.5z"/>
<glyph glyph-name="ibreve" horiz-adv-x="238" unicode="ĭ" d="M47 444h144v-444h-144v444zM119 491q-64 0 -100 36.5t-36 102.5h83q0 -26 14.5 -38.5t38.5 -12.5t38.5 12.5t14.5 38.5h83q0 -66 -36 -102.5t-100 -36.5z"/>
<glyph glyph-name="Iogonek" horiz-adv-x="254" unicode="Į" d="M51 630h152v-630q-43 -25 -59 -40t-16 -31q0 -13 8 -20t21 -7t24 4t22 9v-66q-13 -8 -31 -16t-49 -8q-42 0 -66.5 19.5t-24.5 51.5q0 30 17 56t46 48h-44v630z"/>
<glyph glyph-name="iogonek" horiz-adv-x="238" unicode="į" d="M47 444h144v-444q-43 -25 -58.5 -40t-15.5 -31q0 -13 8 -20t21 -7t24 4t22 9v-66q-13 -8 -31 -16t-49 -8q-42 0 -66.5 19.5t-24.5 51.5q0 30 17 56t46 48h-37v444zM46 498v132h147v-132h-147z"/>
<glyph glyph-name="Idotaccent" horiz-adv-x="254" unicode="İ" d="M51 630h152v-630h-152v630zM53 671v131h147v-131h-147z"/>
<glyph glyph-name="dotlessi" horiz-adv-x="238" unicode="ı" d="M47 444h144v-444h-144v444z"/>
<glyph glyph-name="IJ" horiz-adv-x="797" unicode="Ĳ" d="M51 630h152v-630h-152v630zM603 630h152v-404q0 -123 -69.5 -180.5t-178.5 -57.5q-116 0 -184 66t-69 188l146 6q4 -63 29.5 -97.5t76.5 -34.5q50 0 73.5 30t23.5 92v392z"/>
<glyph glyph-name="ij" horiz-adv-x="476" unicode="ĳ" d="M47 444h144v-444h-144v444zM46 498v132h147v-132h-147zM429 444v-469q0 -77 -41.5 -113t-113.5 -36q-36 0 -68.5 8.5t-53.5 23.5l24 88q17 -10 33.5 -14.5t32.5 -4.5q21 0 32 12.5t11 40.5v464h144zM284 498v132h147v-132h-147z"/>
<glyph glyph-name="Jcircumflex" horiz-adv-x="551" unicode="Ĵ" d="M358 630h152v-404q0 -123 -69.5 -180.5t-178.5 -57.5q-116 0 -184 66t-69 188l146 6q4 -63 29.5 -97.5t76.5 -34.5q50 0 73.5 30t23.5 92v392zM362 808h140l85 -138h-93l-62 59l-62 -59h-93z"/>
<glyph glyph-name="jcircumflex" horiz-adv-x="238" unicode="ĵ" d="M191 444v-469q0 -77 -41.5 -113t-113.5 -36q-36 0 -68.5 8.5t-53.5 23.5l24 88q17 -10 33.5 -14.5t32.5 -4.5q21 0 32 12.5t11 40.5v464h144zM50 630h140l85 -139h-93l-62 60l-62 -60h-93z"/>
<glyph glyph-name="Kcommaaccent" horiz-adv-x="629" unicode="Ķ" d="M251 -130v92h130v-69q0 -54 -32.5 -80t-97.5 -26v50q26 0 38 7t13 26h-51zM637 0h-182l-193 261l-59 -63v-198h-152v630h152v-267l243 267h175l-249 -270z"/>
<glyph glyph-name="kcommaaccent" horiz-adv-x="532" unicode="ķ" d="M208 -130v92h130v-69q0 -54 -32.5 -80t-97.5 -26v50q26 0 38 7t13 26h-51zM191 145v-145h-144v630h144v-350l168 164h171l-187 -176l194 -268h-163l-139 188z"/>
<glyph glyph-name="kgreenlandic" horiz-adv-x="532" unicode="ĸ" d="M191 145v-145h-144v444h144v-164l168 164h171l-187 -176l194 -268h-163l-139 188z"/>
<glyph glyph-name="Lacute" horiz-adv-x="548" unicode="Ĺ" d="M182 670h-104l54 138h147zM51 630h152v-505h320v-125h-472v630z"/>
<glyph glyph-name="lacute" horiz-adv-x="238" unicode="ĺ" d="M169 670h-104l54 138h147zM47 630h144v-630h-144v630z"/>
<glyph glyph-name="Lcommaaccent" horiz-adv-x="548" unicode="Ļ" d="M222 -130v92h130v-69q0 -54 -32.5 -80t-97.5 -26v50q26 0 38 7t13 26h-51zM51 630h152v-505h320v-125h-472v630z"/>
<glyph glyph-name="lcommaaccent" horiz-adv-x="238" unicode="ļ" d="M54 -130v92h130v-69q0 -54 -32.5 -80t-97.5 -26v50q26 0 38 7t13 26h-51zM47 630h144v-630h-144v630z"/>
<glyph glyph-name="Lcaron" horiz-adv-x="548" unicode="Ľ" d="M382 485h-91l14 145h141zM51 630h152v-505h320v-125h-472v630z"/>
<glyph glyph-name="lcaron" horiz-adv-x="238" unicode="ľ" d="M313 485h-91l14 145h141zM47 630h144v-630h-144v630z"/>
<glyph glyph-name="Ldot" horiz-adv-x="548" unicode="Ŀ" d="M51 630h152v-505h320v-125h-472v630zM336 287v132h147v-132h-147z"/>
<glyph glyph-name="ldot" horiz-adv-x="392" unicode="ŀ" d="M47 630h144v-630h-144v630zM239 249v132h147v-132h-147z"/>
<glyph glyph-name="Lslash" horiz-adv-x="565" unicode="Ł" d="M542 0h-472v219l-58 -22v120l58 22v291h152v-237l167 66v-120l-167 -65v-149h320v-125z"/>
<glyph glyph-name="lslash" horiz-adv-x="278" unicode="ł" d="M211 0h-144v262l-61 -29v107l61 28v262h144v-205l61 29v-107l-61 -28v-319z"/>
<glyph glyph-name="Nacute" horiz-adv-x="655" unicode="Ń" d="M388 670h-104l54 138h147zM197 630l268 -378v378h139v-630h-121l-292 402v-402h-140v630h146z"/>
<glyph glyph-name="nacute" horiz-adv-x="538" unicode="ń" d="M327 491h-104l54 139h147zM191 226v-226h-144v444h144v-69q18 37 56.5 59t88.5 22q90 0 125 -53.5t35 -124.5v-278h-144v243q0 48 -17 73.5t-57 25.5q-43 0 -65 -32t-22 -84z"/>
<glyph glyph-name="Ncommaaccent" horiz-adv-x="655" unicode="Ņ" d="M272 -130v92h130v-69q0 -54 -32.5 -80t-97.5 -26v50q26 0 38 7t13 26h-51zM197 630l268 -378v378h139v-630h-121l-292 402v-402h-140v630h146z"/>
<glyph glyph-name="ncommaaccent" horiz-adv-x="538" unicode="ņ" d="M213 -130v92h130v-69q0 -54 -32.5 -80t-97.5 -26v50q26 0 38 7t13 26h-51zM191 226v-226h-144v444h144v-69q18 37 56.5 59t88.5 22q90 0 125 -53.5t35 -124.5v-278h-144v243q0 48 -17 73.5t-57 25.5q-43 0 -65 -32t-22 -84z"/>
<glyph glyph-name="Ncaron" horiz-adv-x="655" unicode="Ň" d="M407 670h-140l-85 138h93l62 -59l62 59h93zM197 630l268 -378v378h139v-630h-121l-292 402v-402h-140v630h146z"/>
<glyph glyph-name="ncaron" horiz-adv-x="538" unicode="ň" d="M347 491h-140l-85 139h93l62 -59l62 59h93zM191 226v-226h-144v444h144v-69q18 37 56.5 59t88.5 22q90 0 125 -53.5t35 -124.5v-278h-144v243q0 48 -17 73.5t-57 25.5q-43 0 -65 -32t-22 -84z"/>
<glyph glyph-name="Eng" horiz-adv-x="655" unicode="Ŋ" d="M266 -106l64 89q13 -15 32 -25t41 -10q34 0 47.5 18t13.5 58l-273 378v-402h-140v630h146l268 -380v380h139v-599q0 -103 -48 -154t-136 -51q-49 0 -91 20t-63 48z"/>
<glyph glyph-name="eng" horiz-adv-x="538" unicode="ŋ" d="M352 -20v263q0 48 -17 73.5t-57 25.5q-43 0 -65 -32t-22 -84v-226h-144v444h144v-69q18 37 56.5 59t88.5 22q90 0 125 -53.5t35 -124.5v-303q0 -77 -41.5 -113t-113.5 -36q-36 0 -68.5 8.5t-53.5 23.5l24 88q17 -10 33.5 -14.5t32.5 -4.5q21 0 32 12.5t11 40.5z"/>
<glyph glyph-name="Omacron" horiz-adv-x="693" unicode="Ō" d="M207 674v99h279v-99h-279zM514 315q0 87 -45.5 140.5t-122.5 53.5q-76 0 -121.5 -53.5t-45.5 -140.5t45.5 -140.5t121.5 -53.5q77 0 122.5 53.5t45.5 140.5zM670 315q0 -145 -93.5 -236t-230.5 -91t-230 91t-93 236t93 236t230 91t230.5 -91t93.5 -236z"/>
<glyph glyph-name="omacron" horiz-adv-x="523" unicode="ō" d="M126 497v98h271v-98h-271zM168 222q0 -55 22.5 -90t70.5 -35q47 0 70.5 35t23.5 90t-23.5 90t-70.5 35q-48 0 -70.5 -35t-22.5 -90zM501 222q0 -103 -67 -168.5t-173 -65.5t-172.5 65.5t-66.5 168.5q0 102 66.5 168t172.5 66t173 -66t67 -168z"/>
<glyph glyph-name="Obreve" horiz-adv-x="693" unicode="Ŏ" d="M346 669q-64 0 -100 36.5t-36 102.5h83q0 -25 14.5 -38t38.5 -13t38.5 13t14.5 38h83q0 -66 -36 -102.5t-100 -36.5zM514 315q0 87 -45.5 140.5t-122.5 53.5q-76 0 -121.5 -53.5t-45.5 -140.5t45.5 -140.5t121.5 -53.5q77 0 122.5 53.5t45.5 140.5zM670 315 q0 -145 -93.5 -236t-230.5 -91t-230 91t-93 236t93 236t230 91t230.5 -91t93.5 -236z"/>
<glyph glyph-name="obreve" horiz-adv-x="523" unicode="ŏ" d="M168 222q0 -55 22.5 -90t70.5 -35q47 0 70.5 35t23.5 90t-23.5 90t-70.5 35q-48 0 -70.5 -35t-22.5 -90zM501 222q0 -103 -67 -168.5t-173 -65.5t-172.5 65.5t-66.5 168.5q0 102 66.5 168t172.5 66t173 -66t67 -168zM261 491q-64 0 -100 36.5t-36 102.5h83 q0 -26 14.5 -38.5t38.5 -12.5t38.5 12.5t14.5 38.5h83q0 -66 -36 -102.5t-100 -36.5z"/>
<glyph glyph-name="Ohungarumlaut" horiz-adv-x="693" unicode="Ő" d="M514 315q0 87 -45.5 140.5t-122.5 53.5q-76 0 -121.5 -53.5t-45.5 -140.5t45.5 -140.5t121.5 -53.5q77 0 122.5 53.5t45.5 140.5zM670 315q0 -145 -93.5 -236t-230.5 -91t-230 91t-93 236t93 236t230 91t230.5 -91t93.5 -236zM309 670h-93l42 138h137zM473 670h-94 l43 138h136z"/>
<glyph glyph-name="ohungarumlaut" horiz-adv-x="523" unicode="ő" d="M221 491h-93l42 139h137zM385 491h-94l43 139h136zM168 222q0 -55 22.5 -90t70.5 -35q47 0 70.5 35t23.5 90t-23.5 90t-70.5 35q-48 0 -70.5 -35t-22.5 -90zM501 222q0 -103 -67 -168.5t-173 -65.5t-172.5 65.5t-66.5 168.5q0 102 66.5 168t172.5 66t173 -66t67 -168z "/>
<glyph glyph-name="OE" horiz-adv-x="959" unicode="Œ" d="M443 510h-75q-90 0 -139.5 -51.5t-49.5 -144.5q0 -91 49.5 -142.5t139.5 -51.5h75v390zM929 125v-125h-572q-154 0 -244 84t-90 231t90 231t244 84h563v-125h-328v-124h255v-123h-255v-133h337z"/>
<glyph glyph-name="oe" horiz-adv-x="837" unicode="œ" d="M168 222q0 -55 22.5 -90t70.5 -35q47 0 70.5 35t23.5 90t-23.5 90t-70.5 35q-48 0 -70.5 -35t-22.5 -90zM495 264h180q-1 35 -23.5 61.5t-63.5 26.5q-43 0 -66 -25.5t-27 -62.5zM592 -12q-52 0 -94.5 17.5t-73.5 46.5q-29 -28 -68 -46t-95 -18q-106 0 -172.5 65.5 t-66.5 168.5q0 102 66.5 168t172.5 66q51 0 93.5 -18t73.5 -49q31 31 72 49t89 18q110 0 167 -66t57 -156v-40h-320q3 -46 32.5 -71.5t71.5 -25.5q37 0 61 15t36 46l117 -11q-17 -75 -74.5 -117t-144.5 -42z"/>
<glyph glyph-name="Racute" horiz-adv-x="629" unicode="Ŕ" d="M607 0h-154q-10 13 -16 44t-10 81q-4 53 -28.5 73.5t-71.5 20.5h-127v-219h-149v630h304q122 0 182.5 -53.5t60.5 -143.5q0 -69 -39.5 -111.5t-96.5 -49.5q50 -10 78.5 -40.5t33.5 -85.5q7 -69 12 -99t21 -47zM200 336h131q59 0 88.5 19.5t29.5 65.5q0 42 -29.5 64.5 t-88.5 22.5h-131v-172zM367 670h-104l54 138h147z"/>
<glyph glyph-name="racute" horiz-adv-x="382" unicode="ŕ" d="M261 491h-104l54 139h147zM376 438l-9 -135q-17 10 -35 14t-41 4q-45 0 -72.5 -27t-27.5 -84v-210h-144v444h144v-81q13 37 45.5 65t77.5 28q20 0 36.5 -5.5t25.5 -12.5z"/>
<glyph glyph-name="Rcommaaccent" horiz-adv-x="629" unicode="Ŗ" d="M251 -130v92h130v-69q0 -54 -32.5 -80t-97.5 -26v50q26 0 38 7t13 26h-51zM607 0h-154q-10 13 -16 44t-10 81q-4 53 -28.5 73.5t-71.5 20.5h-127v-219h-149v630h304q122 0 182.5 -53.5t60.5 -143.5q0 -69 -39.5 -111.5t-96.5 -49.5q50 -10 78.5 -40.5t33.5 -85.5 q7 -69 12 -99t21 -47zM200 336h131q59 0 88.5 19.5t29.5 65.5q0 42 -29.5 64.5t-88.5 22.5h-131v-172z"/>
<glyph glyph-name="rcommaaccent" horiz-adv-x="382" unicode="ŗ" d="M55 -130v92h130v-69q0 -54 -32.5 -80t-97.5 -26v50q26 0 38 7t13 26h-51zM376 438l-9 -135q-17 10 -35 14t-41 4q-45 0 -72.5 -27t-27.5 -84v-210h-144v444h144v-81q13 37 45.5 65t77.5 28q20 0 36.5 -5.5t25.5 -12.5z"/>
<glyph glyph-name="Rcaron" horiz-adv-x="629" unicode="Ř" d="M386 670h-140l-85 138h93l62 -59l62 59h93zM607 0h-154q-10 13 -16 44t-10 81q-4 53 -28.5 73.5t-71.5 20.5h-127v-219h-149v630h304q122 0 182.5 -53.5t60.5 -143.5q0 -69 -39.5 -111.5t-96.5 -49.5q50 -10 78.5 -40.5t33.5 -85.5q7 -69 12 -99t21 -47zM200 336h131 q59 0 88.5 19.5t29.5 65.5q0 42 -29.5 64.5t-88.5 22.5h-131v-172z"/>
<glyph glyph-name="rcaron" horiz-adv-x="382" unicode="ř" d="M281 491h-140l-85 139h93l62 -59l62 59h93zM376 438l-9 -135q-17 10 -35 14t-41 4q-45 0 -72.5 -27t-27.5 -84v-210h-144v444h144v-81q13 37 45.5 65t77.5 28q20 0 36.5 -5.5t25.5 -12.5z"/>
<glyph glyph-name="Sacute" horiz-adv-x="596" unicode="Ś" d="M20 224l139 5q4 -65 47.5 -93.5t101.5 -28.5q50 0 79.5 18.5t29.5 49.5t-25.5 43t-66.5 20l-118 21q-75 14 -123 58t-48 124q0 93 68 147t182 54q128 0 196.5 -60.5t70.5 -164.5l-140 -4q-3 55 -38.5 82.5t-89.5 27.5q-48 0 -74 -18.5t-26 -50.5q0 -27 20 -39t54 -19 l118 -21q96 -17 142 -65t46 -125q0 -97 -75 -147t-182 -50q-125 0 -206.5 61t-81.5 175zM349 670h-104l54 138h147z"/>
<glyph glyph-name="sacute" horiz-adv-x="455" unicode="ś" d="M279 491h-104l54 139h147zM15 145l126 3q4 -32 29 -49.5t65 -17.5q29 0 47 10t18 28q0 16 -11.5 26t-38.5 14l-68 11q-76 12 -116.5 42.5t-40.5 96.5q0 64 52.5 105.5t141.5 41.5q94 0 148.5 -40t61.5 -111l-119 -4q-5 29 -28.5 45t-64.5 16q-27 0 -42.5 -10.5 t-15.5 -28.5q0 -13 10 -21.5t26 -10.5l86 -15q72 -11 112.5 -45.5t40.5 -97.5q0 -69 -55 -107t-145 -38t-151.5 38t-67.5 119z"/>
<glyph glyph-name="Scircumflex" horiz-adv-x="596" unicode="Ŝ" d="M20 224l139 5q4 -65 47.5 -93.5t101.5 -28.5q50 0 79.5 18.5t29.5 49.5t-25.5 43t-66.5 20l-118 21q-75 14 -123 58t-48 124q0 93 68 147t182 54q128 0 196.5 -60.5t70.5 -164.5l-140 -4q-3 55 -38.5 82.5t-89.5 27.5q-48 0 -74 -18.5t-26 -50.5q0 -27 20 -39t54 -19 l118 -21q96 -17 142 -65t46 -125q0 -97 -75 -147t-182 -50q-125 0 -206.5 61t-81.5 175zM229 808h140l85 -138h-93l-62 59l-62 -59h-93z"/>
<glyph glyph-name="scircumflex" horiz-adv-x="455" unicode="ŝ" d="M160 630h140l85 -139h-93l-62 60l-62 -60h-93zM15 145l126 3q4 -32 29 -49.5t65 -17.5q29 0 47 10t18 28q0 16 -11.5 26t-38.5 14l-68 11q-76 12 -116.5 42.5t-40.5 96.5q0 64 52.5 105.5t141.5 41.5q94 0 148.5 -40t61.5 -111l-119 -4q-5 29 -28.5 45t-64.5 16 q-27 0 -42.5 -10.5t-15.5 -28.5q0 -13 10 -21.5t26 -10.5l86 -15q72 -11 112.5 -45.5t40.5 -97.5q0 -69 -55 -107t-145 -38t-151.5 38t-67.5 119z"/>
<glyph glyph-name="Scedilla" horiz-adv-x="596" unicode="Ş" d="M414 -102q0 -40 -36.5 -56.5t-81.5 -16.5q-37 0 -67 10.5t-46 23.5l17 37q16 -10 38 -17t47 -7q19 0 30.5 5t11.5 18q0 22 -14.5 23t-18.5 1q-21 0 -39 -8l-29 11l47 68q-102 7 -172 59q-81 61 -81 175l139 5q4 -65 47.5 -93.5t101.5 -28.5q50 0 79.5 18.5t29.5 49.5 t-25.5 43t-66.5 20l-118 21q-75 14 -123 58t-48 124q0 93 68 147t182 54q128 0 196.5 -60.5t70.5 -164.5l-140 -4q-3 55 -38.5 82.5t-89.5 27.5q-48 0 -74 -18.5t-26 -50.5q0 -27 20 -39t54 -19l118 -21q96 -17 142 -65t46 -125q0 -97 -75 -147q-71 -47 -171 -50l-20 -26 q16 3 31 3q26 0 55 -13t29 -54z"/>
<glyph glyph-name="scedilla" horiz-adv-x="455" unicode="ş" d="M346 -102q0 -40 -36.5 -56.5t-81.5 -16.5q-37 0 -67 10.5t-46 23.5l17 37q16 -10 38 -17t47 -7q19 0 30.5 5t11.5 18q0 22 -14.5 23t-18.5 1q-21 0 -39 -8l-29 11l46 67q-71 6 -122 37q-61 38 -67 119l126 3q4 -32 29 -49.5t65 -17.5q29 0 47 10t18 28q0 16 -11.5 26 t-38.5 14l-68 11q-76 12 -116.5 42.5t-40.5 96.5q0 64 52.5 105.5t141.5 41.5q94 0 148.5 -40t61.5 -111l-119 -4q-5 29 -28.5 45t-64.5 16q-27 0 -42.5 -10.5t-15.5 -28.5q0 -13 10 -21.5t26 -10.5l86 -15q72 -11 112.5 -45.5t40.5 -97.5q0 -69 -55 -107q-50 -34 -127 -37 l-21 -27q16 3 31 3q26 0 55 -13t29 -54z"/>
<glyph glyph-name="Scaron" horiz-adv-x="596" unicode="Š" d="M20 224l139 5q4 -65 47.5 -93.5t101.5 -28.5q50 0 79.5 18.5t29.5 49.5t-25.5 43t-66.5 20l-118 21q-75 14 -123 58t-48 124q0 93 68 147t182 54q128 0 196.5 -60.5t70.5 -164.5l-140 -4q-3 55 -38.5 82.5t-89.5 27.5q-48 0 -74 -18.5t-26 -50.5q0 -27 20 -39t54 -19 l118 -21q96 -17 142 -65t46 -125q0 -97 -75 -147t-182 -50q-125 0 -206.5 61t-81.5 175zM369 670h-140l-85 138h93l62 -59l62 59h93z"/>
<glyph glyph-name="scaron" horiz-adv-x="455" unicode="š" d="M299 491h-140l-85 139h93l62 -59l62 59h93zM15 145l126 3q4 -32 29 -49.5t65 -17.5q29 0 47 10t18 28q0 16 -11.5 26t-38.5 14l-68 11q-76 12 -116.5 42.5t-40.5 96.5q0 64 52.5 105.5t141.5 41.5q94 0 148.5 -40t61.5 -111l-119 -4q-5 29 -28.5 45t-64.5 16 q-27 0 -42.5 -10.5t-15.5 -28.5q0 -13 10 -21.5t26 -10.5l86 -15q72 -11 112.5 -45.5t40.5 -97.5q0 -69 -55 -107t-145 -38t-151.5 38t-67.5 119z"/>
<glyph glyph-name="Tcommaaccent" horiz-adv-x="640" unicode="Ţ" d="M255 -130v92h130v-69q0 -54 -32.5 -80t-97.5 -26v50q26 0 38 7t13 26h-51zM394 0h-151v505h-219v125h592v-125h-222v-505z"/>
<glyph glyph-name="tcommaaccent" horiz-adv-x="347" unicode="ţ" d="M134 -130v92h130v-69q0 -54 -32.5 -80t-97.5 -26v50q26 0 38 7t13 26h-51zM63 119v224h-62v88l32 5q33 6 46.5 23.5t21.5 48.5l15 59h89v-123h118v-101h-118v-185q0 -28 13.5 -41t38.5 -13q16 0 34 4.5t38 13.5v-95q-25 -19 -55.5 -29t-73.5 -10q-54 0 -95.5 28 t-41.5 103z"/>
<glyph glyph-name="Tcaron" horiz-adv-x="640" unicode="Ť" d="M390 670h-140l-85 138h93l62 -59l62 59h93zM394 0h-151v505h-219v125h592v-125h-222v-505z"/>
<glyph glyph-name="tcaron" horiz-adv-x="347" unicode="ť" d="M331 485h-91l14 145h141zM63 119v224h-62v88l32 5q33 6 46.5 23.5t21.5 48.5l15 59h89v-123h118v-101h-118v-185q0 -28 13.5 -41t38.5 -13q16 0 34 4.5t38 13.5v-95q-25 -19 -55.5 -29t-73.5 -10q-54 0 -95.5 28t-41.5 103z"/>
<glyph glyph-name="Tbar" horiz-adv-x="640" unicode="Ŧ" d="M510 241h-116v-241h-151v241h-116v124h116v140h-219v125h592v-125h-222v-140h116v-124z"/>
<glyph glyph-name="tbar" horiz-adv-x="363" unicode="ŧ" d="M342 27q-25 -19 -55.5 -29t-73.5 -10q-54 0 -95.5 28t-41.5 103v71h-62v90h62v63h-62v88l32 5q33 6 46.5 23.5t21.5 48.5l15 59h89v-123h118v-101h-118v-63h116v-90h-116v-32q0 -28 13.5 -41t38.5 -13q16 0 34 4.5t38 13.5v-95z"/>
<glyph glyph-name="Utilde" horiz-adv-x="650" unicode="Ũ" d="M244 670h-70q0 61 22.5 100t66.5 39q35 0 59.5 -21t50.5 -21q13 0 22.5 9t10.5 30h70q0 -61 -23 -100t-66 -39q-36 0 -60 20.5t-50 20.5q-13 0 -22.5 -8.5t-10.5 -29.5zM325 -12q-117 0 -198 61.5t-81 198.5v382h151v-360q0 -75 29.5 -114.5t98.5 -39.5t99 39t30 114v361 h151v-382q0 -137 -81 -198.5t-199 -61.5z"/>
<glyph glyph-name="utilde" horiz-adv-x="532" unicode="ũ" d="M341 218v226h145v-444h-145v69q-18 -37 -54.5 -59t-86.5 -22q-90 0 -124 53t-34 124v279h144v-244q0 -47 17 -72.5t57 -25.5t60.5 31.5t20.5 84.5zM185 492h-70q0 61 22.5 100t66.5 39q35 0 59.5 -20.5t50.5 -20.5q13 0 22.5 8.5t10.5 29.5h70q0 -61 -23 -100t-66 -39 q-36 0 -60 21t-50 21q-13 0 -22.5 -9t-10.5 -30z"/>
<glyph glyph-name="Umacron" horiz-adv-x="650" unicode="Ū" d="M186 674v99h279v-99h-279zM325 -12q-117 0 -198 61.5t-81 198.5v382h151v-360q0 -75 29.5 -114.5t98.5 -39.5t99 39t30 114v361h151v-382q0 -137 -81 -198.5t-199 -61.5z"/>
<glyph glyph-name="umacron" horiz-adv-x="532" unicode="ū" d="M341 218v226h145v-444h-145v69q-18 -37 -54.5 -59t-86.5 -22q-90 0 -124 53t-34 124v279h144v-244q0 -47 17 -72.5t57 -25.5t60.5 31.5t20.5 84.5zM129 497v98h271v-98h-271z"/>
<glyph glyph-name="Ubreve" horiz-adv-x="650" unicode="Ŭ" d="M325 669q-64 0 -100 36.5t-36 102.5h83q0 -25 14.5 -38t38.5 -13t38.5 13t14.5 38h83q0 -66 -36 -102.5t-100 -36.5zM325 -12q-117 0 -198 61.5t-81 198.5v382h151v-360q0 -75 29.5 -114.5t98.5 -39.5t99 39t30 114v361h151v-382q0 -137 -81 -198.5t-199 -61.5z"/>
<glyph glyph-name="ubreve" horiz-adv-x="532" unicode="ŭ" d="M341 218v226h145v-444h-145v69q-18 -37 -54.5 -59t-86.5 -22q-90 0 -124 53t-34 124v279h144v-244q0 -47 17 -72.5t57 -25.5t60.5 31.5t20.5 84.5zM264 491q-64 0 -100 36.5t-36 102.5h83q0 -26 14.5 -38.5t38.5 -12.5t38.5 12.5t14.5 38.5h83q0 -66 -36 -102.5 t-100 -36.5z"/>
<glyph glyph-name="Uring" horiz-adv-x="650" unicode="Ů" d="M325 -12q-117 0 -198 61.5t-81 198.5v382h151v-360q0 -75 29.5 -114.5t98.5 -39.5t99 39t30 114v361h151v-382q0 -137 -81 -198.5t-199 -61.5zM289 754q0 -16 9 -26t27 -10t27 10t9 26t-9 26t-27 10t-27 -10t-9 -26zM229 754q0 40 26.5 66t69.5 26t69.5 -26t26.5 -66 t-26.5 -66t-69.5 -26t-69.5 26t-26.5 66z"/>
<glyph glyph-name="uring" horiz-adv-x="532" unicode="ů" d="M228 576q0 -16 9 -26t27 -10t27 10t9 26t-9 26t-27 10t-27 -10t-9 -26zM168 576q0 39 26.5 65.5t69.5 26.5t69.5 -26.5t26.5 -65.5q0 -40 -26.5 -66t-69.5 -26t-69.5 26t-26.5 66zM341 218v226h145v-444h-145v69q-18 -37 -54.5 -59t-86.5 -22q-90 0 -124 53t-34 124v279 h144v-244q0 -47 17 -72.5t57 -25.5t60.5 31.5t20.5 84.5z"/>
<glyph glyph-name="Uhungarumlaut" horiz-adv-x="650" unicode="Ű" d="M325 -12q-117 0 -198 61.5t-81 198.5v382h151v-360q0 -75 29.5 -114.5t98.5 -39.5t99 39t30 114v361h151v-382q0 -137 -81 -198.5t-199 -61.5zM288 670h-93l42 138h137zM452 670h-94l43 138h136z"/>
<glyph glyph-name="uhungarumlaut" horiz-adv-x="532" unicode="ű" d="M341 218v226h145v-444h-145v69q-18 -37 -54.5 -59t-86.5 -22q-90 0 -124 53t-34 124v279h144v-244q0 -47 17 -72.5t57 -25.5t60.5 31.5t20.5 84.5zM224 491h-93l42 139h137zM388 491h-94l43 139h136z"/>
<glyph glyph-name="Uogonek" horiz-adv-x="650" unicode="Ų" d="M325 -12q-117 0 -198 61.5t-81 198.5v382h151v-360q0 -75 29.5 -114.5t98.5 -39.5t99 39t30 114v361h151v-382q0 -137 -81 -199q-31 -23 -66 -37h3q-34 -31 -50.5 -48t-16.5 -35q0 -13 8 -20t21 -7t24 4t22 9v-66q-13 -8 -31 -16t-49 -8q-42 0 -66.5 19.5t-24.5 51.5 q0 34 22 63q12 15 28 30q-11 -1 -23 -1z"/>
<glyph glyph-name="uogonek" horiz-adv-x="532" unicode="ų" d="M341 218v226h145v-444q-43 -25 -59 -40t-16 -31q0 -13 8 -20t21 -7t24 4t22 9v-66q-13 -8 -31 -16t-48 -8q-43 0 -67 19.5t-24 51.5q0 30 17 56t45 48h-37v69q-18 -37 -54.5 -59t-86.5 -22q-90 0 -124 53t-34 124v279h144v-244q0 -47 17 -72.5t57 -25.5t60.5 31.5 t20.5 84.5z"/>
<glyph glyph-name="Wcircumflex" horiz-adv-x="884" unicode="Ŵ" d="M513 630l112 -423h4l106 423h147l-165 -630h-163l-111 421h-4l-111 -421h-161l-164 630h151l107 -423h4l111 423h137zM372 808h140l85 -138h-93l-62 59l-62 -59h-93z"/>
<glyph glyph-name="wcircumflex" horiz-adv-x="711" unicode="ŵ" d="M285 630h140l85 -139h-93l-62 60l-62 -60h-93zM420 444l71 -270h4l85 270h131l-141 -444h-141l-72 268h-4l-71 -268h-141l-141 444h144l85 -270h4l71 270h116z"/>
<glyph glyph-name="Ycircumflex" horiz-adv-x="638" unicode="Ŷ" d="M325 387l147 243h163l-243 -389v-241h-147v241l-242 389h168zM249 808h140l85 -138h-93l-62 59l-62 -59h-93z"/>
<glyph glyph-name="ycircumflex" horiz-adv-x="514" unicode="ŷ" d="M259 -162h-142l65 158l-182 448h152l107 -277h4l109 277h142zM186 630h140l85 -139h-93l-62 60l-62 -60h-93z"/>
<glyph glyph-name="Ydieresis" horiz-adv-x="638" unicode="Ÿ" d="M325 387l147 243h163l-243 -389v-241h-147v241l-242 389h168zM166 671v131h129v-131h-129zM343 671v131h129v-131h-129z"/>
<glyph glyph-name="Zacute" horiz-adv-x="587" unicode="Ź" d="M221 125h336v-125h-527v114l325 391h-322v125h515v-117zM346 670h-104l54 138h147z"/>
<glyph glyph-name="zacute" horiz-adv-x="447" unicode="ź" d="M275 491h-104l54 139h147zM238 339h-206v105h383v-98l-214 -241h219v-105h-393v99z"/>
<glyph glyph-name="Zdotaccent" horiz-adv-x="587" unicode="Ż" d="M221 671v131h147v-131h-147zM221 125h336v-125h-527v114l325 391h-322v125h515v-117z"/>
<glyph glyph-name="zdotaccent" horiz-adv-x="447" unicode="ż" d="M238 339h-206v105h383v-98l-214 -241h219v-105h-393v99zM151 498v132h147v-132h-147z"/>
<glyph glyph-name="Zcaron" horiz-adv-x="587" unicode="Ž" d="M365 670h-140l-85 138h93l62 -59l62 59h93zM221 125h336v-125h-527v114l325 391h-322v125h515v-117z"/>
<glyph glyph-name="zcaron" horiz-adv-x="447" unicode="ž" d="M294 491h-140l-85 139h93l62 -59l62 59h93zM238 339h-206v105h383v-98l-214 -241h219v-105h-393v99z"/>
<glyph glyph-name="florin" horiz-adv-x="447" unicode="ƒ" d="M52 -127q-12 0 -25.5 1.5t-26.5 2.5v106q7 -1 13 -1.5t12 -0.5q37 0 51.5 23.5t22.5 63.5l42 203h-76v105h98l23 111q16 74 65 114t116 40q15 0 30.5 -1.5t31.5 -5.5v-105q-7 1 -14 1.5t-12 0.5q-37 0 -54.5 -23.5t-25.5 -63.5l-14 -68h89v-105h-111l-51 -246 q-16 -77 -64 -114.5t-120 -37.5z"/>
<glyph glyph-name="Aringacute" horiz-adv-x="680" unicode="Ǻ" d="M516 0l-53 136h-255l-53 -136h-152l252 630h169l254 -630h-162zM333 457l-81 -207h166l-81 207h-4zM300 735q0 -15 9 -24t28 -9t28 9t9 24q0 16 -9 24.5t-28 8.5t-28 -8.5t-9 -24.5zM241 735q0 37 26.5 61.5t69.5 24.5t69.5 -24.5t26.5 -61.5q0 -36 -26.5 -60.5 t-69.5 -24.5t-69.5 24.5t-26.5 60.5zM390 841h-103l41 111h146z"/>
<glyph glyph-name="aringacute" horiz-adv-x="519" unicode="ǻ" d="M308 188v9l-73 -15q-34 -7 -53.5 -18t-19.5 -37q0 -19 14 -30.5t37 -11.5q40 0 67.5 28t27.5 75zM450 283v-162q0 -17 7.5 -25t20.5 -8q10 0 18.5 2t18.5 6v-77q-16 -12 -38.5 -20.5t-55.5 -8.5q-40 0 -67.5 20.5t-37.5 57.5q-19 -38 -58.5 -58t-90.5 -20 q-66 0 -105.5 32t-39.5 89q0 63 44.5 94.5t117.5 45.5l124 22v8q0 31 -16 49t-49 18q-31 0 -48 -17.5t-23 -45.5l-134 10q11 71 64.5 116t148.5 45q87 0 143 -41.5t56 -131.5zM219 559q0 -15 9 -24t27 -9q19 0 28 9t9 24t-9 24t-28 9q-18 0 -27 -9t-9 -24zM159 559 q0 37 26.5 61t69.5 24t70 -24t27 -61t-27 -61.5t-70 -24.5t-69.5 24.5t-26.5 61.5zM308 666h-103l41 111h146z"/>
<glyph glyph-name="AEacute" horiz-adv-x="991" unicode="Ǽ" d="M709 670h-104l54 138h147zM476 0v152h-224l-90 -152h-159l379 630h570v-125h-327v-124h254v-123h-254v-133h336v-125h-485zM472 523l-152 -256h156v256h-4z"/>
<glyph glyph-name="aeacute" horiz-adv-x="780" unicode="ǽ" d="M439 491h-104l54 139h147zM218 84q40 0 68.5 26t28.5 72v10h-64q-46 0 -67.5 -14.5t-21.5 -44.5q0 -21 14 -35t42 -14zM531 351q-36 0 -61.5 -21t-34.5 -63h182q-2 34 -23.5 59t-62.5 25zM238 456q48 0 84.5 -15t59.5 -47q24 28 65.5 45t84.5 17q110 0 167 -66t57 -156 v-42h-323q7 -51 38.5 -73t68.5 -22t61 15t36 46l117 -11q-17 -75 -74.5 -117t-144.5 -42q-63 0 -107.5 22.5t-72.5 64.5q-22 -36 -65.5 -60.5t-109.5 -24.5q-76 0 -117 37.5t-41 91.5q0 73 58.5 110.5t162.5 37.5h72v9q0 34 -19 53t-52 19q-31 0 -51 -16.5t-27 -41.5l-126 8 q11 71 66 114.5t132 43.5z"/>
<glyph glyph-name="Oslashacute" horiz-adv-x="693" unicode="Ǿ" d="M346 -12q-48 0 -91.5 12t-80.5 34l-54 -70l-65 47l56 72q-41 43 -64.5 102.5t-23.5 129.5q0 145 93 236t230 91q46 0 88.5 -11t78.5 -31l50 64l65 -47l-51 -66q43 -43 68 -103.5t25 -132.5q0 -145 -93.5 -236t-230.5 -91zM346 121q77 0 122.5 53.5t45.5 140.5 q0 34 -7.5 64.5t-21.5 53.5l-225 -289q18 -11 39.5 -17t46.5 -6zM179 315q0 -32 6.5 -60.5t18.5 -51.5l223 286q-17 10 -37.5 15t-43.5 5q-76 0 -121.5 -53.5t-45.5 -140.5zM397 670h-104l54 138h147z"/>
<glyph glyph-name="oslashacute" horiz-adv-x="523" unicode="ǿ" d="M261 -12q-36 0 -68 8t-58 23l-44 -53l-52 41l43 52q-28 31 -44 72.5t-16 90.5q0 102 66.5 168t172.5 66q36 0 68 -8t59 -23l44 53l52 -41l-44 -53q29 -31 45 -72t16 -90q0 -103 -67 -168.5t-173 -65.5zM261 97q51 0 77.5 35t26.5 90q0 17 -2.5 32t-7.5 28l-145 -173 q10 -6 23 -9t28 -3zM158 222q0 -17 2.5 -32.5t7.5 -28.5l144 174q-10 6 -23 9t-28 3q-51 0 -77 -35t-26 -90zM312 491h-104l54 139h147z"/>
<glyph glyph-name="Scommaaccent" horiz-adv-x="596" unicode="Ș" d="M234 -130v92h130v-69q0 -54 -32.5 -80t-97.5 -26v50q26 0 38 7t13 26h-51zM20 224l139 5q4 -65 47.5 -93.5t101.5 -28.5q50 0 79.5 18.5t29.5 49.5t-25.5 43t-66.5 20l-118 21q-75 14 -123 58t-48 124q0 93 68 147t182 54q128 0 196.5 -60.5t70.5 -164.5l-140 -4 q-3 55 -38.5 82.5t-89.5 27.5q-48 0 -74 -18.5t-26 -50.5q0 -27 20 -39t54 -19l118 -21q96 -17 142 -65t46 -125q0 -97 -75 -147t-182 -50q-125 0 -206.5 61t-81.5 175z"/>
<glyph glyph-name="scommaaccent" horiz-adv-x="455" unicode="ș" d="M166 -130v92h130v-69q0 -54 -32.5 -80t-97.5 -26v50q26 0 38 7t13 26h-51zM15 145l126 3q4 -32 29 -49.5t65 -17.5q29 0 47 10t18 28q0 16 -11.5 26t-38.5 14l-68 11q-76 12 -116.5 42.5t-40.5 96.5q0 64 52.5 105.5t141.5 41.5q94 0 148.5 -40t61.5 -111l-119 -4 q-5 29 -28.5 45t-64.5 16q-27 0 -42.5 -10.5t-15.5 -28.5q0 -13 10 -21.5t26 -10.5l86 -15q72 -11 112.5 -45.5t40.5 -97.5q0 -69 -55 -107t-145 -38t-151.5 38t-67.5 119z"/>
<glyph glyph-name="dotlessj" horiz-adv-x="238" unicode="ȷ" d="M191 444v-469q0 -77 -41.5 -113t-113.5 -36q-36 0 -68.5 8.5t-53.5 23.5l24 88q17 -10 33.5 -14.5t32.5 -4.5q21 0 32 12.5t11 40.5v464h144z"/>
<glyph glyph-name="circumflex" d="M180 630h140l85 -139h-93l-62 60l-62 -60h-93z" unicode="ˆ"/>
<glyph glyph-name="caron" d="M320 491h-140l-85 139h93l62 -59l62 59h93z" unicode="ˇ"/>
<glyph glyph-name="breve" d="M250 491q-64 0 -100 36.5t-36 102.5h83q0 -26 14.5 -38.5t38.5 -12.5t38.5 12.5t14.5 38.5h83q0 -66 -36 -102.5t-100 -36.5z" unicode="˘"/>
<glyph glyph-name="dotaccent" d="M176 498v132h147v-132h-147z" unicode="˙"/>
<glyph glyph-name="ring" d="M214 576q0 -16 9 -26t27 -10t27 10t9 26t-9 26t-27 10t-27 -10t-9 -26zM154 576q0 39 26.5 65.5t69.5 26.5t69.5 -26.5t26.5 -65.5q0 -40 -26.5 -66t-69.5 -26t-69.5 26t-26.5 66z" unicode="˚"/>
<glyph glyph-name="ogonek" d="M241 12h83q-34 -31 -50.5 -48t-16.5 -35q0 -13 8 -20t21 -7t24 4t22 9v-66q-13 -8 -31 -16t-49 -8q-42 0 -66.5 19.5t-24.5 51.5q0 34 22 62.5t58 53.5z" unicode="˛"/>
<glyph glyph-name="tilde" d="M169 492h-70q0 61 22.5 100t66.5 39q35 0 59.5 -20.5t50.5 -20.5q13 0 22.5 8.5t10.5 29.5h70q0 -61 -23 -100t-66 -39q-36 0 -60 21t-50 21q-13 0 -22.5 -9t-10.5 -30z" unicode="˜"/>
<glyph glyph-name="hungarumlaut" d="M172 491h-93l42 139h137zM336 491h-94l43 139h136z" unicode="˝"/>
<glyph glyph-name="Wgrave" horiz-adv-x="884" unicode="Ẁ" d="M496 670h-104l-97 138h147zM513 630l112 -423h4l106 423h147l-165 -630h-163l-111 421h-4l-111 -421h-161l-164 630h151l107 -423h4l111 423h137z"/>
<glyph glyph-name="wgrave" horiz-adv-x="711" unicode="ẁ" d="M420 444l71 -270h4l85 270h131l-141 -444h-141l-72 268h-4l-71 -268h-141l-141 444h144l85 -270h4l71 270h116zM410 491h-104l-97 139h147z"/>
<glyph glyph-name="Wacute" horiz-adv-x="884" unicode="Ẃ" d="M492 670h-104l54 138h147zM513 630l112 -423h4l106 423h147l-165 -630h-163l-111 421h-4l-111 -421h-161l-164 630h151l107 -423h4l111 423h137z"/>
<glyph glyph-name="wacute" horiz-adv-x="711" unicode="ẃ" d="M406 491h-104l54 139h147zM420 444l71 -270h4l85 270h131l-141 -444h-141l-72 268h-4l-71 -268h-141l-141 444h144l85 -270h4l71 270h116z"/>
<glyph glyph-name="Wdieresis" horiz-adv-x="884" unicode="Ẅ" d="M289 671v131h129v-131h-129zM466 671v131h129v-131h-129zM513 630l112 -423h4l106 423h147l-165 -630h-163l-111 421h-4l-111 -421h-161l-164 630h151l107 -423h4l111 423h137z"/>
<glyph glyph-name="wdieresis" horiz-adv-x="711" unicode="ẅ" d="M203 497v131h129v-131h-129zM380 497v131h129v-131h-129zM420 444l71 -270h4l85 270h131l-141 -444h-141l-72 268h-4l-71 -268h-141l-141 444h144l85 -270h4l71 270h116z"/>
<glyph glyph-name="Ygrave" horiz-adv-x="638" unicode="Ỳ" d="M325 387l147 243h163l-243 -389v-241h-147v241l-242 389h168zM373 670h-104l-97 138h147z"/>
<glyph glyph-name="ygrave" horiz-adv-x="514" unicode="ỳ" d="M259 -162h-142l65 158l-182 448h152l107 -277h4l109 277h142zM311 491h-104l-97 139h147z"/>
<glyph glyph-name="endash" d="M48 206v97h402v-97h-402z" unicode="–"/>
<glyph glyph-name="emdash" horiz-adv-x="1000" unicode="—" d="M48 206v97h904v-97h-904z"/>
<glyph glyph-name="quoteleft" horiz-adv-x="217" unicode="‘" d="M186 505v-138h-154v130q0 69 37.5 101.5t116.5 33.5v-71q-34 -1 -51.5 -13t-18.5 -43h70z"/>
<glyph glyph-name="quoteright" horiz-adv-x="217" unicode="’" d="M32 492v138h154v-130q0 -69 -38 -101t-116 -34v71q34 1 51.5 13t17.5 43h-69z"/>
<glyph glyph-name="quotesinglbase" horiz-adv-x="217" unicode="‚" d="M32 0v138h154v-130q0 -69 -38 -101t-116 -34v71q34 1 51.5 13t17.5 43h-69z"/>
<glyph glyph-name="quotedblleft" horiz-adv-x="416" unicode="“" d="M186 505v-138h-154v130q0 69 37.5 101.5t116.5 33.5v-71q-34 -1 -51.5 -13t-18.5 -43h70zM384 505v-138h-153v130q0 69 37.5 101.5t115.5 33.5v-71q-34 -1 -51 -13t-17 -43h68z"/>
<glyph glyph-name="quotedblright" horiz-adv-x="416" unicode="”" d="M231 492v138h153v-130q0 -69 -37.5 -101t-115.5 -34v71q34 1 51.5 13t18.5 43h-70zM32 492v138h154v-130q0 -69 -38 -101t-116 -34v71q34 1 51.5 13t17.5 43h-69z"/>
<glyph glyph-name="quotedblbase" horiz-adv-x="416" unicode="„" d="M231 0v138h153v-130q0 -69 -37.5 -101t-115.5 -34v71q34 1 51.5 13t18.5 43h-70zM32 0v138h154v-130q0 -69 -38 -101t-116 -34v71q34 1 51.5 13t17.5 43h-69z"/>
<glyph glyph-name="bullet" horiz-adv-x="385" unicode="•" d="M352 258q0 -70 -46.5 -114.5t-112.5 -44.5t-113 44.5t-47 114.5q0 71 47 115.5t113 44.5t112.5 -44.5t46.5 -115.5z"/>
<glyph glyph-name="guilsinglleft" horiz-adv-x="251" unicode="‹" d="M33 161v127l184 126v-124l-95 -66l95 -65v-124z"/>
<glyph glyph-name="guilsinglright" horiz-adv-x="251" unicode="›" d="M218 288v-127l-184 -126v124l95 65l-95 66v124z"/>
<glyph glyph-name="fraction" horiz-adv-x="499" unicode="⁄" d="M493 630l-385 -630h-100l384 630h101z"/>
<glyph glyph-name="Euro" horiz-adv-x="635" unicode="€" d="M609 256q-4 -115 -72.5 -191.5t-187.5 -76.5q-109 0 -180 59.5t-94 164.5h-60v75h51q-1 7 -1 14v14v12.5t1 12.5h-51v74h60q22 107 93 167.5t181 60.5q122 0 188.5 -77.5t71.5 -190.5l-139 -6q-2 58 -32.5 101t-88.5 43q-49 0 -79 -25.5t-43 -72.5h149l-10 -74h-150 q-1 -6 -1 -12v-13v-14t1 -14h143l-10 -75h-121q13 -46 43 -70t78 -24q58 0 88.5 39t32.5 105z"/>
<glyph glyph-name="commaaccent" d="M185 -130v92h130v-69q0 -54 -32.5 -80t-97.5 -26v50q26 0 38 7t13 26h-51z" unicode=""/>
<glyph glyph-name="caron.Slovak" d="M263 485h-91l14 145h141z"/>
<glyph glyph-name="circumflex.cap" d="M180 808h140l85 -138h-93l-62 59l-62 -59h-93z"/>
<glyph glyph-name="caron.cap" d="M320 670h-140l-85 138h93l62 -59l62 59h93z"/>
<glyph glyph-name="grave.cap" d="M350 670h-104l-97 138h147z"/>
<glyph glyph-name="dieresis.cap" d="M97 671v131h129v-131h-129zM274 671v131h129v-131h-129z"/>
<glyph glyph-name="macron.cap" d="M110 674v99h279v-99h-279z"/>
<glyph glyph-name="acute.cap" d="M253 670h-104l54 138h147z"/>
<glyph glyph-name="breve.cap" d="M250 669q-64 0 -100 36.5t-36 102.5h83q0 -25 14.5 -38t38.5 -13t38.5 13t14.5 38h83q0 -66 -36 -102.5t-100 -36.5z"/>
<glyph glyph-name="dotaccent.cap" d="M176 671v131h147v-131h-147z"/>
<glyph glyph-name="ring.cap" d="M214 754q0 -16 9 -26t27 -10t27 10t9 26t-9 26t-27 10t-27 -10t-9 -26zM154 754q0 40 26.5 66t69.5 26t69.5 -26t26.5 -66t-26.5 -66t-69.5 -26t-69.5 26t-26.5 66z"/>
<glyph glyph-name="tilde.cap" d="M169 670h-70q0 61 22.5 100t66.5 39q35 0 59.5 -21t50.5 -21q13 0 22.5 9t10.5 30h70q0 -61 -23 -100t-66 -39q-36 0 -60 20.5t-50 20.5q-13 0 -22.5 -8.5t-10.5 -29.5z"/>
<glyph glyph-name="hungarumlaut.cap" d="M172 670h-93l42 138h137zM336 670h-94l43 138h136z"/>
<glyph glyph-name="commaturn" d="M315 587v-92h-130v69q0 55 32.5 80.5t97.5 25.5v-49q-26 0 -38 -7t-13 -27h51z"/>
</font>
</defs>
</svg>
