<?xml version="1.0" encoding="UTF-8" standalone="no"?>
<!DOCTYPE svg  PUBLIC '-//W3C//DTD SVG 1.1//EN'  'http://www.w3.org/Graphics/SVG/1.1/DTD/svg11.dtd'>
<svg xmlns="http://www.w3.org/2000/svg">
<defs>
<font id="FoundersGroteskText-Italic" horiz-adv-x="520">
<font-face slope="-14" underline-position="0" font-weight="400" descent="-200" panose-1="0 0 0 0 0 0 0 0 0 0" units-per-em="1000" unicode-range="U+000D-F6C3" bbox="-186 -215 1096 1000" x-height="437" underline-thickness="0" font-family="FoundersGroteskText" ascent="800" font-style="italic" cap-height="630"/>
<missing-glyph horiz-adv-x="1000"/>
<glyph glyph-name=".notdef" horiz-adv-x="1000"/>
<glyph glyph-name=".null" horiz-adv-x="0"/>
<glyph glyph-name="nonmarkingreturn" horiz-adv-x="1000" unicode=""/>
<glyph glyph-name="space" horiz-adv-x="252" unicode=" "/>
<glyph glyph-name="exclam" horiz-adv-x="232" unicode="!" d="M13 0l25 100h100l-25 -100h-100zM175 630h89l-44 -176l-93 -269h-40l44 269z"/>
<glyph glyph-name="quotedbl" horiz-adv-x="346" unicode='&quot;' d="M100 377l63 253h72l-64 -253h-71zM255 377l63 253h71l-63 -253h-71z"/>
<glyph glyph-name="numbersign" horiz-adv-x="620" unicode="#" d="M277 0l68 167h-153l-67 -167h-73l68 167h-103l19 58h107l73 180h-119l21 59h122l67 166h72l-67 -166h153l67 166h72l-67 -166h104l-21 -59h-107l-72 -180h119l-21 -58h-122l-67 -167h-73zM368 225l73 180h-153l-72 -180h152z"/>
<glyph glyph-name="dollar" horiz-adv-x="593" unicode="$" d="M288 -12h-6.5h-5t-5 0.5t-5.5 0.5l-27 -107h-55l28 113q-37 7 -70.5 20t-61 32.5t-46.5 44.5t-29 54l71 53q7 -26 21 -48t34 -39t44.5 -29.5t53.5 -18.5l56 223l-38 10q-35 9 -60.5 22t-43.5 31.5t-27 42.5t-9 54q0 41 18 77t51.5 62.5t80 41t101.5 14.5h15l25 101h56 l-27 -108q33 -7 62 -20t52 -31.5t40 -41t27 -48.5l-74 -40q-7 19 -19 36.5t-28 32t-36 25.5t-42 17l-53 -216l32 -8q41 -11 71 -25.5t50 -33.5t30 -43t10 -54q0 -45 -20.5 -82t-56.5 -62.5t-83.5 -39t-100.5 -13.5zM290 58q37 0 69.5 8t56.5 23.5t37 37.5t13 49 q0 19 -6.5 33.5t-19.5 25t-33 18.5t-50 16l-20 5l-54 -216h7zM291 366l12 -3l52 209q-34 0 -64 -8t-53 -23t-35.5 -36.5t-12.5 -47.5q0 -20 6.5 -34.5t19 -24.5t30.5 -17.5t45 -14.5z"/>
<glyph glyph-name="percent" horiz-adv-x="946" unicode="%" d="M618 137q0 -20 7 -36t19.5 -28t29.5 -18.5t37 -6.5t39 7.5t34.5 22t24 34.5t8.5 43q0 20 -7 36.5t-19.5 28.5t-29.5 18.5t-37 6.5t-39 -7.5t-34.5 -22t-24 -34.5t-8.5 -44zM557 131q0 38 14 70.5t38 56t55 36t64 12.5q32 0 59.5 -10.5t48 -30t31.5 -46t11 -58.5 q0 -38 -14 -70t-38 -55.5t-55 -36t-64 -12.5q-32 0 -59.5 10.5t-48 29.5t-31.5 45.5t-11 58.5zM271 385q20 0 39 7.5t34.5 22t24 34.5t8.5 44q0 20 -7 36t-19.5 28t-29.5 18.5t-37 6.5t-39 -7.5t-34.5 -22t-24 -34.5t-8.5 -43q0 -20 7 -36.5t19.5 -28.5t29.5 -18.5t37 -6.5z M744 630h72l-565 -630h-72zM438 499q0 -38 -14 -70.5t-38 -56t-55 -36t-64 -12.5q-32 0 -60 10.5t-48.5 30t-31.5 46t-11 58.5q0 38 14 70t38.5 55.5t55.5 36t64 12.5q32 0 59.5 -10.5t48 -29.5t31.5 -45.5t11 -58.5z"/>
<glyph glyph-name="ampersand" horiz-adv-x="661" unicode="&amp;" d="M529 -8q-16 0 -31 3.5t-30 11t-29.5 19.5t-29.5 28q-23 -16 -46.5 -28t-48 -20.5t-50 -13t-50.5 -4.5q-42 0 -77 12t-60.5 33.5t-39.5 51.5t-14 65q0 37 12 67t36 54t57.5 43t79.5 36q-8 15 -14 29t-9.5 27.5t-5.5 26.5t-2 26q0 40 14.5 74t41 58.5t61.5 37.5t74 13 q36 0 64.5 -9.5t47 -26.5t28 -40.5t9.5 -51.5q0 -35 -14.5 -63.5t-41 -51t-62 -41t-81.5 -33.5l114 -173q19 18 35.5 39t31 44t26 47.5t19.5 49.5l73 -11q-12 -30 -27 -60t-34 -57.5t-41 -53.5t-46 -48q10 -10 20.5 -18.5t22.5 -14.5t24.5 -9.5t25.5 -3.5q6 0 11.5 0.5t12 1 t13.5 2t16 3.5l-16 -54q-8 -4 -16.5 -7t-17.5 -5.5t-18 -3.5t-18 -1zM222 54q19 0 37.5 3.5t37.5 9.5t37 15t36 21q0 1 -0.5 1.5l-1.5 1.5l-1.5 1.5t-0.5 1.5l-128 190q-35 -13 -59 -27t-40 -30.5t-23.5 -36.5t-7.5 -46q0 -23 8.5 -42.5t23.5 -33.5t36 -21.5t46 -7.5z M258 466q0 -12 2 -23.5t5.5 -22.5t8 -22t11.5 -23q42 14 70.5 27.5t47.5 29.5t28.5 35.5t10.5 44.5q0 15 -5 27.5t-15 21.5t-24.5 13.5t-32.5 4.5q-21 0 -40.5 -7t-34.5 -21.5t-23.5 -35.5t-8.5 -49z"/>
<glyph glyph-name="quotesingle" horiz-adv-x="194" unicode="&apos;" d="M100 377l63 253h74l-64 -253h-73z"/>
<glyph glyph-name="parenleft" horiz-adv-x="313" unicode="(" d="M55 163q0 67 16 132.5t47 128.5t77 122t106 114h86q-62 -57 -109.5 -122t-78 -131t-45.5 -128.5t-15 -116.5q0 -38 3.5 -71t11 -62.5t19.5 -57.5t29 -55h-75q-17 24 -30 51.5t-22.5 58.5t-14.5 65.5t-5 71.5z"/>
<glyph glyph-name="parenright" horiz-adv-x="313" unicode=")" d="M293 413q0 -67 -16 -132.5t-47 -128.5t-77 -122t-106 -114h-86q62 57 109.5 122t78 131t45.5 128.5t15 116.5q0 38 -3.5 71t-11 62.5t-19.5 57.5t-29 55h75q17 -24 30 -51.5t22.5 -58.5t14.5 -65.5t5 -71.5z"/>
<glyph glyph-name="asterisk" horiz-adv-x="389" unicode="*" d="M104 536l31 49l106 -64l27 123l57 -13l-28 -121l125 11l4 -58l-123 -11l49 -114l-54 -22l-49 112l-93 -81l-37 44l92 80z"/>
<glyph glyph-name="plus" horiz-adv-x="618" unicode="+" d="M576 277h-221l-55 -221h-70l55 221h-220l17 70h221l55 221h70l-55 -221h220z"/>
<glyph glyph-name="comma" horiz-adv-x="238" unicode="," d="M12 0l27 106h106l-31 -124q-7 -28 -19 -50t-30 -37.5t-43.5 -24t-57.5 -8.5l13 53q17 0 30 3.5t22.5 11t16.5 20.5t12 32l4 18h-50z"/>
<glyph glyph-name="hyphen" horiz-adv-x="364" unicode="-" d="M67 218l18 74h231l-18 -74h-231z"/>
<glyph glyph-name="period" horiz-adv-x="238" unicode="." d="M12 0l27 106h106l-27 -106h-106z"/>
<glyph glyph-name="slash" horiz-adv-x="369" unicode="/" d="M-61 -83l445 742h82l-445 -742h-82z"/>
<glyph glyph-name="zero" horiz-adv-x="640" unicode="0" d="M302 58q41 0 73.5 14t57.5 42t44.5 71.5t34.5 104.5q4 16 7 31.5t5 30.5t3 28.5t1 25.5q0 40 -9.5 71t-27.5 52t-44.5 32t-59.5 11q-41 0 -73.5 -14t-57.5 -42t-44.5 -71.5t-34.5 -104.5q-4 -16 -7 -31.5t-5 -30.5t-3 -28.5t-1 -25.5q0 -40 9.5 -71t27.5 -52t44.5 -32 t59.5 -11zM302 -12q-55 0 -98 17t-72 49t-44 76.5t-15 98.5q0 13 1 27t2.5 28.5t4.5 29t6 30.5q17 73 45 129t66.5 93.5t86 56.5t102.5 19t98 -17t72 -49t43.5 -76t14.5 -99q0 -14 -1 -27.5t-2.5 -28t-4 -29.5t-5.5 -30q-17 -73 -45 -129t-66.5 -93.5t-86 -56.5t-102.5 -19z "/>
<glyph glyph-name="one" horiz-adv-x="389" unicode="1" d="M232 0h-87l119 476h-168l16 64h45q41 0 68 4.5t46 15t33.5 28t28.5 46.5h57z"/>
<glyph glyph-name="two" horiz-adv-x="556" unicode="2" d="M155 75h325l-18 -75h-465l12 50l248 177q113 79 142 106t47 59.5t18 71.5q0 24 -7.5 43.5t-22.5 33t-37 21t-50 7.5q-35 0 -65 -13t-52 -37.5t-34.5 -59t-13.5 -76.5l-83 23q5 51 25 94t53 75t77 49.5t97 17.5q49 0 87 -13.5t63 -37.5t37 -55t12 -67q0 -47 -17.5 -85 t-47.5 -69.5t-64 -57t-95 -66.5z"/>
<glyph glyph-name="three" horiz-adv-x="561" unicode="3" d="M418 193q0 21 -7 37.5t-21.5 28.5t-36.5 18.5t-51 6.5q-9 0 -17.5 -0.5t-16.5 -1t-14 -1.5t-14 -2l18 75q19 -3 26 -3.5t15.5 -1t18.5 -0.5q28 0 55.5 7t51 22.5t38 40t14.5 57.5q0 21 -7.5 38.5t-22.5 30.5t-37.5 20t-50.5 7q-31 0 -57.5 -8.5t-48.5 -25t-37.5 -41 t-25.5 -57.5l-77 23q15 42 38.5 75.5t55.5 56.5t71.5 35t84.5 12q49 0 86 -11.5t62 -33t37 -51t12 -64.5q0 -36 -14 -65.5t-37.5 -50.5t-52 -33.5t-57.5 -17.5q24 -6 43.5 -18t33 -28t21 -35.5t7.5 -41.5q0 -48 -19 -86.5t-52.5 -64.5t-77.5 -39.5t-94 -13.5 q-57 0 -101.5 16t-73 45t-39 62.5t-10.5 64.5q0 12 1 25l83 11q-3 -15 -3 -29q0 -18 6.5 -40.5t26 -43t48 -31t62.5 -10.5t63 8.5t50 25t32.5 42t11.5 59.5z"/>
<glyph glyph-name="four" horiz-adv-x="606" unicode="4" d="M464 552l-333 -313h255zM567 630l-97 -391h113l-18 -71h-113l-42 -168h-84l42 168h-332l20 84l404 378h107z"/>
<glyph glyph-name="five" horiz-adv-x="570" unicode="5" d="M260 563q-4 -13 -13 -42t-20.5 -62t-22 -61t-15.5 -40q14 15 30 26.5t34.5 19.5t39.5 12.5t45 4.5q43 0 78.5 -13t60.5 -37.5t38.5 -59t13.5 -76.5q0 -54 -19 -99.5t-53.5 -78.5t-81.5 -51t-101 -18q-50 0 -92 14.5t-72.5 41t-45 61.5t-14.5 72v10l84 13q-1 -7 -1 -15 q0 -23 8.5 -45.5t28 -42t46.5 -30t60 -10.5q39 0 70 12.5t53 35.5t33.5 55t11.5 69q0 28 -8.5 51.5t-24.5 40t-39 25t-52 8.5q-22 0 -42 -4.5t-37.5 -13.5t-32.5 -21t-28 -28l-84 20q14 33 30 74.5t31.5 85.5t29.5 86t23 77h374q-2 -19 -6.5 -34t-14 -25.5t-24.5 -16.5 t-37 -6q-17 0 -47.5 1.5t-67 4t-70.5 5t-57 4.5z"/>
<glyph glyph-name="six" horiz-adv-x="600" unicode="6" d="M467 220q0 28 -9 50.5t-26.5 38.5t-42.5 24.5t-56 8.5q-35 0 -65.5 -11t-53.5 -32t-36 -50.5t-13 -66.5q0 -28 9 -50.5t26.5 -39t42.5 -25.5t56 -9q35 0 65.5 11t53.5 32.5t36 51.5t13 67zM392 573q-46 0 -84.5 -20.5t-68.5 -58t-51 -89.5t-32 -115q13 28 33.5 50.5 t46 37.5t55.5 23t62 8q48 0 85 -14t61.5 -39.5t36.5 -59t12 -72.5q0 -51 -19.5 -95t-54.5 -75.5t-80.5 -48.5t-95.5 -17q-52 0 -94 16.5t-71 47t-44.5 73.5t-15.5 96q0 76 21 150.5t62 136t101.5 98t136.5 36.5q46 0 82 -12t61 -34t39.5 -51t18.5 -64l-78 -18 q-3 23 -12.5 43.5t-25.5 35t-38 23t-49 8.5z"/>
<glyph glyph-name="seven" horiz-adv-x="538" unicode="7" d="M468 552h-361l20 78h468l-13 -49q-73 -60 -130.5 -128t-101 -141.5t-74 -151t-50.5 -160.5h-94q22 83 54.5 161t75.5 148.5t95 131.5t111 111z"/>
<glyph glyph-name="eight" horiz-adv-x="580" unicode="8" d="M279 54q36 0 65.5 9.5t49.5 26.5t30.5 40t10.5 50q0 26 -11 46.5t-30.5 34t-47 20.5t-60.5 7q-35 0 -63 -9t-48 -26t-30.5 -40t-10.5 -50q0 -25 11 -45.5t30.5 -34.5t46 -21.5t57.5 -7.5zM338 351q31 0 56.5 9.5t44.5 27t29 40.5t10 49q0 24 -9.5 43t-26 31.5t-39.5 19 t-49 6.5q-30 0 -56 -9.5t-45 -26t-29 -39t-10 -47.5t9.5 -44.5t26 -33t39 -20t49.5 -6.5zM276 -12q-48 0 -90 11.5t-73.5 33.5t-49 54.5t-17.5 72.5q0 35 12.5 64t35.5 51t54 36t68 19q-18 8 -33.5 19t-27.5 26.5t-19 35t-7 43.5q0 43 18 78t50 59.5t73 37.5t86 13 t82.5 -10.5t65 -31t42.5 -51t15 -68.5q0 -32 -10 -59.5t-28.5 -48.5t-46 -36t-62.5 -23q23 -6 42.5 -18.5t34.5 -29.5t23.5 -39t8.5 -47q0 -44 -19 -80t-52.5 -61t-78.5 -38t-97 -13z"/>
<glyph glyph-name="nine" horiz-adv-x="600" unicode="9" d="M253 57q46 0 84.5 20.5t68.5 58t51 89.5t32 115q-13 -28 -33.5 -50.5t-46 -37.5t-55.5 -23t-62 -8q-48 0 -85 14t-61.5 39.5t-36.5 59t-12 72.5q0 51 19.5 95t54.5 75.5t80.5 48.5t95.5 17q52 0 94 -16.5t71 -47t44.5 -73.5t15.5 -96q0 -76 -21 -150.5t-62 -136 t-101.5 -98t-136.5 -36.5q-46 0 -82 12t-61 34t-39.5 51t-18.5 64l78 18q3 -23 12.5 -43.5t25.5 -35t38 -23t49 -8.5zM178 410q0 -28 9 -50.5t26.5 -38.5t42.5 -24.5t56 -8.5q35 0 65.5 11t53.5 32t36 50.5t13 66.5q0 28 -9 50.5t-26.5 39t-42.5 25.5t-56 9q-35 0 -65.5 -11 t-53.5 -32.5t-36 -51.5t-13 -67z"/>
<glyph glyph-name="colon" horiz-adv-x="238" unicode=":" d="M91 317l27 106h106l-27 -106h-106zM12 0l27 106h106l-27 -106h-106z"/>
<glyph glyph-name="semicolon" horiz-adv-x="238" unicode=";" d="M91 317l27 106h106l-27 -106h-106zM12 0l27 106h106l-31 -124q-7 -28 -19 -50t-30 -37.5t-43.5 -24t-57.5 -8.5l13 53q17 0 30 3.5t22.5 11t16.5 20.5t12 32l4 18h-50z"/>
<glyph glyph-name="less" horiz-adv-x="463" unicode="&lt;" d="M52 265l22 90l442 208l-23 -89l-370 -169l286 -174l-20 -75z"/>
<glyph glyph-name="equal" horiz-adv-x="632" unicode="=" d="M55 196l16 68h511l-16 -68h-511zM95 357l15 68h512l-16 -68h-511z"/>
<glyph glyph-name="greater" horiz-adv-x="463" unicode="&gt;" d="M457 355l-23 -90l-441 -209l22 89l370 171l-285 172l20 75z"/>
<glyph glyph-name="question" horiz-adv-x="513" unicode="?" d="M148 0l23 98h100l-23 -98h-100zM276 178h-80q6 24 16 43.5t25 36t35.5 32t49.5 33.5q43 26 56.5 35t30 25t26.5 37.5t10 50.5q0 22 -7.5 40.5t-21.5 32t-35 21t-48 7.5q-35 0 -63.5 -13.5t-48.5 -37t-31 -55.5t-12 -69l-85 19q5 53 25 95t52.5 71.5t75 44.5t92.5 15 q48 0 85 -12.5t61 -35.5t36 -53.5t12 -65.5q0 -38 -13 -68.5t-35.5 -54t-49.5 -41.5t-63 -38q-23 -13 -38.5 -24t-27 -22t-18.5 -23t-11 -26z"/>
<glyph glyph-name="at" horiz-adv-x="788" unicode="@" d="M473 202l8 24q6 20 6 38q0 3 -0.5 14.5t-9.5 26.5t-25 23.5t-37 8.5q-27 0 -50 -14t-40.5 -38.5t-27 -54.5t-9.5 -62q0 -18 3.5 -32t11.5 -23.5t20.5 -14.5t29.5 -5q20 0 38 7t33.5 20.5t28 34t20.5 47.5zM559 89q27 0 50.5 13.5t42 40t28.5 65.5t10 88t-16.5 89 t-48 68.5t-76 43.5t-98.5 15q-70 0 -132.5 -25t-110 -72t-74 -112.5t-26.5 -144.5q0 -53 19 -98t54.5 -78t85 -50.5t108.5 -17.5q29 0 55.5 2.5t52 8t51 14t51.5 20.5l19 -43q-27 -15 -54.5 -25.5t-56.5 -17.5t-58.5 -10.5t-60.5 -3.5q-73 0 -133.5 21t-104 60t-67 94.5 t-23.5 122.5q0 88 30.5 164t86 131t129.5 85t159 30q69 0 125 -20t95.5 -56.5t60.5 -86t21 -108.5q0 -61 -17 -110.5t-45.5 -83t-64.5 -50.5t-73 -17q-20 0 -36.5 5.5t-28.5 15.5t-20 23t-11 28q-10 -16 -23.5 -29.5t-29.5 -23t-35 -15t-40 -5.5q-26 0 -48 9.5t-38 27 t-24.5 42t-8.5 54.5q0 42 14.5 82.5t40.5 73t62 51t77 18.5q21 0 38.5 -5.5t31.5 -15t23 -22t14 -27.5l20 62h73l-74 -237q-4 -14 -4 -25t4 -18.5t11.5 -11t17.5 -3.5z"/>
<glyph glyph-name="A" horiz-adv-x="668" unicode="A" d="M496 0l-28 185h-283l-118 -185h-90l410 630h95l102 -630h-88zM410 537l-181 -283h228l-43 283h-4z"/>
<glyph glyph-name="B" horiz-adv-x="641" unicode="B" d="M372 291h-186l-55 -219h184q42 0 75.5 9t57.5 26t36.5 41.5t12.5 53.5q0 22 -8.5 39t-25 28t-39.5 16.5t-52 5.5zM252 558l-50 -201h179q38 0 69 8.5t53 24.5t33.5 38t11.5 50q0 20 -7.5 35t-22 25t-36.5 15t-51 5h-179zM306 0h-276l157 630h262q43 0 77.5 -9t58.5 -26.5 t36.5 -43.5t12.5 -60q0 -35 -14.5 -64t-39 -50.5t-55.5 -34.5t-64 -18q24 -5 45.5 -15t38.5 -25t26.5 -35.5t9.5 -45.5q0 -49 -21.5 -87t-59 -64t-87.5 -39t-107 -13z"/>
<glyph glyph-name="C" horiz-adv-x="695" unicode="C" d="M77 266q0 73 26 141t73.5 121t113.5 83.5t143 30.5q53 0 96.5 -13.5t75 -38t52 -59t29.5 -77.5l-82 -33q-5 32 -19 59t-36 46.5t-52.5 30t-68.5 10.5q-59 0 -107.5 -24t-82.5 -66t-52 -96t-18 -113q0 -47 13.5 -85.5t39 -65t60 -40.5t76.5 -14q43 0 79 11.5t64.5 32.5 t49 51t32.5 66l69 -51q-20 -43 -48.5 -77t-66 -58.5t-83.5 -37t-99 -12.5q-61 0 -112 20t-88 56.5t-57 88t-20 113.5z"/>
<glyph glyph-name="D" horiz-adv-x="697" unicode="D" d="M134 71h151q70 0 125.5 22.5t94 64t58.5 98.5t20 125q0 44 -13.5 77t-40 55.5t-65.5 34t-90 11.5h-118zM30 0l157 630h205q64 0 116 -16.5t88.5 -48.5t56 -78.5t19.5 -104.5q0 -82 -27.5 -152.5t-79.5 -122t-125.5 -79.5t-163.5 -28h-246z"/>
<glyph glyph-name="E" horiz-adv-x="625" unicode="E" d="M531 74l-19 -74h-482l157 630h474l-18 -74h-389l-47 -192h294l-18 -75h-295l-53 -215h396z"/>
<glyph glyph-name="F" horiz-adv-x="595" unicode="F" d="M117 0h-87l157 630h466l-19 -74h-379l-48 -196h294l-19 -75h-294z"/>
<glyph glyph-name="G" horiz-adv-x="738" unicode="G" d="M694 456l-83 -34q-5 32 -19.5 58.5t-37 46t-53.5 30t-68 10.5q-59 0 -108.5 -24t-84.5 -66t-54 -96.5t-19 -113.5q0 -48 14.5 -86t41 -64.5t62.5 -40.5t78 -14t79.5 14t68 39.5t53 58.5t35.5 71h-231l16 66h310l-78 -311h-61l19 122q-13 -29 -36 -53.5t-53 -42.5 t-65.5 -28t-73.5 -10q-58 0 -107.5 20t-85.5 56.5t-56 88t-20 112.5q0 74 26.5 142t75.5 121t115.5 83.5t142.5 30.5q53 0 96.5 -13t76.5 -38t54 -59t30 -76z"/>
<glyph glyph-name="H" horiz-adv-x="730" unicode="H" d="M118 0h-88l157 630h88l-66 -266h386l66 266h88l-157 -630h-88l72 289h-386z"/>
<glyph glyph-name="I" horiz-adv-x="256" unicode="I" d="M187 630h88l-157 -630h-88z"/>
<glyph glyph-name="J" horiz-adv-x="551" unicode="J" d="M393 220l102 410h88l-103 -411q-14 -55 -36 -98t-52.5 -72.5t-69.5 -45t-87 -15.5q-52 0 -92.5 18.5t-64.5 53t-30 81.5q-1 11 -1 23q0 37 13 78l94 21q-16 -45 -18 -81v-8q0 -31 10 -55q12 -27 35.5 -41t56.5 -14q32 0 57 10.5t43.5 30.5t32 48.5t22.5 66.5z"/>
<glyph glyph-name="K" horiz-adv-x="659" unicode="K" d="M586 0h-98l-176 315l-143 -114l-51 -201h-88l157 630h88l-82 -328l408 330l111 -2l-331 -266z"/>
<glyph glyph-name="L" horiz-adv-x="608" unicode="L" d="M187 630h88l-138 -554h390l-19 -76h-478z"/>
<glyph glyph-name="M" horiz-adv-x="816" unicode="M" d="M377 0h-46l-78 550h-4l-137 -550h-82l157 630h135l65 -488h3l301 488h144l-157 -630h-88l137 550h-4z"/>
<glyph glyph-name="N" horiz-adv-x="698" unicode="N" d="M282 630l231 -499l124 499h80l-157 -630h-71l-247 527l-131 -527h-81l157 630h95z"/>
<glyph glyph-name="O" horiz-adv-x="741" unicode="O" d="M426 568q-57 0 -105 -24t-82.5 -66.5t-53 -98t-18.5 -117.5q0 -44 13 -81t38.5 -63.5t62.5 -41t83 -14.5q57 0 105 24t82.5 66.5t53 98t18.5 117.5q0 44 -13 81t-38.5 63.5t-62.5 41t-83 14.5zM427 642q64 0 116.5 -18.5t90.5 -54t58.5 -86.5t20.5 -115q0 -74 -25 -142.5 t-72 -122t-112 -84.5t-141 -31q-63 0 -115.5 18.5t-91 54t-59 87t-20.5 114.5q0 74 25 142.5t72 122t112 84.5t141 31z"/>
<glyph glyph-name="P" horiz-adv-x="642" unicode="P" d="M196 324h176q45 0 80 7.5t60.5 24t39 42t13.5 61.5q0 25 -8.5 43.5t-26 31t-42.5 18.5t-58 6h-176zM178 252l-63 -252h-85l157 630h258q50 0 88 -11t64 -32.5t39.5 -52.5t13.5 -71q0 -53 -20.5 -92.5t-59 -66t-92.5 -39.5t-120 -13h-180z"/>
<glyph glyph-name="Q" horiz-adv-x="741" unicode="Q" d="M426 568q-57 0 -105 -24t-82.5 -66.5t-53 -98t-18.5 -117.5q0 -44 13 -81t38.5 -63.5t62.5 -41t83 -14.5q57 0 105 24t82.5 66.5t53 98t18.5 117.5q0 44 -13 81t-38.5 63.5t-62.5 41t-83 14.5zM406 -167q-30 0 -54.5 11.5t-39.5 33t-16.5 39t-1.5 22.5q0 25 10 55 q-51 8 -93 29.5t-72 56t-46 80.5t-16 102q0 74 25 142.5t72 122t112 84.5t141 31q64 0 116.5 -18.5t90.5 -54t58.5 -86.5t20.5 -115q0 -72 -24 -138.5t-68.5 -119.5t-107 -85t-135.5 -35q-7 -20 -7.5 -36t5 -28t17.5 -18t29 -6q14 0 27.5 3t26.5 9t24.5 14t22.5 19l4 -66 q-12 -11 -26.5 -20t-30 -15t-32 -9.5t-32.5 -3.5z"/>
<glyph glyph-name="R" horiz-adv-x="666" unicode="R" d="M585 0h-98q-4 4 -7 11t-5.5 16.5t-3.5 20.5t-1 23q0 13 1.5 27t4 34t3.5 32t1 23q0 24 -6 40.5t-18 27.5t-30.5 16t-45.5 5h-195l-68 -276h-87l157 630h287q52 0 89 -11t59 -31t31.5 -47t9.5 -60q0 -38 -16 -69.5t-43 -54t-61.5 -35t-70.5 -14.5q23 -4 40 -14t27.5 -25 t16 -34.5t5.5 -43.5q0 -11 -0.5 -22.5t-2 -31t-2 -31.5t-0.5 -21q0 -15 1.5 -27t5.5 -21.5t9 -17t13 -12.5v-7zM256 557l-53 -211h188q42 0 75 7t57.5 21.5t37.5 39t13 58.5q0 19 -6.5 34.5t-21.5 27t-38.5 17.5t-57.5 6h-194z"/>
<glyph glyph-name="S" horiz-adv-x="627" unicode="S" d="M20 146l71 55q8 -32 28 -58.5t48 -45t63 -28t74 -9.5q38 0 69.5 8t54 23.5t35 37t12.5 47.5q0 19 -6.5 33t-19.5 24.5t-33 19t-49 16.5l-106 28q-35 9 -61 22t-44 31.5t-27.5 42.5t-9.5 54q0 41 18.5 77t52.5 62.5t80.5 41t101.5 14.5q46 0 86.5 -11t73 -31t55.5 -47 t35 -59l-74 -41q-9 25 -25.5 46t-40.5 37t-52.5 25t-59.5 9q-34 0 -64 -8t-52 -22.5t-34 -35.5t-12 -47q0 -20 6.5 -34t19.5 -24t31.5 -17.5t44.5 -14.5l92 -25q41 -11 71.5 -25.5t51 -33.5t30.5 -43.5t10 -54.5q0 -45 -20.5 -82t-57.5 -62.5t-84.5 -39t-100.5 -13.5 q-49 0 -94.5 11t-83.5 31.5t-65 50t-39 65.5z"/>
<glyph glyph-name="T" horiz-adv-x="683" unicode="T" d="M330 0h-88l138 554h-256l19 76h603l-19 -76h-259z"/>
<glyph glyph-name="U" horiz-adv-x="666" unicode="U" d="M308 -12q-60 0 -107.5 18t-77.5 53q-31 35 -39 86q-3 18 -2 37q0 36 10 77l92 371h86l-94 -379q-8 -32 -8 -60q0 -9 1 -19q4 -36 22 -60.5t49 -37.5t72 -13q44 0 77.5 11.5t58 34t41.5 56t29 78.5l97 389h85l-99 -396q-16 -65 -42.5 -112t-62.5 -76.5t-82.5 -43.5 t-105.5 -14z"/>
<glyph glyph-name="V" horiz-adv-x="655" unicode="V" d="M317 0h-94l-89 630h86l72 -529h4l340 529h91z"/>
<glyph glyph-name="W" horiz-adv-x="859" unicode="W" d="M572 630l4 -526h4l264 526h86l-323 -630h-103l-2 502h-4l-261 -502h-102l1 630h83l-4 -523h4l272 523h81z"/>
<glyph glyph-name="X" horiz-adv-x="648" unicode="X" d="M594 630h101l-296 -306l162 -324h-90l-131 262l-259 -262h-102l327 329l-151 301h90l119 -240z"/>
<glyph glyph-name="Y" horiz-adv-x="636" unicode="Y" d="M343 325l268 305h98l-341 -381l-62 -249h-83l62 249l-151 381h87z"/>
<glyph glyph-name="Z" horiz-adv-x="641" unicode="Z" d="M136 74h415l-18 -74h-529l15 63l528 493h-401l19 74h515l-17 -66z"/>
<glyph glyph-name="bracketleft" horiz-adv-x="314" unicode="[" d="M249 597l-154 -618h106l-16 -63h-184l185 744h185l-16 -63h-106z"/>
<glyph glyph-name="backslash" horiz-adv-x="409" unicode="\" d="M199 659l132 -742h-73l-132 742h73z"/>
<glyph glyph-name="bracketright" horiz-adv-x="313" unicode="]" d="M100 -21l154 618h-105l15 63h184l-185 -744h-184l15 63h106z"/>
<glyph glyph-name="asciicircum" horiz-adv-x="381" unicode="^" d="M250 630h79l88 -202h-77l-61 140l-131 -140h-87z"/>
<glyph glyph-name="underscore" horiz-adv-x="401" unicode="_" d="M-53 -120l15 65h341l-16 -65h-340z"/>
<glyph glyph-name="grave" d="M386 666l23 -152h-50l-61 152h88z" unicode="`"/>
<glyph glyph-name="a" horiz-adv-x="609" unicode="a" d="M381 86q-12 -21 -29 -38.5t-38.5 -31t-47.5 -21t-54 -7.5q-38 0 -68.5 13t-52 36t-32.5 55t-11 70q0 52 17.5 103t50.5 93t80.5 66.5t104.5 24.5q27 0 50.5 -8t42.5 -23t31.5 -35t17.5 -43l29 97h81l-94 -333q-3 -12 -1.5 -20.5t6 -14.5t11.5 -9t16 -3t18 1.5t17 5 t15 7.5t14 9l-6 -62q-8 -7 -17 -12.5t-19 -9t-20 -5t-21 -1.5q-21 0 -38.5 6.5t-30 19t-18.5 30.5q-5 14 -5 29q0 5 1 11zM407 197l6 24q5 23 5 44q0 10 -1 20q-4 30 -18 52.5t-37.5 35t-52.5 12.5q-39 0 -71.5 -18t-55.5 -49t-35.5 -70t-12.5 -81q0 -27 7.5 -48.5t21.5 -36 t34.5 -22t46.5 -7.5t51.5 10.5t48.5 30.5t39.5 46.5t23.5 56.5z"/>
<glyph glyph-name="b" horiz-adv-x="573" unicode="b" d="M166 240l-6 -23q-6 -23 -6 -44q0 -9 2.5 -29t17 -43t38.5 -36t55 -13q40 0 73 18t56.5 49t36 70t12.5 81q0 27 -7.5 48.5t-22 36t-35.5 22t-48 7.5q-26 0 -52.5 -10.5t-49.5 -30t-39.5 -46t-24.5 -57.5zM131 97l-38 -97h-68l157 630h82l-70 -283q12 21 30 39.5t41 32.5 t49 22t53 8q39 0 69.5 -12.5t52 -36t32 -55t10.5 -69.5q0 -52 -17.5 -103.5t-50.5 -93.5t-80.5 -66.5t-105.5 -24.5q-28 0 -52.5 8.5t-43.5 23t-32 34.5t-18 43z"/>
<glyph glyph-name="c" horiz-adv-x="510" unicode="c" d="M236 -12q-43 0 -78.5 13.5t-60.5 38t-38.5 58.5t-13.5 75q0 55 19 105t54.5 88.5t84.5 60.5t107 22q38 0 68 -10t52 -28.5t35 -43.5t18 -54l-75 -20q-3 20 -11 36t-21 27.5t-31.5 18t-41.5 6.5q-37 0 -68.5 -15.5t-55.5 -44t-37 -66.5t-13 -82q0 -27 8 -48.5t23 -37 t36.5 -23.5t48.5 -8t49 7t40 20t31 31.5t23 41.5l64 -35q-14 -30 -35 -54.5t-48.5 -42t-61 -27t-71.5 -9.5z"/>
<glyph glyph-name="d" horiz-adv-x="573" unicode="d" d="M442 341l72 289h82l-160 -630h-81l25 90q-12 -21 -30 -39.5t-41 -32.5t-49 -22t-53 -8q-39 0 -69.5 12.5t-51.5 36t-32 55.5t-11 70q0 52 17.5 103t50.5 93t80.5 66.5t105.5 24.5q28 0 52 -8t43 -23t31.5 -34.5t18.5 -42.5zM408 197l6 24q5 22 5 42q1 11 -1 22 q-4 30 -19 52.5t-38.5 35t-53.5 12.5q-40 0 -73 -18t-56.5 -49t-36 -70t-12.5 -81q0 -27 7.5 -48.5t22 -36t35.5 -22t48 -7.5q26 0 52.5 10.5t50 30.5t40 46.5t23.5 56.5z"/>
<glyph glyph-name="e" horiz-adv-x="532" unicode="e" d="M138 262h267q1 9 1 18q0 18 -4 33q-6 23 -19.5 38.5t-35.5 24t-50 8.5q-29 0 -54 -9t-45 -25t-35.5 -38.5t-24.5 -49.5zM407 142l53 -44q-15 -25 -38.5 -45.5t-52.5 -35t-61 -22t-65 -7.5q-45 0 -81.5 12.5t-62.5 37t-40 59.5t-14 78q0 54 19.5 104t55.5 88t83.5 60 t101.5 22q49 0 84 -15t56 -40.5t30 -58.5t9 -71q0 -7 -0.5 -14t-1.5 -14t-2 -14.5t-3 -13.5h-352q-2 -14 -2 -26q1 -20 5 -38q6 -28 22 -49t42 -31.5t59 -10.5q25 0 48.5 6t44 18t37 28.5t26.5 36.5z"/>
<glyph glyph-name="f" horiz-adv-x="343" unicode="f" d="M135 374h-76l15 63h76l10 38q10 38 28.5 69.5t44 53t56 33t64.5 11.5q30 0 53.5 -7t40 -19.5t26 -29.5t12.5 -37l-60 -34q-1 14 -5.5 25.5t-13 20t-21.5 13.5t-31 5q-22 0 -40 -6.5t-32 -19.5t-24 -33.5t-16 -47.5l-9 -35h122l-15 -63h-122l-94 -374h-82z"/>
<glyph glyph-name="g" horiz-adv-x="568" unicode="g" d="M363 41l15 60q-12 -19 -28.5 -35.5t-38 -28t-46 -17.5t-50.5 -6q-37 0 -68 12t-53.5 35t-35 55.5t-12.5 72.5q0 48 16.5 94.5t49 84t79 59.5t104.5 22q28 0 52 -7t43 -20.5t31.5 -31t18.5 -37.5l21 84h83l-99 -398q-13 -53 -36.5 -94t-56 -69t-74 -42t-89.5 -14 q-35 0 -67.5 8t-60.5 24t-47 40.5t-27 56.5l62 36q6 -25 19.5 -44t33 -32t41.5 -19t45 -6q35 0 63 10.5t49.5 30.5t37 49t25.5 67zM403 202l9 37q5 21 5 41q0 10 -1 18q-4 28 -18.5 48t-38.5 30.5t-55 10.5q-40 0 -72.5 -16t-54.5 -44t-33.5 -64t-11.5 -75q0 -28 8 -49.5 t23.5 -35.5t36.5 -21t46 -7q26 0 50.5 8.5t46 25t37.5 40t23 53.5z"/>
<glyph glyph-name="h" horiz-adv-x="556" unicode="h" d="M168 238l-60 -238h-83l157 630h83l-70 -280q14 21 32 39t39.5 31.5t46 21t49.5 7.5q40 0 69.5 -13.5t47 -38t21.5 -57.5q1 -10 1 -21q0 -24 -6 -50l-67 -269h-83l65 260q6 23 6 42v8q-2 22 -12 38t-28 24.5t-44 8.5q-25 0 -51 -10t-49 -28.5t-39.5 -45.5t-24.5 -59z"/>
<glyph glyph-name="i" horiz-adv-x="241" unicode="i" d="M134 437h83l-109 -437h-83zM267 630l-22 -92h-96l23 92h95z"/>
<glyph glyph-name="j" horiz-adv-x="241" unicode="j" d="M7 -71l127 508h83l-124 -497q-7 -29 -19 -51.5t-29 -37.5t-39 -23t-50 -8q-14 0 -28.5 3t-27.5 8t-24 11t-18 13l33 52q8 -7 14.5 -11t14 -7.5t16 -5.5t18.5 -2t18 3t15 9t12 15t8 21zM267 630l-22 -92h-96l23 92h95z"/>
<glyph glyph-name="k" horiz-adv-x="517" unicode="k" d="M146 156l-38 -156h-83l157 630h83l-97 -388l263 195l112 -2l-243 -177l142 -258h-89l-119 215z"/>
<glyph glyph-name="l" horiz-adv-x="241" unicode="l" d="M182 630h83l-157 -630h-83z"/>
<glyph glyph-name="m" horiz-adv-x="856" unicode="m" d="M167 238l-59 -238h-83l109 437h83l-22 -87q14 21 31.5 39t38 31.5t44 21t48.5 7.5q29 0 52.5 -7.5t40.5 -21.5t27 -33t13 -43q14 21 33 40t42 33.5t49 23t53 8.5q39 0 68 -13.5t45.5 -38t18.5 -45.5t2 -30q0 -25 -6 -53l-68 -269h-83l66 260q6 24 6 45q0 3 -0.5 15.5 t-9 28t-26 24t-43.5 8.5q-24 0 -49 -10t-47 -28t-38.5 -43.5t-24.5 -56.5l-60 -243h-83l65 260q6 24 6 45q0 3 -0.5 15.5t-9 28t-26 24t-43.5 8.5q-25 0 -50 -10t-47 -28.5t-38.5 -45.5t-24.5 -59z"/>
<glyph glyph-name="n" horiz-adv-x="556" unicode="n" d="M168 238l-60 -238h-83l109 437h83l-22 -87q14 21 32 39t39.5 31.5t46 21t49.5 7.5q40 0 69.5 -13.5t47 -38t21.5 -57.5q1 -10 1 -21q0 -24 -6 -50l-67 -269h-83l65 260q6 23 6 42v8q-2 22 -12 38t-28 24.5t-44 8.5q-25 0 -51 -10t-49 -28.5t-39.5 -45.5t-24.5 -59z"/>
<glyph glyph-name="o" horiz-adv-x="547" unicode="o" d="M300 386q-38 0 -69.5 -17t-53.5 -46.5t-33.5 -66.5t-11.5 -76q0 -30 8 -54.5t23.5 -41t37 -25t47.5 -8.5q38 0 69.5 17t53.5 46t33.5 66t11.5 77q0 30 -8 54.5t-23.5 41t-36.5 25t-48 8.5zM301 449q43 0 80 -13t64 -38t42 -61t15 -80q0 -54 -18.5 -103t-52.5 -86.5 t-81.5 -58.5t-102.5 -21q-43 0 -80 13t-64 38t-42 61t-15 80q0 54 18.5 103t52.5 86.5t81.5 58.5t102.5 21z"/>
<glyph glyph-name="p" horiz-adv-x="573" unicode="p" d="M132 96l-66 -264h-83l151 605h82l-22 -90q12 21 30 39.5t41 32.5t49 22t53 8q39 0 69.5 -12.5t52 -36t32 -55t10.5 -69.5q0 -52 -17.5 -103.5t-50.5 -93.5t-80.5 -66.5t-105.5 -24.5q-28 0 -52.5 8t-43 23t-31.5 34.5t-18 42.5zM166 240l-6 -23q-6 -23 -6 -44 q0 -9 2.5 -29t17 -43t38.5 -36t55 -13q40 0 73 18t56.5 49t36 70t12.5 81q0 27 -7.5 48.5t-22 36t-35.5 22t-48 7.5q-26 0 -52.5 -10.5t-49.5 -30t-39.5 -46t-24.5 -57.5z"/>
<glyph glyph-name="q" horiz-adv-x="572" unicode="q" d="M408 197l6 24q5 22 5 42q0 11 -3 31.5t-17.5 43t-38 35t-53.5 12.5q-40 0 -73 -18t-56.5 -49t-36 -70t-12.5 -81q0 -27 7.5 -48t22 -36t35.5 -22.5t48 -7.5q26 0 52.5 11t50 30.5t40 46t23.5 56.5zM442 341l24 96h82l-150 -605h-82l64 258q-12 -21 -30 -39.5t-41 -32.5 t-49 -22t-53 -8q-39 0 -69.5 13t-52 36t-32.5 55.5t-11 70.5q0 52 17.5 103t50.5 92.5t81 66t106 24.5q28 0 52 -8t43 -23t31.5 -34.5t18.5 -42.5z"/>
<glyph glyph-name="r" horiz-adv-x="470" unicode="r" d="M451 278l-76 -22q3 6 6 14t5 17t3.5 18t1.5 16q0 13 -3.5 23t-10.5 17t-18.5 11t-27.5 4q-26 0 -52.5 -12t-49.5 -33t-40.5 -49.5t-25.5 -59.5l-55 -222h-83l109 437h83l-26 -105q13 23 30.5 43.5t40 37t48.5 26.5t55 10q25 0 44.5 -8t32.5 -22t19.5 -32.5t6.5 -40.5 q0 -9 -1 -17t-3 -16.5t-5 -17.5t-8 -17z"/>
<glyph glyph-name="s" horiz-adv-x="486" unicode="s" d="M16 93l57 53q10 -22 26 -40t36 -30t42.5 -18.5t45.5 -6.5q24 0 44 5t35.5 14.5t23.5 22.5t8 28q0 13 -5 22t-14 15.5t-21.5 11t-31.5 10.5l-63 15q-28 7 -49.5 17.5t-36.5 24.5t-22.5 32t-7.5 41q0 30 14 55.5t39 44.5t57.5 29t68.5 10q35 0 65 -8t53 -22t40.5 -32.5 t29.5 -41.5l-57 -47q-7 18 -19 34t-28.5 28t-38 18.5t-46.5 6.5q-19 0 -37 -4.5t-32 -13t-22 -21t-8 -28.5q0 -12 4.5 -21t13 -15.5t21 -11.5t29.5 -9l70 -17q28 -7 49 -17.5t35.5 -25t22 -32t7.5 -39.5q0 -33 -15 -59.5t-41.5 -45t-61 -28t-74.5 -9.5q-36 0 -68 8t-58.5 22 t-46.5 33t-33 42z"/>
<glyph glyph-name="t" horiz-adv-x="433" unicode="t" d="M72 437h94l36 121l87 25l-42 -146h186l-17 -63h-187l-69 -230q-6 -19 -6 -35q0 -17 8 -29q7 -10 19.5 -16t28.5 -6q20 0 39 4.5t37.5 14t35.5 23.5t32 32l-1 -81q-13 -13 -30.5 -24.5t-38 -20t-43.5 -13.5t-47 -5q-34 0 -60 10.5t-42 31t-20 50.5q-1 7 0 15q0 24 8 53 l67 226h-91z"/>
<glyph glyph-name="u" horiz-adv-x="549" unicode="u" d="M385 199l59 238h83l-108 -437h-83l21 86q-14 -21 -31.5 -38.5t-38 -31t-44.5 -21t-49 -7.5q-40 0 -69 13.5t-45 37.5t-20 57q-1 9 -1 17q0 25 7 54l67 270h83l-65 -261q-6 -24 -6 -44v-6q1 -22 10 -37.5t26.5 -24t44.5 -8.5q24 0 49 10t47 28.5t38.5 45.5t24.5 59z"/>
<glyph glyph-name="v" horiz-adv-x="503" unicode="v" d="M230 0h-78l-74 437h81l53 -340h4l232 340h86z"/>
<glyph glyph-name="w" horiz-adv-x="683" unicode="w" d="M432 437l12 -332h4l185 332h81l-252 -437h-79l-12 328h-4l-184 -328h-80l-24 437h80l13 -331h4l186 331h70z"/>
<glyph glyph-name="x" horiz-adv-x="502" unicode="x" d="M514 437l-217 -211l124 -226h-85l-93 173l-176 -173h-94l237 232l-111 205h86l81 -153l154 153h94z"/>
<glyph glyph-name="y" horiz-adv-x="495" unicode="y" d="M136 -39l28 41l-85 435h83l62 -341h4l213 341h86l-304 -466q-27 -41 -44 -65t-37.5 -44t-45 -31t-53.5 -11q-24 0 -43 8t-32.5 22t-19.5 32q-6 16 -6 34v6l68 28q-2 -15 0 -27.5t7.5 -21t14 -13t18.5 -4.5q11 0 21.5 5t20.5 14.5t20 23t24 34.5z"/>
<glyph glyph-name="z" horiz-adv-x="485" unicode="z" d="M119 437h362l-15 -57l-345 -316h273l-15 -64h-377l14 57l341 316h-254z"/>
<glyph glyph-name="braceleft" horiz-adv-x="348" unicode="{" d="M47 256l16 64h33q16 0 26 3.5t16.5 12t11.5 22t11 35.5l41 166q6 25 16 43.5t24 31.5t33 19.5t43 6.5h87l-15 -63h-68q-9 0 -15.5 -2.5t-11.5 -7.5t-8.5 -11.5t-5.5 -15.5l-42 -170q-5 -22 -13 -39t-19 -29.5t-27 -21t-37 -12.5q14 -3 23.5 -8t15.5 -12.5t9 -17.5t3 -22 q0 -10 -6.5 -39.5t-19.5 -81.5l-19 -76t-6 -31q0 -5 1.5 -9t4.5 -6.5t7.5 -4t11.5 -1.5h67l-15 -63h-87q-18 0 -31.5 4t-22.5 11.5t-13.5 18.5t-4.5 26t7 45.5t21 83.5t20.5 81.5t6.5 42.5q0 7 -2 12t-6.5 8.5t-11.5 5t-17 1.5h-32z"/>
<glyph glyph-name="bar" horiz-adv-x="244" unicode="|" d="M10 -83l184 742h76l-185 -742h-75z"/>
<glyph glyph-name="braceright" horiz-adv-x="348" unicode="}" d="M340 320l-16 -64h-34q-16 0 -26 -3.5t-16.5 -12t-11.5 -22t-11 -35.5l-41 -166q-6 -25 -16 -43.5t-24 -31.5t-33 -19.5t-43 -6.5h-87l16 63h67q9 0 15.5 2.5t11.5 7.5t8.5 11.5t5.5 15.5l42 170q5 22 13 39t19 29.5t27 21t37 12.5q-14 3 -23.5 8t-15.5 12.5t-9 17.5 t-3 22q0 10 6.5 39.5t19.5 81.5l19 76t6 31q0 5 -1.5 9t-4.5 6.5t-7.5 4t-11.5 1.5h-67l15 63h87q18 0 31.5 -4t22.5 -11.5t13.5 -18.5t4.5 -26t-7 -45.5t-21 -83.5t-20.5 -81.5t-6.5 -42.5q0 -7 2 -12t6.5 -8.5t11 -5t16.5 -1.5h34z"/>
<glyph glyph-name="asciitilde" horiz-adv-x="412" unicode="~" d="M109 207h-55q7 28 18 50.5t26 39t33 25t39 8.5q19 0 32 -7.5t28.5 -23t24.5 -22t22 -6.5q10 0 18 3.5t13.5 10.5t10.5 17.5t9 24.5h55q-7 -28 -17.5 -50.5t-25.5 -39t-33 -25t-39 -8.5q-18 0 -31.5 7.5t-28.5 23t-24 22t-22 6.5q-10 0 -18 -3.5t-14 -10.5t-11 -17.5 t-10 -24.5z"/>
<glyph glyph-name="uni00A0" horiz-adv-x="500" unicode=" "/>
<glyph glyph-name="exclamdown" horiz-adv-x="232" unicode="¡" d="M78 -112h-89l44 176l93 269h40l-44 -269zM240 518l-25 -100h-100l25 100h100z"/>
<glyph glyph-name="cent" horiz-adv-x="510" unicode="¢" d="M454 121q-14 -30 -35 -54.5t-48.5 -42t-60 -27t-68.5 -9.5l-21 -86h-55l23 91q-33 7 -60 22.5t-45.5 39t-28.5 53.5t-10 65q0 54 18.5 103.5t52.5 88t82 61t104 23.5l23 93h55l-24 -97q28 -6 50 -18t38 -29t26 -38.5t14 -46.5l-71 -18q-2 15 -8 28.5t-15 24t-22 18.5 t-29 12l-80 -323q24 2 45 9.5t37.5 20.5t29.5 30.5t22 39.5zM125 173q0 -22 5.5 -40t16 -32.5t25 -25t33.5 -15.5l80 321q-35 -4 -64.5 -21t-51 -45t-33 -64.5t-11.5 -77.5z"/>
<glyph glyph-name="sterling" horiz-adv-x="634" unicode="£" d="M106 40q15 0 28.5 4.5t25.5 13.5t22 21t18 27q-10 8 -20 13.5t-20 10t-20 7t-21 2.5t-21.5 -3.5t-19 -10.5t-13.5 -17t-5 -23q0 -10 3.5 -18t10 -14t14.5 -9.5t18 -3.5zM409 -12q-24 0 -46.5 6.5t-42 18t-36.5 24t-39 31.5q-13 -18 -29 -33t-34 -25.5t-38 -16t-41 -5.5 q-23 0 -42 7t-32 19.5t-20 29.5t-7 37q0 25 9.5 45.5t26.5 35t38.5 21.5t44.5 7q14 0 27 -2t25.5 -6t24 -9.5t23.5 -12.5q2 8 3.5 16.5t2.5 17.5t1.5 17.5t0.5 17.5q0 8 -0.5 15.5t-1 14.5t-1.5 14t-3 15h-98l14 56h76q-1 9 -1.5 16t-1 15t-1 17t-0.5 18q0 46 15.5 87.5 t45.5 74.5t72.5 51.5t95.5 18.5q47 0 82.5 -13.5t59 -39t31.5 -55t8 -57.5q0 -12 -1 -24l-75 -19q2 13 2 26q0 16 -4 36t-18.5 38.5t-36.5 28.5t-50 10q-36 0 -63.5 -13t-45 -36t-26 -52t-8.5 -62v-17.5t0.5 -17t1 -16t0.5 -15.5h158l-14 -56h-141v-10t0.5 -12t0.5 -12v-10 q0 -16 -1.5 -31.5t-5 -31t-8 -30t-10.5 -28.5q21 -15 35.5 -25t31 -18t33.5 -13t35 -5q24 0 43.5 8t34 24t24 40.5t15.5 57.5l68 -21q-8 -46 -25 -81t-41 -57.5t-54.5 -33.5t-66.5 -11z"/>
<glyph glyph-name="yen" horiz-adv-x="612" unicode="¥" d="M498 141h-169l-35 -141h-83l35 141h-173l14 55h173l18 71l-2 4h-169l13 55h134l-123 304h87l116 -289l253 289h101l-275 -304h132l-14 -55h-167l-4 -4l-18 -71h170z"/>
<glyph glyph-name="section" horiz-adv-x="473" unicode="§" d="M194 -95q-33 0 -64 8t-56.5 23t-44.5 36.5t-29 48.5l59 30q8 -20 21.5 -35.5t32 -26.5t40.5 -17t47 -6q19 0 35.5 4.5t29.5 14t20.5 24.5t7.5 35q0 8 -2 15.5t-6.5 14.5t-12 13.5t-18.5 13.5l-113 69q-21 13 -36.5 25.5t-26.5 26.5t-17 31t-6 37q0 23 7 44t20 39.5t31 32 t40 22.5q-5 7 -9.5 14.5t-7.5 15.5t-4.5 17t-1.5 19q0 32 13 59t37.5 47t57 31t69.5 11q34 0 63.5 -8.5t54 -24.5t42.5 -38.5t29 -50.5l-58 -31q-8 22 -21 39t-30 28.5t-38.5 18t-47.5 6.5q-19 0 -35.5 -4.5t-29.5 -14.5t-20.5 -24.5t-7.5 -34.5q0 -9 2 -16t6.5 -14 t12 -13.5t18.5 -13.5l113 -69q21 -13 36.5 -26t26.5 -27.5t17 -31t6 -36.5q0 -23 -7 -44t-20 -39.5t-31 -32t-40 -22.5q5 -7 9.5 -14.5t7.5 -15.5t4.5 -17t1.5 -19q0 -31 -13 -58t-37.5 -47t-57 -31t-69.5 -11zM189 231l109 -70q15 4 27.5 10.5t22.5 16.5t15.5 23.5 t5.5 30.5q0 12 -4 21.5t-11 18.5t-17 17t-25 17l-109 70q-15 -4 -27.5 -10.5t-22.5 -16.5t-15.5 -24t-5.5 -31q0 -11 4 -21t11 -18.5t17 -16.5t25 -17z"/>
<glyph glyph-name="dieresis" d="M221 532l22 91h80l-23 -91h-79zM377 532l23 91h79l-22 -91h-80z" unicode="¨"/>
<glyph glyph-name="copyright" horiz-adv-x="761" unicode="©" d="M215 314q0 43 14.5 80t40.5 63.5t60.5 41t74.5 14.5q34 0 62 -8t49.5 -23t36.5 -36.5t23 -47.5l-58 -26q-5 18 -14.5 32.5t-23.5 25.5t-32.5 17t-40.5 6q-26 0 -48 -9.5t-38 -28t-24.5 -44t-8.5 -57.5q0 -31 8.5 -56.5t24.5 -43.5t38 -27.5t48 -9.5q23 0 42.5 6.5 t33.5 19t23.5 29t13.5 36.5l59 -28q-8 -28 -23 -51t-36.5 -39.5t-50.5 -25.5t-64 -9q-40 0 -74.5 14.5t-60.5 41t-40.5 63.5t-14.5 80zM125 315q0 -60 21.5 -111.5t60 -89.5t90 -59t108.5 -21t108 21t90 59t60.5 89.5t21.5 111.5t-21.5 111.5t-60.5 89.5t-90 59t-108 21 t-108.5 -21t-90 -59t-60 -89.5t-21.5 -111.5zM78 315q0 70 25.5 130t70.5 104.5t104.5 68.5t126.5 24t126.5 -24t104.5 -68.5t70.5 -104.5t25.5 -130t-25.5 -130t-70.5 -104.5t-104.5 -68.5t-126.5 -24t-126.5 24t-104.5 68.5t-70.5 104.5t-25.5 130z"/>
<glyph glyph-name="ordfeminine" horiz-adv-x="455" unicode="ª" d="M380 237l-13 -53h-284l13 53h284zM334 388q-8 -14 -19.5 -26t-26.5 -21t-32 -14t-36 -5q-26 0 -47 9t-35.5 25t-22 38.5t-7.5 48.5q0 36 12 71t34.5 63t54.5 44.5t71 16.5q18 0 33.5 -5t28.5 -14.5t21.5 -22.5t12.5 -28l18 62h70l-62 -223q-2 -8 -1.5 -13.5t3.5 -9.5 t8 -6t11 -2t12 1t12 3.5t11 5.5t9 6l-7 -49q-6 -5 -13 -9t-14.5 -6.5t-15.5 -3.5t-16 -1q-15 0 -27.5 4.5t-21.5 13t-13.5 20.5t-4.5 27zM351 466l4 15q3 14 3 27q0 7 -1.5 19.5t-10.5 26.5t-23.5 22t-32.5 8q-24 0 -44.5 -11t-35 -30t-22.5 -43.5t-8 -51.5q0 -17 4.5 -30.5 t14 -22.5t22.5 -14t29 -5t32 6.5t30 19t24 29t15 35.5z"/>
<glyph glyph-name="guillemotleft" horiz-adv-x="469" unicode="«" d="M47 184l18 69l190 139l-23 -94l-119 -87l85 -88l-19 -78zM239 184l18 69l190 139l-23 -94l-119 -87l85 -88l-19 -78z"/>
<glyph glyph-name="registered" d="M421 316h-53q-2 3 -4 7t-3.5 9t-3 12t-2.5 16q-1 10 -3.5 17.5t-6.5 12t-10.5 7t-15.5 2.5h-47v-83h-49v225h104q22 0 38 -4.5t26.5 -13.5t16 -21.5t5.5 -28.5q0 -12 -5 -21.5t-14 -17t-20.5 -11.5t-23.5 -5q11 -2 20 -5.5t15.5 -9.5t11 -13.5t5.5 -17.5q2 -12 4 -21.5 t4.5 -16t5 -10.5t5.5 -8zM272 438h46q12 0 20 1.5t13.5 5.5t8.5 10t3 15q0 8 -3 14t-8.5 10t-14 6t-19.5 2h-46v-64zM487 426q0 39 -13.5 72t-37.5 57.5t-56 37.5t-68 13t-68 -13t-56 -37.5t-37.5 -57.5t-13.5 -72q0 -38 13.5 -71t37.5 -57t56 -37t68 -13t68 13t56 37 t37.5 57t13.5 71zM527 426q0 -46 -16.5 -85.5t-46.5 -68.5t-69 -45t-83 -16t-83 16t-68.5 45t-46 68.5t-16.5 85.5t16.5 86t46 69t68.5 45t83 16t83 -16t69 -45t46.5 -69t16.5 -86z" unicode="®"/>
<glyph glyph-name="macron" d="M212 531l14 59h260l-14 -59h-260z" unicode="¯"/>
<glyph glyph-name="degree" horiz-adv-x="339" unicode="°" d="M213 425q19 0 35 6.5t27.5 18.5t18 28t6.5 35q0 15 -5 28.5t-14.5 23.5t-22.5 15.5t-30 5.5q-18 0 -34 -6.5t-28 -18.5t-18.5 -28.5t-6.5 -34.5q0 -15 5 -28.5t14.5 -23.5t22.5 -15.5t30 -5.5zM212 369q-29 0 -53 9.5t-41 26.5t-26.5 40.5t-9.5 50.5q0 30 11 57t31 47 t47 31t59 11q28 0 52 -9.5t41.5 -26.5t27 -40.5t9.5 -50.5q0 -30 -11 -57t-31 -47t-47.5 -31t-58.5 -11z"/>
<glyph glyph-name="plusminus" horiz-adv-x="618" unicode="±" d="M6 39l19 70h512l-19 -70h-512zM596 350h-220l-47 -187h-70l47 187h-222l18 69h221l47 187h70l-47 -187h220z"/>
<glyph glyph-name="twosuperior" horiz-adv-x="394" unicode="²" d="M182 298h187l-14 -59h-296l10 45l148 103l74 51q-3 -2 12 12q17 16 27 34t10 39q0 13 -4 23.5t-12 18t-20.5 11.5t-27.5 4q-19 0 -35 -7.5t-28 -21.5t-18.5 -33.5t-6.5 -42.5l-68 14q3 33 15 60.5t33 47.5t50 31t63 11q31 0 55.5 -8.5t40.5 -23.5t24.5 -35t8.5 -43 q0 -29 -10.5 -52t-28.5 -42.5t-39 -34.5t-58 -40z"/>
<glyph glyph-name="threesuperior" horiz-adv-x="395" unicode="³" d="M308 361q0 11 -3.5 20t-11.5 15.5t-20 10t-28 3.5q-5 0 -9.5 -0.5t-8.5 -0.5t-10 -1t-9 -1l14 56q2 0 7 -1t9 -1t9 -0.5t11 -0.5q15 0 30.5 4t28 12.5t20 22t7.5 31.5q0 11 -4 20.5t-12.5 16.5t-20.5 11t-27 4q-17 0 -31.5 -4.5t-26.5 -14t-20.5 -23.5t-13.5 -32l-64 16 q9 27 23.5 48t35 36t46 23t55.5 8q31 0 55.5 -7.5t40.5 -21.5t24 -32t8 -40q0 -23 -8.5 -41t-22.5 -30.5t-31 -20.5t-35 -11q14 -4 26 -11t20.5 -17t13 -22.5t4.5 -25.5q0 -31 -12.5 -54.5t-34 -40t-49.5 -24.5t-59 -8q-37 0 -65.5 9.5t-46.5 27t-26 41.5q-6 17 -6 36 q0 7 1 15l66 7q-1 -7 -1 -14q0 -10 2 -19q4 -15 15 -25.5t26.5 -16t34.5 -5.5q18 0 33.5 4.5t27 13.5t17.5 23t6 32z"/>
<glyph glyph-name="acute" d="M452 666l-138 -152h-59l97 152h100z" unicode="´"/>
<glyph glyph-name="paragraph" horiz-adv-x="547" unicode="¶" d="M183 -86l90 360q-39 0 -72.5 11.5t-57 32.5t-36.5 49t-13 60q0 48 18.5 86t52.5 64t81.5 39.5t104.5 13.5h215l-178 -716h-66l162 652h-73l-163 -652h-65z"/>
<glyph glyph-name="periodcentered" horiz-adv-x="202" unicode="·" d="M45 205l27 106h106l-27 -106h-106z"/>
<glyph glyph-name="cedilla" horiz-adv-x="592" unicode="¸" d="M318 -114q0 -24 -11 -42.5t-29 -29.5t-40 -16.5t-43 -5.5q-20 0 -37.5 4.5t-32 11t-25 14.5t-17.5 16l33 39q6 -8 14 -16t18 -13.5t21.5 -9t23.5 -3.5q13 0 25 3t20.5 8.5t13 13.5t4.5 18q0 12 -7.5 19t-19.5 9t-26.5 0t-27.5 -8l-19 14l85 99h40l-61 -70q11 2 22 2 l16 -1q16 -2 30 -9t22 -19t8 -28z"/>
<glyph glyph-name="onesuperior" horiz-adv-x="298" unicode="¹" d="M219 239h-70l71 285h-102l13 50h28q24 0 40.5 3t28.5 10t21 18t18 28h50z"/>
<glyph glyph-name="ordmasculine" horiz-adv-x="410" unicode="º" d="M339 184h-284l14 53h284zM288 588q-25 0 -44.5 -11t-32.5 -30t-20 -43t-7 -48q0 -19 4.5 -34t14 -25t22.5 -15.5t29 -5.5q25 0 44.5 11t32.5 30t20 42.5t7 47.5q0 19 -4.5 34.5t-14 25.5t-22.5 15.5t-29 5.5zM290 640q30 0 56 -9t44.5 -26.5t29 -42.5t10.5 -55 q0 -38 -13 -71t-36.5 -58.5t-56 -39.5t-71.5 -14q-31 0 -56.5 9t-44.5 26.5t-29.5 42.5t-10.5 55q0 38 13 71t36.5 58.5t56.5 39.5t72 14z"/>
<glyph glyph-name="guillemotright" horiz-adv-x="469" unicode="»" d="M231 252l-18 -69l-190 -139l23 94l119 87l-85 88l19 78zM423 252l-18 -69l-190 -139l23 94l119 87l-85 88l19 78z"/>
<glyph glyph-name="onequarter" horiz-adv-x="885" unicode="¼" d="M730 334l-189 -177h145zM812 393l-59 -236h70l-15 -58h-69l-25 -98h-67l24 98h-204l17 68l241 226h87zM750 630l-564 -630h-72l564 630h72zM219 239h-70l71 285h-102l13 50h28q24 0 40.5 3t28.5 10t21 18t18 28h50z"/>
<glyph glyph-name="onehalf" horiz-adv-x="912" unicode="½" d="M632 60h187l-14 -59h-296l11 44l147 104l74 51q-3 -2 12 12q17 16 27 34t10 39q0 13 -4 23.5t-12 18t-20 11.5t-27 4q-20 0 -36 -7.5t-27.5 -21.5t-18 -33.5t-7.5 -42.5l-68 14q3 33 15 60.5t33 47.5t50 31t63 11q31 0 55.5 -8.5t40.5 -23.5t24.5 -35t8.5 -43 q0 -29 -10.5 -52.5t-28.5 -42.5t-39 -34.5t-58 -40.5zM219 239h-70l71 285h-102l13 50h28q24 0 40.5 3t28.5 10t21 18t18 28h50zM750 630l-564 -630h-72l564 630h72z"/>
<glyph glyph-name="threequarters" horiz-adv-x="974" unicode="¾" d="M820 334l-189 -177h145zM902 393l-59 -236h70l-15 -58h-69l-25 -98h-67l24 98h-204l17 68l241 226h87zM306 361q0 11 -3.5 20t-11.5 15.5t-20 10t-28 3.5q-5 0 -9.5 -0.5t-8.5 -0.5t-10 -1t-9 -1l14 56q2 0 7 -1t9 -1t9 -0.5t11 -0.5q15 0 30.5 4t28 12.5t20 22t7.5 31.5 q0 11 -4 20.5t-12.5 16.5t-20.5 11t-27 4q-17 0 -31.5 -4.5t-26.5 -14t-20.5 -23.5t-13.5 -32l-64 16q9 27 23.5 48t35 36t46 23t55.5 8q31 0 55.5 -7.5t40.5 -21.5t24 -32t8 -40q0 -23 -8.5 -41t-22.5 -30.5t-31 -20.5t-35 -11q14 -4 26 -11t20.5 -17t13 -22.5t4.5 -25.5 q0 -31 -12.5 -54.5t-34 -40t-49.5 -24.5t-59 -8q-37 0 -65.5 9.5t-46.5 27t-26 41.5q-6 17 -6 36q0 7 1 15l66 7q-1 -7 -1 -14q0 -10 2 -19q4 -15 15 -25.5t26.5 -16t34.5 -5.5q18 0 33.5 4.5t27 13.5t17.5 23t6 32zM849 630l-564 -630h-72l564 630h72z"/>
<glyph glyph-name="questiondown" horiz-adv-x="513" unicode="¿" d="M258 340h80q-6 -24 -16 -43.5t-25 -36t-35.5 -32t-49.5 -33.5q-43 -26 -56.5 -35t-30 -25t-26.5 -37.5t-10 -50.5q0 -22 7.5 -40.5t21.5 -32t35 -21t48 -7.5q35 0 63.5 13.5t48.5 37t31 55.5t12 69l85 -19q-5 -53 -25 -95t-52.5 -71.5t-75 -44.5t-92.5 -15 q-48 0 -85 12.5t-61 35.5t-36 53.5t-12 65.5q0 38 13 68.5t35.5 54t49.5 41.5t63 38q23 13 38.5 24t27 22t18.5 23t11 26zM386 518l-23 -98h-100l23 98h100z"/>
<glyph glyph-name="Agrave" horiz-adv-x="668" unicode="À" d="M496 0l-28 185h-283l-118 -185h-90l410 630h95l102 -630h-88zM410 537l-181 -283h228l-43 283h-4zM483 704h-55l-65 126h97z"/>
<glyph glyph-name="Aacute" horiz-adv-x="668" unicode="Á" d="M496 0l-28 185h-283l-118 -185h-90l410 630h95l102 -630h-88zM410 537l-181 -283h228l-43 283h-4zM484 704h-62l85 126h106z"/>
<glyph glyph-name="Acircumflex" horiz-adv-x="668" unicode="Â" d="M496 0l-28 185h-283l-118 -185h-90l410 630h95l102 -630h-88zM410 537l-181 -283h228l-43 283h-4zM424 830h96l51 -126h-56l-51 76l-89 -76h-65z"/>
<glyph glyph-name="Atilde" horiz-adv-x="668" unicode="Ã" d="M496 0l-28 185h-283l-118 -185h-90l410 630h95l102 -630h-88zM410 537l-181 -283h228l-43 283h-4zM347 704h-53q7 27 18 50t25.5 40t32.5 26.5t38 9.5q18 0 32 -9t30.5 -26t26 -24.5t21.5 -7.5q10 0 18.5 5t15 13.5t11.5 20t10 25.5h53q-7 -27 -17.5 -50t-25 -40 t-32.5 -26.5t-38 -9.5q-18 0 -32 8.5t-30.5 25.5t-25.5 24.5t-22 7.5q-10 0 -18.5 -5t-15.5 -13.5t-12.5 -19.5t-9.5 -25z"/>
<glyph glyph-name="Adieresis" horiz-adv-x="668" unicode="Ä" d="M496 0l-28 185h-283l-118 -185h-90l410 630h95l102 -630h-88zM410 537l-181 -283h228l-43 283h-4zM485 708l22 91h80l-23 -91h-79zM328 708l23 91h79l-22 -91h-80z"/>
<glyph glyph-name="Aring" horiz-adv-x="668" unicode="Å" d="M496 0l-28 185h-283l-118 -185h-90l410 630h95l102 -630h-88zM410 537l-181 -283h228l-43 283h-4zM469 828q-13 0 -23 -4t-17 -11.5t-10.5 -18t-3.5 -23.5q0 -9 3 -17t9.5 -14t15.5 -9.5t20 -3.5q12 0 22 4t17 11.5t10.5 18t3.5 23.5q0 9 -3 17t-9 14t-15 9.5t-20 3.5z M471 871q21 0 38 -6.5t29 -18t18.5 -27.5t6.5 -34q0 -21 -7.5 -39.5t-21.5 -32.5t-33 -21.5t-41 -7.5q-21 0 -38 6.5t-29 18t-18.5 27.5t-6.5 34q0 22 7.5 40.5t21 32t32.5 21t42 7.5z"/>
<glyph glyph-name="AE" horiz-adv-x="1035" unicode="Æ" d="M441 0l46 184h-248l-165 -184h-97l569 630h525l-19 -74h-388l-48 -192h295l-18 -75h-295l-54 -215h397l-19 -74h-481zM581 565l-279 -311h202z"/>
<glyph glyph-name="Ccedilla" horiz-adv-x="695" unicode="Ç" d="M389 -114q0 -24 -11 -42.5t-29 -29.5t-40 -16.5t-43 -5.5q-20 0 -37.5 4.5t-32 11t-25 14.5t-17.5 16l33 39q6 -8 14 -16t18 -13.5t21.5 -9t23.5 -3.5q13 0 25 3t20.5 8.5t13 13.5t4.5 18q0 12 -7.5 19t-19.5 9t-26.5 0t-27.5 -8l-19 14l69 81q-28 5 -54 15 q-51 20 -88 56.5t-57 88t-20 113.5q0 73 26 141t73.5 121t113.5 83.5t143 30.5q53 0 96.5 -13.5t75 -38t52 -59t29.5 -77.5l-82 -33q-5 32 -19 59t-36 46.5t-52.5 30t-68.5 10.5q-59 0 -107.5 -24t-82.5 -66t-52 -96t-18 -113q0 -47 13.5 -85.5t39 -65t60 -40.5t76.5 -14 q43 0 79 11.5t64.5 32.5t49 51t32.5 66l69 -51q-20 -43 -48.5 -77t-66 -58.5t-83.5 -37t-99 -12.5q-11 0 -22 1l-41 -48q11 2 22 2l16 -1q16 -2 30 -9t22 -19t8 -28z"/>
<glyph glyph-name="Egrave" horiz-adv-x="625" unicode="È" d="M472 704h-55l-65 126h97zM531 74l-19 -74h-482l157 630h474l-18 -74h-389l-47 -192h294l-18 -75h-295l-53 -215h396z"/>
<glyph glyph-name="Eacute" horiz-adv-x="625" unicode="É" d="M473 704h-62l85 126h106zM531 74l-19 -74h-482l157 630h474l-18 -74h-389l-47 -192h294l-18 -75h-295l-53 -215h396z"/>
<glyph glyph-name="Ecircumflex" horiz-adv-x="625" unicode="Ê" d="M531 74l-19 -74h-482l157 630h474l-18 -74h-389l-47 -192h294l-18 -75h-295l-53 -215h396zM419 830h96l51 -126h-56l-51 76l-89 -76h-65z"/>
<glyph glyph-name="Edieresis" horiz-adv-x="625" unicode="Ë" d="M482 708l22 91h80l-23 -91h-79zM325 708l23 91h79l-22 -91h-80zM531 74l-19 -74h-482l157 630h474l-18 -74h-389l-47 -192h294l-18 -75h-295l-53 -215h396z"/>
<glyph glyph-name="Igrave" horiz-adv-x="256" unicode="Ì" d="M187 630h88l-157 -630h-88zM279 704h-55l-65 126h97z"/>
<glyph glyph-name="Iacute" horiz-adv-x="256" unicode="Í" d="M187 630h88l-157 -630h-88zM280 704h-62l85 126h106z"/>
<glyph glyph-name="Icircumflex" horiz-adv-x="256" unicode="Î" d="M187 630h88l-157 -630h-88zM226 830h96l51 -126h-56l-51 76l-89 -76h-65z"/>
<glyph glyph-name="Idieresis" horiz-adv-x="256" unicode="Ï" d="M187 630h88l-157 -630h-88zM289 708l22 91h80l-23 -91h-79zM132 708l23 91h79l-22 -91h-80z"/>
<glyph glyph-name="Eth" horiz-adv-x="714" unicode="Ð" d="M151 71h151q70 0 125.5 22.5t94 64t58.5 98.5t20 125q0 44 -13.5 77t-40 55.5t-65.5 34t-90 11.5h-118l-49 -195h154l-17 -70h-154zM293 0h-246l73 294h-76l17 70h77l66 266h205q64 0 116 -16.5t88.5 -48.5t56 -78.5t19.5 -104.5q0 -82 -27.5 -152.5t-79.5 -122 t-125.5 -79.5t-163.5 -28z"/>
<glyph glyph-name="Ntilde" horiz-adv-x="698" unicode="Ñ" d="M364 704h-53q7 27 18 50t25.5 40t32.5 26.5t38 9.5q18 0 32 -9t30.5 -26t26 -24.5t21.5 -7.5q10 0 18.5 5t15 13.5t11.5 20t10 25.5h53q-7 -27 -17.5 -50t-25 -40t-32.5 -26.5t-38 -9.5q-18 0 -32 8.5t-30.5 25.5t-25.5 24.5t-22 7.5q-10 0 -18.5 -5t-15.5 -13.5 t-12.5 -19.5t-9.5 -25zM282 630l231 -499l124 499h80l-157 -630h-71l-247 527l-131 -527h-81l157 630h95z"/>
<glyph glyph-name="Ograve" horiz-adv-x="741" unicode="Ò" d="M508 704h-55l-65 126h97zM426 568q-57 0 -105 -24t-82.5 -66.5t-53 -98t-18.5 -117.5q0 -44 13 -81t38.5 -63.5t62.5 -41t83 -14.5q57 0 105 24t82.5 66.5t53 98t18.5 117.5q0 44 -13 81t-38.5 63.5t-62.5 41t-83 14.5zM427 642q64 0 116.5 -18.5t90.5 -54t58.5 -86.5 t20.5 -115q0 -74 -25 -142.5t-72 -122t-112 -84.5t-141 -31q-63 0 -115.5 18.5t-91 54t-59 87t-20.5 114.5q0 74 25 142.5t72 122t112 84.5t141 31z"/>
<glyph glyph-name="Oacute" horiz-adv-x="741" unicode="Ó" d="M509 704h-62l85 126h106zM426 568q-57 0 -105 -24t-82.5 -66.5t-53 -98t-18.5 -117.5q0 -44 13 -81t38.5 -63.5t62.5 -41t83 -14.5q57 0 105 24t82.5 66.5t53 98t18.5 117.5q0 44 -13 81t-38.5 63.5t-62.5 41t-83 14.5zM427 642q64 0 116.5 -18.5t90.5 -54t58.5 -86.5 t20.5 -115q0 -74 -25 -142.5t-72 -122t-112 -84.5t-141 -31q-63 0 -115.5 18.5t-91 54t-59 87t-20.5 114.5q0 74 25 142.5t72 122t112 84.5t141 31z"/>
<glyph glyph-name="Ocircumflex" horiz-adv-x="741" unicode="Ô" d="M426 568q-57 0 -105 -24t-82.5 -66.5t-53 -98t-18.5 -117.5q0 -44 13 -81t38.5 -63.5t62.5 -41t83 -14.5q57 0 105 24t82.5 66.5t53 98t18.5 117.5q0 44 -13 81t-38.5 63.5t-62.5 41t-83 14.5zM427 642q64 0 116.5 -18.5t90.5 -54t58.5 -86.5t20.5 -115q0 -74 -25 -142.5 t-72 -122t-112 -84.5t-141 -31q-63 0 -115.5 18.5t-91 54t-59 87t-20.5 114.5q0 74 25 142.5t72 122t112 84.5t141 31zM450 830h96l51 -126h-56l-51 76l-89 -76h-65z"/>
<glyph glyph-name="Otilde" horiz-adv-x="741" unicode="Õ" d="M373 704h-53q7 27 18 50t25.5 40t32.5 26.5t38 9.5q18 0 32 -9t30.5 -26t26 -24.5t21.5 -7.5q10 0 18.5 5t15 13.5t11.5 20t10 25.5h53q-7 -27 -17.5 -50t-25 -40t-32.5 -26.5t-38 -9.5q-18 0 -32 8.5t-30.5 25.5t-25.5 24.5t-22 7.5q-10 0 -18.5 -5t-15.5 -13.5 t-12.5 -19.5t-9.5 -25zM426 568q-57 0 -105 -24t-82.5 -66.5t-53 -98t-18.5 -117.5q0 -44 13 -81t38.5 -63.5t62.5 -41t83 -14.5q57 0 105 24t82.5 66.5t53 98t18.5 117.5q0 44 -13 81t-38.5 63.5t-62.5 41t-83 14.5zM427 642q64 0 116.5 -18.5t90.5 -54t58.5 -86.5 t20.5 -115q0 -74 -25 -142.5t-72 -122t-112 -84.5t-141 -31q-63 0 -115.5 18.5t-91 54t-59 87t-20.5 114.5q0 74 25 142.5t72 122t112 84.5t141 31z"/>
<glyph glyph-name="Odieresis" horiz-adv-x="741" unicode="Ö" d="M511 708l22 91h80l-23 -91h-79zM354 708l23 91h79l-22 -91h-80zM426 568q-57 0 -105 -24t-82.5 -66.5t-53 -98t-18.5 -117.5q0 -44 13 -81t38.5 -63.5t62.5 -41t83 -14.5q57 0 105 24t82.5 66.5t53 98t18.5 117.5q0 44 -13 81t-38.5 63.5t-62.5 41t-83 14.5zM427 642 q64 0 116.5 -18.5t90.5 -54t58.5 -86.5t20.5 -115q0 -74 -25 -142.5t-72 -122t-112 -84.5t-141 -31q-63 0 -115.5 18.5t-91 54t-59 87t-20.5 114.5q0 74 25 142.5t72 122t112 84.5t141 31z"/>
<glyph glyph-name="multiply" horiz-adv-x="529" unicode="×" d="M73 97l-38 48l206 165l-122 161l54 43l120 -162l207 166l38 -48l-210 -168l122 -162l-54 -43l-119 162z"/>
<glyph glyph-name="Oslash" horiz-adv-x="741" unicode="Ø" d="M363 -12q-31 0 -59 4.5t-54 13t-48 21.5t-41 30l-91 -86l-41 38l95 89q-11 17 -20 35.5t-15 39t-9 43t-3 46.5q0 74 25 142.5t72 122t112 84.5t141 31q31 0 59.5 -4.5t54.5 -13t48 -21.5t41 -30l72 68l41 -37l-77 -72q11 -17 20 -35.5t15 -39t9 -43t3 -46.5 q0 -74 -25 -142.5t-72 -122t-112 -84.5t-141 -31zM364 62q57 0 105 24t82.5 66.5t53 98t18.5 117.5q0 14 -1.5 27.5t-4.5 26.5t-7 25t-9 23l-379 -356q13 -12 28.5 -22t33 -16.5t38 -10t42.5 -3.5zM167 262q0 -14 1.5 -28t4.5 -26.5t7 -24.5t9 -23l379 355q-12 13 -27.5 23 t-33 16.5t-38 10t-43.5 3.5q-57 0 -105 -24t-82.5 -66.5t-53 -98t-18.5 -117.5z"/>
<glyph glyph-name="Ugrave" horiz-adv-x="666" unicode="Ù" d="M478 704h-55l-65 126h97zM302 -12q-60 0 -107.5 18t-77.5 53q-31 35 -39 86q-3 18 -2 37q0 36 10 77l92 371h86l-94 -379q-8 -32 -8 -60q0 -9 1 -19q4 -36 22 -60.5t49 -37.5t72 -13q44 0 77.5 11.5t58 34t41.5 56t29 78.5l97 389h85l-99 -396q-16 -65 -42.5 -112 t-62.5 -76.5t-82.5 -43.5t-105.5 -14z"/>
<glyph glyph-name="Uacute" horiz-adv-x="666" unicode="Ú" d="M479 704h-62l85 126h106zM302 -12q-60 0 -107.5 18t-77.5 53q-31 35 -39 86q-3 18 -2 37q0 36 10 77l92 371h86l-94 -379q-8 -32 -8 -60q0 -9 1 -19q4 -36 22 -60.5t49 -37.5t72 -13q44 0 77.5 11.5t58 34t41.5 56t29 78.5l97 389h85l-99 -396q-16 -65 -42.5 -112 t-62.5 -76.5t-82.5 -43.5t-105.5 -14z"/>
<glyph glyph-name="Ucircumflex" horiz-adv-x="666" unicode="Û" d="M302 -12q-60 0 -107.5 18t-77.5 53q-31 35 -39 86q-3 18 -2 37q0 36 10 77l92 371h86l-94 -379q-8 -32 -8 -60q0 -9 1 -19q4 -36 22 -60.5t49 -37.5t72 -13q44 0 77.5 11.5t58 34t41.5 56t29 78.5l97 389h85l-99 -396q-16 -65 -42.5 -112t-62.5 -76.5t-82.5 -43.5 t-105.5 -14zM425 830h96l51 -126h-56l-51 76l-89 -76h-65z"/>
<glyph glyph-name="Udieresis" horiz-adv-x="666" unicode="Ü" d="M487 708l22 91h80l-23 -91h-79zM330 708l23 91h79l-22 -91h-80zM302 -12q-60 0 -107.5 18t-77.5 53q-31 35 -39 86q-3 18 -2 37q0 36 10 77l92 371h86l-94 -379q-8 -32 -8 -60q0 -9 1 -19q4 -36 22 -60.5t49 -37.5t72 -13q44 0 77.5 11.5t58 34t41.5 56t29 78.5l97 389 h85l-99 -396q-16 -65 -42.5 -112t-62.5 -76.5t-82.5 -43.5t-105.5 -14z"/>
<glyph glyph-name="Yacute" horiz-adv-x="636" unicode="Ý" d="M343 325l268 305h98l-341 -381l-62 -249h-83l62 249l-151 381h87zM470 704h-62l85 126h106z"/>
<glyph glyph-name="Thorn" horiz-adv-x="642" unicode="Þ" d="M166 204h176q45 0 80.5 7.5t61 24t39 42t13.5 60.5q0 25 -9 44t-26 31.5t-42 18.5t-58 6h-177zM148 132l-33 -132h-85l157 630h85l-30 -120h174q49 0 87 -11t64 -32.5t39.5 -52.5t13.5 -71q0 -53 -20.5 -92.5t-59 -66t-92.5 -39.5t-120 -13h-180z"/>
<glyph glyph-name="germandbls" horiz-adv-x="560" unicode="ß" d="M536 506q0 -31 -10.5 -58t-30 -48t-44.5 -34t-54 -17q21 -5 40.5 -16t34.5 -28t24 -40.5t9 -53.5q0 -48 -17.5 -88.5t-48.5 -69t-70.5 -43.5t-81.5 -15q-15 0 -30 2.5t-27.5 6.5t-22.5 8.5t-17 9.5l25 64q9 -6 16 -9.5t16 -7.5t19 -6t21 -2q31 0 56.5 11t43.5 31.5 t27.5 47t9.5 57.5q0 26 -8.5 46t-23.5 34t-35.5 21t-44.5 7h-12.5h-8t-8 -0.5t-10.5 -0.5l16 67q4 -1 8.5 -1.5t8.5 -0.5h8h12q27 0 50 7.5t40.5 22.5t27.5 38.5t10 53.5q0 17 -6 31.5t-17.5 25t-28 16t-36.5 5.5q-26 0 -49 -8t-42 -25t-33 -42t-22 -58l-112 -447h-83 l113 452q10 43 31 78t51.5 60t68.5 38.5t82 13.5q36 0 66.5 -9t52.5 -27t34 -43t12 -57z"/>
<glyph glyph-name="agrave" horiz-adv-x="609" unicode="à" d="M381 86q-12 -21 -29 -38.5t-38.5 -31t-47.5 -21t-54 -7.5q-38 0 -68.5 13t-52 36t-32.5 55t-11 70q0 52 17.5 103t50.5 93t80.5 66.5t104.5 24.5q27 0 50.5 -8t42.5 -23t31.5 -35t17.5 -43l29 97h81l-94 -333q-3 -12 -1.5 -20.5t6 -14.5t11.5 -9t16 -3t18 1.5t17 5 t15 7.5t14 9l-6 -62q-8 -7 -17 -12.5t-19 -9t-20 -5t-21 -1.5q-21 0 -38.5 6.5t-30 19t-18.5 30.5q-5 14 -5 29q0 5 1 11zM407 197l6 24q5 23 5 44q0 10 -1 20q-4 30 -18 52.5t-37.5 35t-52.5 12.5q-39 0 -71.5 -18t-55.5 -49t-35.5 -70t-12.5 -81q0 -27 7.5 -48.5t21.5 -36 t34.5 -22t46.5 -7.5t51.5 10.5t48.5 30.5t39.5 46.5t23.5 56.5zM361 666l23 -152h-50l-61 152h88z"/>
<glyph glyph-name="aacute" horiz-adv-x="609" unicode="á" d="M381 86q-12 -21 -29 -38.5t-38.5 -31t-47.5 -21t-54 -7.5q-38 0 -68.5 13t-52 36t-32.5 55t-11 70q0 52 17.5 103t50.5 93t80.5 66.5t104.5 24.5q27 0 50.5 -8t42.5 -23t31.5 -35t17.5 -43l29 97h81l-94 -333q-3 -12 -1.5 -20.5t6 -14.5t11.5 -9t16 -3t18 1.5t17 5 t15 7.5t14 9l-6 -62q-8 -7 -17 -12.5t-19 -9t-20 -5t-21 -1.5q-21 0 -38.5 6.5t-30 19t-18.5 30.5q-5 14 -5 29q0 5 1 11zM407 197l6 24q5 23 5 44q0 10 -1 20q-4 30 -18 52.5t-37.5 35t-52.5 12.5q-39 0 -71.5 -18t-55.5 -49t-35.5 -70t-12.5 -81q0 -27 7.5 -48.5t21.5 -36 t34.5 -22t46.5 -7.5t51.5 10.5t48.5 30.5t39.5 46.5t23.5 56.5zM516 666l-138 -152h-59l97 152h100z"/>
<glyph glyph-name="acircumflex" horiz-adv-x="609" unicode="â" d="M381 86q-12 -21 -29 -38.5t-38.5 -31t-47.5 -21t-54 -7.5q-38 0 -68.5 13t-52 36t-32.5 55t-11 70q0 52 17.5 103t50.5 93t80.5 66.5t104.5 24.5q27 0 50.5 -8t42.5 -23t31.5 -35t17.5 -43l29 97h81l-94 -333q-3 -12 -1.5 -20.5t6 -14.5t11.5 -9t16 -3t18 1.5t17 5 t15 7.5t14 9l-6 -62q-8 -7 -17 -12.5t-19 -9t-20 -5t-21 -1.5q-21 0 -38.5 6.5t-30 19t-18.5 30.5q-5 14 -5 29q0 5 1 11zM407 197l6 24q5 23 5 44q0 10 -1 20q-4 30 -18 52.5t-37.5 35t-52.5 12.5q-39 0 -71.5 -18t-55.5 -49t-35.5 -70t-12.5 -81q0 -27 7.5 -48.5t21.5 -36 t34.5 -22t46.5 -7.5t51.5 10.5t48.5 30.5t39.5 46.5t23.5 56.5zM349 660h87l49 -146h-54l-47 96l-93 -96h-64z"/>
<glyph glyph-name="atilde" horiz-adv-x="609" unicode="ã" d="M381 86q-12 -21 -29 -38.5t-38.5 -31t-47.5 -21t-54 -7.5q-38 0 -68.5 13t-52 36t-32.5 55t-11 70q0 52 17.5 103t50.5 93t80.5 66.5t104.5 24.5q27 0 50.5 -8t42.5 -23t31.5 -35t17.5 -43l29 97h81l-94 -333q-3 -12 -1.5 -20.5t6 -14.5t11.5 -9t16 -3t18 1.5t17 5 t15 7.5t14 9l-6 -62q-8 -7 -17 -12.5t-19 -9t-20 -5t-21 -1.5q-21 0 -38.5 6.5t-30 19t-18.5 30.5q-5 14 -5 29q0 5 1 11zM407 197l6 24q5 23 5 44q0 10 -1 20q-4 30 -18 52.5t-37.5 35t-52.5 12.5q-39 0 -71.5 -18t-55.5 -49t-35.5 -70t-12.5 -81q0 -27 7.5 -48.5t21.5 -36 t34.5 -22t46.5 -7.5t51.5 10.5t48.5 30.5t39.5 46.5t23.5 56.5zM256 520h-53q7 28 18 51t25.5 40t32.5 26.5t39 9.5q18 0 31.5 -8.5t30 -26t26 -25t22.5 -7.5q10 0 18 5t14.5 13.5t12 20t9.5 25.5h53q-7 -28 -17.5 -51t-25 -40t-32 -26.5t-38.5 -9.5q-18 0 -31.5 9t-30 26 t-26 24.5t-22.5 7.5q-10 0 -18.5 -5t-15.5 -13.5t-12.5 -20t-9.5 -25.5z"/>
<glyph glyph-name="adieresis" horiz-adv-x="609" unicode="ä" d="M381 86q-12 -21 -29 -38.5t-38.5 -31t-47.5 -21t-54 -7.5q-38 0 -68.5 13t-52 36t-32.5 55t-11 70q0 52 17.5 103t50.5 93t80.5 66.5t104.5 24.5q27 0 50.5 -8t42.5 -23t31.5 -35t17.5 -43l29 97h81l-94 -333q-3 -12 -1.5 -20.5t6 -14.5t11.5 -9t16 -3t18 1.5t17 5 t15 7.5t14 9l-6 -62q-8 -7 -17 -12.5t-19 -9t-20 -5t-21 -1.5q-21 0 -38.5 6.5t-30 19t-18.5 30.5q-5 14 -5 29q0 5 1 11zM407 197l6 24q5 23 5 44q0 10 -1 20q-4 30 -18 52.5t-37.5 35t-52.5 12.5q-39 0 -71.5 -18t-55.5 -49t-35.5 -70t-12.5 -81q0 -27 7.5 -48.5t21.5 -36 t34.5 -22t46.5 -7.5t51.5 10.5t48.5 30.5t39.5 46.5t23.5 56.5zM247 532l22 91h80l-23 -91h-79zM403 532l23 91h79l-22 -91h-80z"/>
<glyph glyph-name="aring" horiz-adv-x="609" unicode="å" d="M381 86q-12 -21 -29 -38.5t-38.5 -31t-47.5 -21t-54 -7.5q-38 0 -68.5 13t-52 36t-32.5 55t-11 70q0 52 17.5 103t50.5 93t80.5 66.5t104.5 24.5q27 0 50.5 -8t42.5 -23t31.5 -35t17.5 -43l29 97h81l-94 -333q-3 -12 -1.5 -20.5t6 -14.5t11.5 -9t16 -3t18 1.5t17 5 t15 7.5t14 9l-6 -62q-8 -7 -17 -12.5t-19 -9t-20 -5t-21 -1.5q-21 0 -38.5 6.5t-30 19t-18.5 30.5q-5 14 -5 29q0 5 1 11zM407 197l6 24q5 23 5 44q0 10 -1 20q-4 30 -18 52.5t-37.5 35t-52.5 12.5q-39 0 -71.5 -18t-55.5 -49t-35.5 -70t-12.5 -81q0 -27 7.5 -48.5t21.5 -36 t34.5 -22t46.5 -7.5t51.5 10.5t48.5 30.5t39.5 46.5t23.5 56.5zM382 646q-12 0 -22 -4t-17 -11.5t-10.5 -18t-3.5 -23.5q0 -9 3 -17t9 -14t15 -9.5t20 -3.5q13 0 23 4t17 11.5t10.5 18t3.5 23.5q0 9 -3 17t-9.5 14t-15.5 9.5t-20 3.5zM385 690q21 0 38 -6.5t29 -18.5 t18.5 -28t6.5 -34q0 -21 -7.5 -39.5t-21.5 -32.5t-33 -21.5t-41 -7.5q-21 0 -38 6.5t-29 18t-18.5 27.5t-6.5 34q0 22 7.5 40.5t21 32.5t33 21.5t41.5 7.5z"/>
<glyph glyph-name="ae" horiz-adv-x="822" unicode="æ" d="M333 175l9 37l-108 -9q-32 -2 -56.5 -8t-42.5 -16.5t-27.5 -26.5t-9.5 -39q0 -13 4.5 -23.5t12.5 -18.5t20.5 -12t28.5 -4q28 0 55.5 9.5t51 26.5t40 39t22.5 45zM428 262h266q1 10 1 19q1 17 -3 32q-6 23 -20 38.5t-35.5 24t-49.5 8.5q-29 0 -54 -9t-45 -25t-35.5 -38.5 t-24.5 -49.5zM534 -12q-33 0 -61.5 8t-51 22.5t-38.5 36t-26 47.5q-14 -21 -35 -41t-47.5 -35.5t-58.5 -25t-67 -9.5q-29 0 -54 8.5t-43 24t-27.5 36.5t-9.5 45q0 35 15.5 61.5t44.5 45.5t69 30t89 14l122 10q2 6 3.5 12.5l3 13t2 13t0.5 13.5q0 14 -4 25.5t-12.5 21 t-22 14.5t-31.5 5q-23 0 -44.5 -5.5t-39.5 -15.5t-32.5 -23.5t-24.5 -30.5l-67 28q18 26 40 47t48 35.5t57 22t66 7.5q24 0 44 -5.5t35.5 -15.5t26 -23.5t16.5 -29.5q17 17 37 30.5t42.5 23.5t47 15t49.5 5q49 0 84 -15t55.5 -40.5t30 -58.5t9.5 -71q0 -7 -0.5 -14t-1.5 -14 t-2 -14.5t-3 -13.5h-352q-2 -14 -2 -28q0 -20 4 -36q6 -28 22.5 -49t42.5 -31.5t59 -10.5q25 0 48.5 6t44 18t37 28.5t26.5 36.5l53 -44q-15 -25 -38.5 -45.5t-52.5 -35t-60.5 -22t-64.5 -7.5z"/>
<glyph glyph-name="ccedilla" horiz-adv-x="510" unicode="ç" d="M300 -114q0 -24 -11 -42.5t-29 -29.5t-40 -16.5t-43 -5.5q-20 0 -37.5 4.5t-32 11t-25 14.5t-17.5 16l33 39q6 -8 14 -16t18 -13.5t21.5 -9t23.5 -3.5q13 0 25 3t20.5 8.5t13 13.5t4.5 18q0 12 -7.5 19t-19.5 9t-26.5 0t-27.5 -8l-19 14l66 78q-25 3 -47 11 q-35 14 -60 38.5t-38.5 58.5t-13.5 75q0 55 19 105t54.5 88.5t84.5 60.5t107 22q38 0 68 -10t52 -28.5t35 -43.5t18 -54l-75 -20q-3 20 -11 36t-21 27.5t-31.5 18t-41.5 6.5q-37 0 -68.5 -15.5t-55.5 -44t-37 -66.5t-13 -82q0 -27 8 -48.5t23 -37t36.5 -23.5t48.5 -8t49 7 t40 20t31 31.5t23 41.5l64 -35q-14 -30 -35 -54.5t-48.5 -42t-61.5 -26.5q-30 -9 -64 -10l-41 -47q11 2 22 2l16 -1q16 -2 30 -9t22 -19t8 -28z"/>
<glyph glyph-name="egrave" horiz-adv-x="532" unicode="è" d="M138 262h267q1 9 1 18q0 18 -4 33q-6 23 -19.5 38.5t-35.5 24t-50 8.5q-29 0 -54 -9t-45 -25t-35.5 -38.5t-24.5 -49.5zM407 142l53 -44q-15 -25 -38.5 -45.5t-52.5 -35t-61 -22t-65 -7.5q-45 0 -81.5 12.5t-62.5 37t-40 59.5t-14 78q0 54 19.5 104t55.5 88t83.5 60 t101.5 22q49 0 84 -15t56 -40.5t30 -58.5t9 -71q0 -7 -0.5 -14t-1.5 -14t-2 -14.5t-3 -13.5h-352q-2 -14 -2 -26q1 -20 5 -38q6 -28 22 -49t42 -31.5t59 -10.5q25 0 48.5 6t44 18t37 28.5t26.5 36.5zM333 666l23 -152h-50l-61 152h88z"/>
<glyph glyph-name="eacute" horiz-adv-x="532" unicode="é" d="M488 666l-138 -152h-59l97 152h100zM138 262h267q1 9 1 18q0 18 -4 33q-6 23 -19.5 38.5t-35.5 24t-50 8.5q-29 0 -54 -9t-45 -25t-35.5 -38.5t-24.5 -49.5zM407 142l53 -44q-15 -25 -38.5 -45.5t-52.5 -35t-61 -22t-65 -7.5q-45 0 -81.5 12.5t-62.5 37t-40 59.5t-14 78 q0 54 19.5 104t55.5 88t83.5 60t101.5 22q49 0 84 -15t56 -40.5t30 -58.5t9 -71q0 -7 -0.5 -14t-1.5 -14t-2 -14.5t-3 -13.5h-352q-2 -14 -2 -26q1 -20 5 -38q6 -28 22 -49t42 -31.5t59 -10.5q25 0 48.5 6t44 18t37 28.5t26.5 36.5z"/>
<glyph glyph-name="ecircumflex" horiz-adv-x="532" unicode="ê" d="M320 660h87l49 -146h-54l-47 96l-93 -96h-64zM138 262h267q1 9 1 18q0 18 -4 33q-6 23 -19.5 38.5t-35.5 24t-50 8.5q-29 0 -54 -9t-45 -25t-35.5 -38.5t-24.5 -49.5zM407 142l53 -44q-15 -25 -38.5 -45.5t-52.5 -35t-61 -22t-65 -7.5q-45 0 -81.5 12.5t-62.5 37 t-40 59.5t-14 78q0 54 19.5 104t55.5 88t83.5 60t101.5 22q49 0 84 -15t56 -40.5t30 -58.5t9 -71q0 -7 -0.5 -14t-1.5 -14t-2 -14.5t-3 -13.5h-352q-2 -14 -2 -26q1 -20 5 -38q6 -28 22 -49t42 -31.5t59 -10.5q25 0 48.5 6t44 18t37 28.5t26.5 36.5z"/>
<glyph glyph-name="edieresis" horiz-adv-x="532" unicode="ë" d="M218 532l22 91h80l-23 -91h-79zM374 532l23 91h79l-22 -91h-80zM138 262h267q1 9 1 18q0 18 -4 33q-6 23 -19.5 38.5t-35.5 24t-50 8.5q-29 0 -54 -9t-45 -25t-35.5 -38.5t-24.5 -49.5zM407 142l53 -44q-15 -25 -38.5 -45.5t-52.5 -35t-61 -22t-65 -7.5q-45 0 -81.5 12.5 t-62.5 37t-40 59.5t-14 78q0 54 19.5 104t55.5 88t83.5 60t101.5 22q49 0 84 -15t56 -40.5t30 -58.5t9 -71q0 -7 -0.5 -14t-1.5 -14t-2 -14.5t-3 -13.5h-352q-2 -14 -2 -26q1 -20 5 -38q6 -28 22 -49t42 -31.5t59 -10.5q25 0 48.5 6t44 18t37 28.5t26.5 36.5z"/>
<glyph glyph-name="igrave" horiz-adv-x="241" unicode="ì" d="M134 437h83l-109 -437h-83zM197 666l23 -152h-50l-61 152h88z"/>
<glyph glyph-name="iacute" horiz-adv-x="241" unicode="í" d="M352 666l-138 -152h-59l97 152h100zM134 437h83l-109 -437h-83z"/>
<glyph glyph-name="icircumflex" horiz-adv-x="241" unicode="î" d="M185 660h87l49 -146h-54l-47 96l-93 -96h-64zM134 437h83l-109 -437h-83z"/>
<glyph glyph-name="idieresis" horiz-adv-x="241" unicode="ï" d="M82 532l22 91h80l-23 -91h-79zM238 532l23 91h79l-22 -91h-80zM134 437h83l-109 -437h-83z"/>
<glyph glyph-name="eth" horiz-adv-x="545" unicode="ð" d="M248 51q39 0 70 16t53 44t33.5 64t11.5 75q0 30 -8 53t-23.5 39t-37 24.5t-48.5 8.5q-39 0 -70 -16t-53 -44t-33.5 -63.5t-11.5 -74.5q0 -30 8 -53.5t23.5 -39.5t37 -24.5t48.5 -8.5zM246 -12q-44 0 -81 13t-63.5 38t-41 60.5t-14.5 79.5q0 52 17.5 98.5t49.5 82t75 55.5 t93 20q20 0 39 -4t37 -12.5t34 -22.5t28 -33q-6 19 -15.5 38t-22 38t-28 38t-34.5 37l-127 -47l-20 43l106 39q-10 8 -20.5 15.5t-21 14.5t-22 14t-23.5 13l52 40q16 -9 30 -17t27 -17t25.5 -18t23.5 -19l82 30l21 -42l-64 -24q29 -30 50 -62t35 -66t21 -69.5t7 -72.5 q0 -60 -18.5 -111.5t-52.5 -89.5t-81 -59t-103 -21z"/>
<glyph glyph-name="ntilde" horiz-adv-x="556" unicode="ñ" d="M168 238l-60 -238h-83l109 437h83l-22 -87q14 21 32 39t39.5 31.5t46 21t49.5 7.5q40 0 69.5 -13.5t47 -38t21.5 -57.5q1 -10 1 -21q0 -24 -6 -50l-67 -269h-83l65 260q6 23 6 42v8q-2 22 -12 38t-28 24.5t-44 8.5q-25 0 -51 -10t-49 -28.5t-39.5 -45.5t-24.5 -59z M242 520h-53q7 28 18 51t25.5 40t32.5 26.5t39 9.5q18 0 31.5 -8.5t30 -26t26 -25t22.5 -7.5q10 0 18 5t14.5 13.5t12 20t9.5 25.5h53q-7 -28 -17.5 -51t-25 -40t-32 -26.5t-38.5 -9.5q-18 0 -31.5 9t-30 26t-26 24.5t-22.5 7.5q-10 0 -18.5 -5t-15.5 -13.5t-12.5 -20 t-9.5 -25.5z"/>
<glyph glyph-name="ograve" horiz-adv-x="547" unicode="ò" d="M300 386q-38 0 -69.5 -17t-53.5 -46.5t-33.5 -66.5t-11.5 -76q0 -30 8 -54.5t23.5 -41t37 -25t47.5 -8.5q38 0 69.5 17t53.5 46t33.5 66t11.5 77q0 30 -8 54.5t-23.5 41t-36.5 25t-48 8.5zM301 449q43 0 80 -13t64 -38t42 -61t15 -80q0 -54 -18.5 -103t-52.5 -86.5 t-81.5 -58.5t-102.5 -21q-43 0 -80 13t-64 38t-42 61t-15 80q0 54 18.5 103t52.5 86.5t81.5 58.5t102.5 21zM344 666l23 -152h-50l-61 152h88z"/>
<glyph glyph-name="oacute" horiz-adv-x="547" unicode="ó" d="M500 666l-138 -152h-59l97 152h100zM300 386q-38 0 -69.5 -17t-53.5 -46.5t-33.5 -66.5t-11.5 -76q0 -30 8 -54.5t23.5 -41t37 -25t47.5 -8.5q38 0 69.5 17t53.5 46t33.5 66t11.5 77q0 30 -8 54.5t-23.5 41t-36.5 25t-48 8.5zM301 449q43 0 80 -13t64 -38t42 -61t15 -80 q0 -54 -18.5 -103t-52.5 -86.5t-81.5 -58.5t-102.5 -21q-43 0 -80 13t-64 38t-42 61t-15 80q0 54 18.5 103t52.5 86.5t81.5 58.5t102.5 21z"/>
<glyph glyph-name="ocircumflex" horiz-adv-x="547" unicode="ô" d="M324 660h87l49 -146h-54l-47 96l-93 -96h-64zM300 386q-38 0 -69.5 -17t-53.5 -46.5t-33.5 -66.5t-11.5 -76q0 -30 8 -54.5t23.5 -41t37 -25t47.5 -8.5q38 0 69.5 17t53.5 46t33.5 66t11.5 77q0 30 -8 54.5t-23.5 41t-36.5 25t-48 8.5zM301 449q43 0 80 -13t64 -38 t42 -61t15 -80q0 -54 -18.5 -103t-52.5 -86.5t-81.5 -58.5t-102.5 -21q-43 0 -80 13t-64 38t-42 61t-15 80q0 54 18.5 103t52.5 86.5t81.5 58.5t102.5 21z"/>
<glyph glyph-name="otilde" horiz-adv-x="547" unicode="õ" d="M300 386q-38 0 -69.5 -17t-53.5 -46.5t-33.5 -66.5t-11.5 -76q0 -30 8 -54.5t23.5 -41t37 -25t47.5 -8.5q38 0 69.5 17t53.5 46t33.5 66t11.5 77q0 30 -8 54.5t-23.5 41t-36.5 25t-48 8.5zM301 449q43 0 80 -13t64 -38t42 -61t15 -80q0 -54 -18.5 -103t-52.5 -86.5 t-81.5 -58.5t-102.5 -21q-43 0 -80 13t-64 38t-42 61t-15 80q0 54 18.5 103t52.5 86.5t81.5 58.5t102.5 21zM237 520h-53q7 28 18 51t25.5 40t32.5 26.5t39 9.5q18 0 31.5 -8.5t30 -26t26 -25t22.5 -7.5q10 0 18 5t14.5 13.5t12 20t9.5 25.5h53q-7 -28 -17.5 -51t-25 -40 t-32 -26.5t-38.5 -9.5q-18 0 -31.5 9t-30 26t-26 24.5t-22.5 7.5q-10 0 -18.5 -5t-15.5 -13.5t-12.5 -20t-9.5 -25.5z"/>
<glyph glyph-name="odieresis" horiz-adv-x="547" unicode="ö" d="M229 532l22 91h80l-23 -91h-79zM385 532l23 91h79l-22 -91h-80zM300 386q-38 0 -69.5 -17t-53.5 -46.5t-33.5 -66.5t-11.5 -76q0 -30 8 -54.5t23.5 -41t37 -25t47.5 -8.5q38 0 69.5 17t53.5 46t33.5 66t11.5 77q0 30 -8 54.5t-23.5 41t-36.5 25t-48 8.5zM301 449 q43 0 80 -13t64 -38t42 -61t15 -80q0 -54 -18.5 -103t-52.5 -86.5t-81.5 -58.5t-102.5 -21q-43 0 -80 13t-64 38t-42 61t-15 80q0 54 18.5 103t52.5 86.5t81.5 58.5t102.5 21z"/>
<glyph glyph-name="divide" horiz-adv-x="618" unicode="÷" d="M213 53l25 101h104l-26 -101h-103zM65 277l17 70h511l-17 -70h-511zM317 469l26 102h103l-26 -102h-103z"/>
<glyph glyph-name="oslash" horiz-adv-x="547" unicode="ø" d="M247 -12q-20 0 -38.5 3t-35.5 8t-32 13.5t-28 18.5l-71 -67l-36 33l73 69q-8 12 -14 25t-10.5 27t-6.5 29.5t-2 32.5q0 54 18.5 103t52.5 86.5t81.5 58.5t102.5 21q20 0 38.5 -3t35.5 -8t32.5 -13.5t28.5 -18.5l66 62l37 -33l-69 -66q8 -11 13.5 -24t10 -27t6.5 -29.5 t2 -31.5q0 -54 -18.5 -103t-52.5 -86.5t-81.5 -58.5t-102.5 -21zM248 49q39 0 71 17t54.5 46.5t34 67.5t11.5 78q0 8 -0.5 15t-1.5 14t-2.5 13.5t-3.5 12.5l-247 -233q8 -8 17.5 -13.5t20 -9.5t22 -6t24.5 -2zM129 179q0 -8 0.5 -15.5t1.5 -14.5t3 -14t4 -13l246 234 q-7 8 -16.5 14t-20 10t-22.5 6t-25 2q-39 0 -71 -17t-54.5 -47t-34 -67.5t-11.5 -77.5z"/>
<glyph glyph-name="ugrave" horiz-adv-x="549" unicode="ù" d="M382 199l59 238h83l-108 -437h-83l21 86q-14 -21 -31.5 -38.5t-38 -31t-44.5 -21t-49 -7.5q-40 0 -69 13.5t-45 37.5t-20 57q-1 9 -1 17q0 25 7 54l67 270h83l-65 -261q-6 -24 -6 -44v-6q1 -22 10 -37.5t26.5 -24t44.5 -8.5q24 0 49 10t47 28.5t38.5 45.5t24.5 59z M344 666l23 -152h-50l-61 152h88z"/>
<glyph glyph-name="uacute" horiz-adv-x="549" unicode="ú" d="M500 666l-138 -152h-59l97 152h100zM382 199l59 238h83l-108 -437h-83l21 86q-14 -21 -31.5 -38.5t-38 -31t-44.5 -21t-49 -7.5q-40 0 -69 13.5t-45 37.5t-20 57q-1 9 -1 17q0 25 7 54l67 270h83l-65 -261q-6 -24 -6 -44v-6q1 -22 10 -37.5t26.5 -24t44.5 -8.5 q24 0 49 10t47 28.5t38.5 45.5t24.5 59z"/>
<glyph glyph-name="ucircumflex" horiz-adv-x="549" unicode="û" d="M332 660h87l49 -146h-54l-47 96l-93 -96h-64zM382 199l59 238h83l-108 -437h-83l21 86q-14 -21 -31.5 -38.5t-38 -31t-44.5 -21t-49 -7.5q-40 0 -69 13.5t-45 37.5t-20 57q-1 9 -1 17q0 25 7 54l67 270h83l-65 -261q-6 -24 -6 -44v-6q1 -22 10 -37.5t26.5 -24t44.5 -8.5 q24 0 49 10t47 28.5t38.5 45.5t24.5 59z"/>
<glyph glyph-name="udieresis" horiz-adv-x="549" unicode="ü" d="M229 532l22 91h80l-23 -91h-79zM385 532l23 91h79l-22 -91h-80zM382 199l59 238h83l-108 -437h-83l21 86q-14 -21 -31.5 -38.5t-38 -31t-44.5 -21t-49 -7.5q-40 0 -69 13.5t-45 37.5t-20 57q-1 9 -1 17q0 25 7 54l67 270h83l-65 -261q-6 -24 -6 -44v-6q1 -22 10 -37.5 t26.5 -24t44.5 -8.5q24 0 49 10t47 28.5t38.5 45.5t24.5 59z"/>
<glyph glyph-name="yacute" horiz-adv-x="495" unicode="ý" d="M135 -39l28 41l-85 435h83l62 -341h4l213 341h86l-304 -466q-27 -41 -44 -65t-37.5 -44t-45 -31t-53.5 -11q-24 0 -43 8t-32.5 22t-19.5 32q-6 16 -6 34v6l68 28q-2 -15 0 -27.5t7.5 -21t14 -13t18.5 -4.5q11 0 21.5 5t20.5 14.5t20 23t24 34.5zM482 666l-138 -152h-59 l97 152h100z"/>
<glyph glyph-name="thorn" horiz-adv-x="573" unicode="þ" d="M132 96l-66 -264h-83l199 798h82l-70 -283q12 21 30 39.5t41 32.5t49 22t53 8q39 0 69.5 -12.5t52 -36t32 -55t10.5 -69.5q0 -52 -17.5 -103.5t-50.5 -93.5t-80.5 -66.5t-105.5 -24.5q-28 0 -52.5 8t-43 23t-31.5 34.5t-18 42.5zM166 240l-6 -23q-6 -23 -6 -44 q0 -9 2.5 -29t17 -43t38.5 -36t55 -13q40 0 73 18t56.5 49t36 70t12.5 81q0 27 -7.5 48.5t-22 36t-35.5 22t-48 7.5q-26 0 -52.5 -10.5t-49.5 -30t-39.5 -46t-24.5 -57.5z"/>
<glyph glyph-name="ydieresis" horiz-adv-x="495" unicode="ÿ" d="M135 -39l28 41l-85 435h83l62 -341h4l213 341h86l-304 -466q-27 -41 -44 -65t-37.5 -44t-45 -31t-53.5 -11q-24 0 -43 8t-32.5 22t-19.5 32q-6 16 -6 34v6l68 28q-2 -15 0 -27.5t7.5 -21t14 -13t18.5 -4.5q11 0 21.5 5t20.5 14.5t20 23t24 34.5zM212 532l22 91h80 l-23 -91h-79zM368 532l23 91h79l-22 -91h-80z"/>
<glyph glyph-name="Amacron" horiz-adv-x="668" unicode="Ā" d="M496 0l-28 185h-283l-118 -185h-90l410 630h95l102 -630h-88zM410 537l-181 -283h228l-43 283h-4zM318 709l14 60h263l-15 -60h-262z"/>
<glyph glyph-name="amacron" horiz-adv-x="609" unicode="ā" d="M381 86q-12 -21 -29 -38.5t-38.5 -31t-47.5 -21t-54 -7.5q-38 0 -68.5 13t-52 36t-32.5 55t-11 70q0 52 17.5 103t50.5 93t80.5 66.5t104.5 24.5q27 0 50.5 -8t42.5 -23t31.5 -35t17.5 -43l29 97h81l-94 -333q-3 -12 -1.5 -20.5t6 -14.5t11.5 -9t16 -3t18 1.5t17 5 t15 7.5t14 9l-6 -62q-8 -7 -17 -12.5t-19 -9t-20 -5t-21 -1.5q-21 0 -38.5 6.5t-30 19t-18.5 30.5q-5 14 -5 29q0 5 1 11zM407 197l6 24q5 23 5 44q0 10 -1 20q-4 30 -18 52.5t-37.5 35t-52.5 12.5q-39 0 -71.5 -18t-55.5 -49t-35.5 -70t-12.5 -81q0 -27 7.5 -48.5t21.5 -36 t34.5 -22t46.5 -7.5t51.5 10.5t48.5 30.5t39.5 46.5t23.5 56.5zM234 531l14 59h260l-14 -59h-260z"/>
<glyph glyph-name="Abreve" horiz-adv-x="668" unicode="Ă" d="M496 0l-28 185h-283l-118 -185h-90l410 630h95l102 -630h-88zM410 537l-181 -283h228l-43 283h-4zM445 701q-28 0 -47 8t-30 24q-10 16 -12 40q0 4 -1 8q0 21 7 48h54q-4 -17 -4.5 -30t4.5 -22.5t15 -14.5t26 -5t28.5 5t22 14.5t16.5 22.5t11 30h59q-8 -32 -22 -56 t-33 -40t-42.5 -24t-51.5 -8z"/>
<glyph glyph-name="abreve" horiz-adv-x="609" unicode="ă" d="M381 86q-12 -21 -29 -38.5t-38.5 -31t-47.5 -21t-54 -7.5q-38 0 -68.5 13t-52 36t-32.5 55t-11 70q0 52 17.5 103t50.5 93t80.5 66.5t104.5 24.5q27 0 50.5 -8t42.5 -23t31.5 -35t17.5 -43l29 97h81l-94 -333q-3 -12 -1.5 -20.5t6 -14.5t11.5 -9t16 -3t18 1.5t17 5 t15 7.5t14 9l-6 -62q-8 -7 -17 -12.5t-19 -9t-20 -5t-21 -1.5q-21 0 -38.5 6.5t-30 19t-18.5 30.5q-5 14 -5 29q0 5 1 11zM407 197l6 24q5 23 5 44q0 10 -1 20q-4 30 -18 52.5t-37.5 35t-52.5 12.5q-39 0 -71.5 -18t-55.5 -49t-35.5 -70t-12.5 -81q0 -27 7.5 -48.5t21.5 -36 t34.5 -22t46.5 -7.5t51.5 10.5t48.5 30.5t39.5 46.5t23.5 56.5zM361 504q-27 0 -47 10.5t-31 30t-13 46.5v11q0 22 6 48h53q-5 -20 -5 -36.5t5 -28.5t15.5 -18.5t26.5 -6.5t30 6.5t25 18.5t19.5 28.5t13.5 36.5h58q-8 -32 -23 -59t-36 -46.5t-45.5 -30t-51.5 -10.5z"/>
<glyph glyph-name="Aogonek" horiz-adv-x="668" unicode="Ą" d="M410 537l-181 -283h228l-43 283h-4zM185 185l-118 -185h-90l410 630h95l102 -630h-42q-19 -15 -33 -26q-20 -17 -33 -30t-19.5 -24.5t-6.5 -22.5q0 -5 2 -9.5t6 -7.5t9.5 -4.5t13.5 -1.5q7 0 14 1.5t14 4t14.5 5.5t15.5 7l-9 -45q-9 -6 -18 -10t-18.5 -7.5t-21 -5.5 t-23.5 -2q-15 0 -27 3.5t-20.5 10t-13 16.5t-4.5 22q0 20 9.5 38t25.5 34.5t35 30.5q16 12 41 28l-27 180h-283z"/>
<glyph glyph-name="aogonek" horiz-adv-x="609" unicode="ą" d="M407 197l6 24q5 23 5 44q0 10 -2.5 30t-16.5 42.5t-37.5 35t-52.5 12.5q-39 0 -71.5 -18t-55.5 -49t-35.5 -70t-12.5 -81q0 -27 7.5 -48.5t21.5 -36t34.5 -22t46.5 -7.5t51.5 10.5t48.5 30.5t39.5 46.5t23.5 56.5zM381 86q-12 -21 -29 -38.5t-38.5 -31t-47.5 -21 t-54 -7.5q-38 0 -68.5 13t-52 36t-32.5 55t-11 70q0 52 17.5 103t50.5 93t80.5 66.5t104.5 24.5q27 0 50.5 -8t42.5 -23t31.5 -35t17.5 -43l29 97h81l-94 -333q-3 -12 -1.5 -20.5t6 -14.5t11.5 -9t16 -3t18 1.5t17 5t15 7.5t14 9l-6 -62q-8 -7 -17 -12.5t-19 -8.5 q-2 -1 -4 -1q-15 -12 -27 -22q-20 -17 -33 -30t-19.5 -24.5t-6.5 -22.5q0 -5 2 -9.5t6 -7.5t9.5 -4.5t13.5 -1.5q7 0 14 1.5t14 4t14.5 5.5t15.5 7l-9 -45q-9 -6 -18 -10t-18.5 -7.5t-21 -5.5t-23.5 -2q-15 0 -27 3.5t-20.5 10t-13 16.5t-4.5 22q0 20 9.5 38t25.5 34.5 t35 30.5q10 7 22 15q-8 2 -16 5q-17 6 -29.5 18.5t-18 28.5t-5.5 31q0 5 1 11z"/>
<glyph glyph-name="Cacute" horiz-adv-x="695" unicode="Ć" d="M77 266q0 73 26 141t73.5 121t113.5 83.5t143 30.5q53 0 96.5 -13.5t75 -38t52 -59t29.5 -77.5l-82 -33q-5 32 -19 59t-36 46.5t-52.5 30t-68.5 10.5q-59 0 -107.5 -24t-82.5 -66t-52 -96t-18 -113q0 -47 13.5 -85.5t39 -65t60 -40.5t76.5 -14q43 0 79 11.5t64.5 32.5 t49 51t32.5 66l69 -51q-20 -43 -48.5 -77t-66 -58.5t-83.5 -37t-99 -12.5q-61 0 -112 20t-88 56.5t-57 88t-20 113.5zM509 704h-62l85 126h106z"/>
<glyph glyph-name="cacute" horiz-adv-x="510" unicode="ć" d="M498 666l-138 -152h-59l97 152h100zM236 -12q-43 0 -78.5 13.5t-60.5 38t-38.5 58.5t-13.5 75q0 55 19 105t54.5 88.5t84.5 60.5t107 22q38 0 68 -10t52 -28.5t35 -43.5t18 -54l-75 -20q-3 20 -11 36t-21 27.5t-31.5 18t-41.5 6.5q-37 0 -68.5 -15.5t-55.5 -44t-37 -66.5 t-13 -82q0 -27 8 -48.5t23 -37t36.5 -23.5t48.5 -8t49 7t40 20t31 31.5t23 41.5l64 -35q-14 -30 -35 -54.5t-48.5 -42t-61 -27t-71.5 -9.5z"/>
<glyph glyph-name="Ccircumflex" horiz-adv-x="695" unicode="Ĉ" d="M77 266q0 73 26 141t73.5 121t113.5 83.5t143 30.5q53 0 96.5 -13.5t75 -38t52 -59t29.5 -77.5l-82 -33q-5 32 -19 59t-36 46.5t-52.5 30t-68.5 10.5q-59 0 -107.5 -24t-82.5 -66t-52 -96t-18 -113q0 -47 13.5 -85.5t39 -65t60 -40.5t76.5 -14q43 0 79 11.5t64.5 32.5 t49 51t32.5 66l69 -51q-20 -43 -48.5 -77t-66 -58.5t-83.5 -37t-99 -12.5q-61 0 -112 20t-88 56.5t-57 88t-20 113.5zM447 830h96l51 -126h-56l-51 76l-89 -76h-65z"/>
<glyph glyph-name="ccircumflex" horiz-adv-x="510" unicode="ĉ" d="M324 660h87l49 -146h-54l-47 96l-93 -96h-64zM236 -12q-43 0 -78.5 13.5t-60.5 38t-38.5 58.5t-13.5 75q0 55 19 105t54.5 88.5t84.5 60.5t107 22q38 0 68 -10t52 -28.5t35 -43.5t18 -54l-75 -20q-3 20 -11 36t-21 27.5t-31.5 18t-41.5 6.5q-37 0 -68.5 -15.5t-55.5 -44 t-37 -66.5t-13 -82q0 -27 8 -48.5t23 -37t36.5 -23.5t48.5 -8t49 7t40 20t31 31.5t23 41.5l64 -35q-14 -30 -35 -54.5t-48.5 -42t-61 -27t-71.5 -9.5z"/>
<glyph glyph-name="Cdotaccent" horiz-adv-x="695" unicode="Ċ" d="M527 708h-96l23 92h95zM77 266q0 73 26 141t73.5 121t113.5 83.5t143 30.5q53 0 96.5 -13.5t75 -38t52 -59t29.5 -77.5l-82 -33q-5 32 -19 59t-36 46.5t-52.5 30t-68.5 10.5q-59 0 -107.5 -24t-82.5 -66t-52 -96t-18 -113q0 -47 13.5 -85.5t39 -65t60 -40.5t76.5 -14 q43 0 79 11.5t64.5 32.5t49 51t32.5 66l69 -51q-20 -43 -48.5 -77t-66 -58.5t-83.5 -37t-99 -12.5q-61 0 -112 20t-88 56.5t-57 88t-20 113.5z"/>
<glyph glyph-name="cdotaccent" horiz-adv-x="510" unicode="ċ" d="M236 -12q-43 0 -78.5 13.5t-60.5 38t-38.5 58.5t-13.5 75q0 55 19 105t54.5 88.5t84.5 60.5t107 22q38 0 68 -10t52 -28.5t35 -43.5t18 -54l-75 -20q-3 20 -11 36t-21 27.5t-31.5 18t-41.5 6.5q-37 0 -68.5 -15.5t-55.5 -44t-37 -66.5t-13 -82q0 -27 8 -48.5t23 -37 t36.5 -23.5t48.5 -8t49 7t40 20t31 31.5t23 41.5l64 -35q-14 -30 -35 -54.5t-48.5 -42t-61 -27t-71.5 -9.5zM394 538h-96l23 92h96z"/>
<glyph glyph-name="Ccaron" horiz-adv-x="695" unicode="Č" d="M77 266q0 73 26 141t73.5 121t113.5 83.5t143 30.5q53 0 96.5 -13.5t75 -38t52 -59t29.5 -77.5l-82 -33q-5 32 -19 59t-36 46.5t-52.5 30t-68.5 10.5q-59 0 -107.5 -24t-82.5 -66t-52 -96t-18 -113q0 -47 13.5 -85.5t39 -65t60 -40.5t76.5 -14q43 0 79 11.5t64.5 32.5 t49 51t32.5 66l69 -51q-20 -43 -48.5 -77t-66 -58.5t-83.5 -37t-99 -12.5q-61 0 -112 20t-88 56.5t-57 88t-20 113.5zM521 704h-95l-52 126h57l50 -77l90 77h64z"/>
<glyph glyph-name="ccaron" horiz-adv-x="510" unicode="č" d="M293 506l-48 146h54l46 -96l94 96h64l-122 -146h-88zM236 -12q-43 0 -78.5 13.5t-60.5 38t-38.5 58.5t-13.5 75q0 55 19 105t54.5 88.5t84.5 60.5t107 22q38 0 68 -10t52 -28.5t35 -43.5t18 -54l-75 -20q-3 20 -11 36t-21 27.5t-31.5 18t-41.5 6.5q-37 0 -68.5 -15.5 t-55.5 -44t-37 -66.5t-13 -82q0 -27 8 -48.5t23 -37t36.5 -23.5t48.5 -8t49 7t40 20t31 31.5t23 41.5l64 -35q-14 -30 -35 -54.5t-48.5 -42t-61 -27t-71.5 -9.5z"/>
<glyph glyph-name="Dcaron" horiz-adv-x="697" unicode="Ď" d="M476 704h-95l-52 126h57l50 -77l90 77h64zM134 71h151q70 0 125.5 22.5t94 64t58.5 98.5t20 125q0 44 -13.5 77t-40 55.5t-65.5 34t-90 11.5h-118zM30 0l157 630h205q64 0 116 -16.5t88.5 -48.5t56 -78.5t19.5 -104.5q0 -82 -27.5 -152.5t-79.5 -122t-125.5 -79.5 t-163.5 -28h-246z"/>
<glyph glyph-name="dcaron" horiz-adv-x="573" unicode="ď" d="M685 483h-44l56 156h93zM442 341l72 289h82l-160 -630h-81l25 90q-12 -21 -30 -39.5t-41 -32.5t-49 -22t-53 -8q-39 0 -69.5 12.5t-51.5 36t-32 55.5t-11 70q0 52 17.5 103t50.5 93t80.5 66.5t105.5 24.5q28 0 52 -8t43 -23t31.5 -34.5t18.5 -42.5zM408 197l6 24 q5 22 5 42q1 11 -1 22q-4 30 -19 52.5t-38.5 35t-53.5 12.5q-40 0 -73 -18t-56.5 -49t-36 -70t-12.5 -81q0 -27 7.5 -48.5t22 -36t35.5 -22t48 -7.5q26 0 52.5 10.5t50 30.5t40 46.5t23.5 56.5z"/>
<glyph glyph-name="Dcroat" horiz-adv-x="714" unicode="Đ" d="M151 71h151q70 0 125.5 22.5t94 64t58.5 98.5t20 125q0 44 -13.5 77t-40 55.5t-65.5 34t-90 11.5h-118l-49 -195h154l-17 -70h-154zM293 0h-246l73 294h-76l17 70h77l66 266h205q64 0 116 -16.5t88.5 -48.5t56 -78.5t19.5 -104.5q0 -82 -27.5 -152.5t-79.5 -122 t-125.5 -79.5t-163.5 -28z"/>
<glyph glyph-name="dcroat" horiz-adv-x="586" unicode="đ" d="M380 90q-12 -21 -30 -39.5t-41 -32.5t-49 -22t-53 -8q-39 0 -69.5 12.5t-51.5 36t-32 55.5t-11 70q0 52 17.5 103t50.5 93t80.5 66.5t105.5 24.5q28 0 52 -8t43 -23t31.5 -34.5t18.5 -42.5l41 164h-139l14 52h138l18 73h82l-19 -73h76l-14 -52h-75l-128 -505h-81z M408 197l6 24q5 22 5 42q0 11 -3 31.5t-17.5 43t-38 35t-53.5 12.5q-40 0 -73 -18t-56.5 -49t-36 -70t-12.5 -81q0 -27 7.5 -48.5t22 -36t35.5 -22t48 -7.5q26 0 52.5 10.5t50 30.5t40 46.5t23.5 56.5z"/>
<glyph glyph-name="Emacron" horiz-adv-x="625" unicode="Ē" d="M312 709l14 60h263l-15 -60h-262zM531 74l-19 -74h-482l157 630h474l-18 -74h-389l-47 -192h294l-18 -75h-295l-53 -215h396z"/>
<glyph glyph-name="emacron" horiz-adv-x="532" unicode="ē" d="M138 262h267q1 9 1 18q0 18 -4 33q-6 23 -19.5 38.5t-35.5 24t-50 8.5q-29 0 -54 -9t-45 -25t-35.5 -38.5t-24.5 -49.5zM407 142l53 -44q-15 -25 -38.5 -45.5t-52.5 -35t-61 -22t-65 -7.5q-45 0 -81.5 12.5t-62.5 37t-40 59.5t-14 78q0 54 19.5 104t55.5 88t83.5 60 t101.5 22q49 0 84 -15t56 -40.5t30 -58.5t9 -71q0 -7 -0.5 -14t-1.5 -14t-2 -14.5t-3 -13.5h-352q-2 -14 -2 -26q1 -20 5 -38q6 -28 22 -49t42 -31.5t59 -10.5q25 0 48.5 6t44 18t37 28.5t26.5 36.5zM205 531l14 59h260l-14 -59h-260z"/>
<glyph glyph-name="Ebreve" horiz-adv-x="625" unicode="Ĕ" d="M441 701q-28 0 -47 8t-30 24q-10 16 -12 40q0 4 -1 8q0 21 7 48h54q-4 -17 -4.5 -30t4.5 -22.5t15 -14.5t26 -5t28.5 5t22 14.5t16.5 22.5t11 30h59q-8 -32 -22 -56t-33 -40t-42.5 -24t-51.5 -8zM531 74l-19 -74h-482l157 630h474l-18 -74h-389l-47 -192h294l-18 -75 h-295l-53 -215h396z"/>
<glyph glyph-name="ebreve" horiz-adv-x="532" unicode="ĕ" d="M138 262h267q1 9 1 18q0 18 -4 33q-6 23 -19.5 38.5t-35.5 24t-50 8.5q-29 0 -54 -9t-45 -25t-35.5 -38.5t-24.5 -49.5zM407 142l53 -44q-15 -25 -38.5 -45.5t-52.5 -35t-61 -22t-65 -7.5q-45 0 -81.5 12.5t-62.5 37t-40 59.5t-14 78q0 54 19.5 104t55.5 88t83.5 60 t101.5 22q49 0 84 -15t56 -40.5t30 -58.5t9 -71q0 -7 -0.5 -14t-1.5 -14t-2 -14.5t-3 -13.5h-352q-2 -14 -2 -26q1 -20 5 -38q6 -28 22 -49t42 -31.5t59 -10.5q25 0 48.5 6t44 18t37 28.5t26.5 36.5zM332 504q-27 0 -47 10.5t-31 30t-13 46.5v11q0 22 6 48h53 q-5 -20 -5 -36.5t5 -28.5t15.5 -18.5t26.5 -6.5t30 6.5t25 18.5t19.5 28.5t13.5 36.5h58q-8 -32 -23 -59t-36 -46.5t-45.5 -30t-51.5 -10.5z"/>
<glyph glyph-name="Edotaccent" horiz-adv-x="625" unicode="Ė" d="M491 708h-96l23 92h95zM531 74l-19 -74h-482l157 630h474l-18 -74h-389l-47 -192h294l-18 -75h-295l-53 -215h396z"/>
<glyph glyph-name="edotaccent" horiz-adv-x="532" unicode="ė" d="M138 262h267q1 9 1 18q0 18 -4 33q-6 23 -19.5 38.5t-35.5 24t-50 8.5q-29 0 -54 -9t-45 -25t-35.5 -38.5t-24.5 -49.5zM407 142l53 -44q-15 -25 -38.5 -45.5t-52.5 -35t-61 -22t-65 -7.5q-45 0 -81.5 12.5t-62.5 37t-40 59.5t-14 78q0 54 19.5 104t55.5 88t83.5 60 t101.5 22q49 0 84 -15t56 -40.5t30 -58.5t9 -71q0 -7 -0.5 -14t-1.5 -14t-2 -14.5t-3 -13.5h-352q-2 -14 -2 -26q1 -20 5 -38q6 -28 22 -49t42 -31.5t59 -10.5q25 0 48.5 6t44 18t37 28.5t26.5 36.5zM384 538h-96l23 92h96z"/>
<glyph glyph-name="Eogonek" horiz-adv-x="625" unicode="Ę" d="M531 74l-19 -74h-80q-19 -15 -33 -26q-20 -17 -33 -30t-19.5 -24.5t-6.5 -22.5q0 -5 2 -9.5t6 -7.5t9.5 -4.5t13.5 -1.5q7 0 14 1.5t14 4t14.5 5.5t15.5 7l-9 -45q-9 -6 -18 -10t-18.5 -7.5t-21 -5.5t-23.5 -2q-15 0 -27 3.5t-20.5 10t-13 16.5t-4.5 22q0 20 9.5 38 t25.5 34.5t35 30.5q14 10 33 23h-347l157 630h474l-18 -74h-389l-47 -192h294l-18 -75h-295l-53 -215h396z"/>
<glyph glyph-name="eogonek" horiz-adv-x="532" unicode="ę" d="M138 262h267q1 9 1 18q0 18 -5 37t-18.5 34.5t-35.5 24t-50 8.5q-29 0 -54 -9t-45 -25t-35.5 -38.5t-24.5 -49.5zM407 142l53 -44q-15 -25 -38.5 -45.5t-52.5 -35.5q-13 -6 -26 -11q-25 -18 -42 -32q-20 -17 -33 -30t-19.5 -24.5t-6.5 -22.5q0 -5 2 -9.5t6 -7.5t9.5 -4.5 t13.5 -1.5q7 0 14 1.5t14 4t14.5 5.5t15.5 7l-9 -45q-9 -6 -18 -10t-18.5 -7.5t-21 -5.5t-23.5 -2q-15 0 -27 3.5t-20.5 10t-13 16.5t-4.5 22q0 20 9.5 38t25.5 34.5t35 30.5q8 5 16 12q-9 -1 -19 -1q-45 0 -81.5 12.5t-62.5 37t-40 59.5t-14 78q0 54 19.5 104t55.5 88 t83.5 60t101.5 22q49 0 84 -15t56 -40.5t30 -58.5t9 -71q0 -7 -0.5 -14t-1.5 -14t-2 -14.5t-3 -13.5h-352q-2 -14 -2 -26q0 -21 5.5 -44t21.5 -43.5t42 -31t59 -10.5q25 0 48.5 6t44 18t37 28.5t26.5 36.5z"/>
<glyph glyph-name="Ecaron" horiz-adv-x="625" unicode="Ě" d="M493 704h-95l-52 126h57l50 -77l90 77h64zM531 74l-19 -74h-482l157 630h474l-18 -74h-389l-47 -192h294l-18 -75h-295l-53 -215h396z"/>
<glyph glyph-name="ecaron" horiz-adv-x="532" unicode="ě" d="M282 506l-48 146h54l46 -96l94 96h64l-122 -146h-88zM138 262h267q1 9 1 18q0 18 -4 33q-6 23 -19.5 38.5t-35.5 24t-50 8.5q-29 0 -54 -9t-45 -25t-35.5 -38.5t-24.5 -49.5zM407 142l53 -44q-15 -25 -38.5 -45.5t-52.5 -35t-61 -22t-65 -7.5q-45 0 -81.5 12.5t-62.5 37 t-40 59.5t-14 78q0 54 19.5 104t55.5 88t83.5 60t101.5 22q49 0 84 -15t56 -40.5t30 -58.5t9 -71q0 -7 -0.5 -14t-1.5 -14t-2 -14.5t-3 -13.5h-352q-2 -14 -2 -26q1 -20 5 -38q6 -28 22 -49t42 -31.5t59 -10.5q25 0 48.5 6t44 18t37 28.5t26.5 36.5z"/>
<glyph glyph-name="Gcircumflex" horiz-adv-x="738" unicode="Ĝ" d="M694 456l-83 -34q-5 32 -19.5 58.5t-37 46t-53.5 30t-68 10.5q-59 0 -108.5 -24t-84.5 -66t-54 -96.5t-19 -113.5q0 -48 14.5 -86t41 -64.5t62.5 -40.5t78 -14t79.5 14t68 39.5t53 58.5t35.5 71h-231l16 66h310l-78 -311h-61l19 122q-13 -29 -36 -53.5t-53 -42.5 t-65.5 -28t-73.5 -10q-58 0 -107.5 20t-85.5 56.5t-56 88t-20 112.5q0 74 26.5 142t75.5 121t115.5 83.5t142.5 30.5q53 0 96.5 -13t76.5 -38t54 -59t30 -76zM452 830h96l51 -126h-56l-51 76l-89 -76h-65z"/>
<glyph glyph-name="gcircumflex" horiz-adv-x="568" unicode="ĝ" d="M332 660h87l49 -146h-54l-47 96l-93 -96h-64zM363 41l15 60q-12 -19 -28.5 -35.5t-38 -28t-46 -17.5t-50.5 -6q-37 0 -68 12t-53.5 35t-35 55.5t-12.5 72.5q0 48 16.5 94.5t49 84t79 59.5t104.5 22q28 0 52 -7t43 -20.5t31.5 -31t18.5 -37.5l21 84h83l-99 -398 q-13 -53 -36.5 -94t-56 -69t-74 -42t-89.5 -14q-35 0 -67.5 8t-60.5 24t-47 40.5t-27 56.5l62 36q6 -25 19.5 -44t33 -32t41.5 -19t45 -6q35 0 63 10.5t49.5 30.5t37 49t25.5 67zM403 202l9 37q5 21 5 41q0 10 -1 18q-4 28 -18.5 48t-38.5 30.5t-55 10.5q-40 0 -72.5 -16 t-54.5 -44t-33.5 -64t-11.5 -75q0 -28 8 -49.5t23.5 -35.5t36.5 -21t46 -7q26 0 50.5 8.5t46 25t37.5 40t23 53.5z"/>
<glyph glyph-name="Gbreve" horiz-adv-x="738" unicode="Ğ" d="M473 701q-28 0 -47 8t-30 24q-10 16 -12 40q0 4 -1 8q0 21 7 48h54q-4 -17 -4.5 -30t4.5 -22.5t15 -14.5t26 -5t28.5 5t22 14.5t16.5 22.5t11 30h59q-8 -32 -22 -56t-33 -40t-42.5 -24t-51.5 -8zM694 456l-83 -34q-5 32 -19.5 58.5t-37 46t-53.5 30t-68 10.5 q-59 0 -108.5 -24t-84.5 -66t-54 -96.5t-19 -113.5q0 -48 14.5 -86t41 -64.5t62.5 -40.5t78 -14t79.5 14t68 39.5t53 58.5t35.5 71h-231l16 66h310l-78 -311h-61l19 122q-13 -29 -36 -53.5t-53 -42.5t-65.5 -28t-73.5 -10q-58 0 -107.5 20t-85.5 56.5t-56 88t-20 112.5 q0 74 26.5 142t75.5 121t115.5 83.5t142.5 30.5q53 0 96.5 -13t76.5 -38t54 -59t30 -76z"/>
<glyph glyph-name="gbreve" horiz-adv-x="568" unicode="ğ" d="M363 41l15 60q-12 -19 -28.5 -35.5t-38 -28t-46 -17.5t-50.5 -6q-37 0 -68 12t-53.5 35t-35 55.5t-12.5 72.5q0 48 16.5 94.5t49 84t79 59.5t104.5 22q28 0 52 -7t43 -20.5t31.5 -31t18.5 -37.5l21 84h83l-99 -398q-13 -53 -36.5 -94t-56 -69t-74 -42t-89.5 -14 q-35 0 -67.5 8t-60.5 24t-47 40.5t-27 56.5l62 36q6 -25 19.5 -44t33 -32t41.5 -19t45 -6q35 0 63 10.5t49.5 30.5t37 49t25.5 67zM403 202l9 37q5 21 5 41q0 10 -1 18q-4 28 -18.5 48t-38.5 30.5t-55 10.5q-40 0 -72.5 -16t-54.5 -44t-33.5 -64t-11.5 -75q0 -28 8 -49.5 t23.5 -35.5t36.5 -21t46 -7q26 0 50.5 8.5t46 25t37.5 40t23 53.5zM344 504q-27 0 -47 10.5t-31 30t-13 46.5v11q0 22 6 48h53q-5 -20 -5 -36.5t5 -28.5t15.5 -18.5t26.5 -6.5t30 6.5t25 18.5t19.5 28.5t13.5 36.5h58q-8 -32 -23 -59t-36 -46.5t-45.5 -30t-51.5 -10.5z"/>
<glyph glyph-name="Gdotaccent" horiz-adv-x="738" unicode="Ġ" d="M524 708h-96l23 92h95zM694 456l-83 -34q-5 32 -19.5 58.5t-37 46t-53.5 30t-68 10.5q-59 0 -108.5 -24t-84.5 -66t-54 -96.5t-19 -113.5q0 -48 14.5 -86t41 -64.5t62.5 -40.5t78 -14t79.5 14t68 39.5t53 58.5t35.5 71h-231l16 66h310l-78 -311h-61l19 122 q-13 -29 -36 -53.5t-53 -42.5t-65.5 -28t-73.5 -10q-58 0 -107.5 20t-85.5 56.5t-56 88t-20 112.5q0 74 26.5 142t75.5 121t115.5 83.5t142.5 30.5q53 0 96.5 -13t76.5 -38t54 -59t30 -76z"/>
<glyph glyph-name="gdotaccent" horiz-adv-x="568" unicode="ġ" d="M363 41l15 60q-12 -19 -28.5 -35.5t-38 -28t-46 -17.5t-50.5 -6q-37 0 -68 12t-53.5 35t-35 55.5t-12.5 72.5q0 48 16.5 94.5t49 84t79 59.5t104.5 22q28 0 52 -7t43 -20.5t31.5 -31t18.5 -37.5l21 84h83l-99 -398q-13 -53 -36.5 -94t-56 -69t-74 -42t-89.5 -14 q-35 0 -67.5 8t-60.5 24t-47 40.5t-27 56.5l62 36q6 -25 19.5 -44t33 -32t41.5 -19t45 -6q35 0 63 10.5t49.5 30.5t37 49t25.5 67zM403 202l9 37q5 21 5 41q0 10 -1 18q-4 28 -18.5 48t-38.5 30.5t-55 10.5q-40 0 -72.5 -16t-54.5 -44t-33.5 -64t-11.5 -75q0 -28 8 -49.5 t23.5 -35.5t36.5 -21t46 -7q26 0 50.5 8.5t46 25t37.5 40t23 53.5zM396 538h-96l23 92h96z"/>
<glyph glyph-name="Gcommaaccent" horiz-adv-x="738" unicode="Ģ" d="M258 -122l17 69h90l-17 -66q-5 -22 -14.5 -39.5t-24 -30t-34.5 -19.5t-45 -7l9 35q12 0 21.5 4t16.5 11.5t11.5 18t8.5 24.5h-39zM694 456l-83 -34q-5 32 -19.5 58.5t-37 46t-53.5 30t-68 10.5q-59 0 -108.5 -24t-84.5 -66t-54 -96.5t-19 -113.5q0 -48 14.5 -86t41 -64.5 t62.5 -40.5t78 -14t79.5 14t68 39.5t53 58.5t35.5 71h-231l16 66h310l-78 -311h-61l19 122q-13 -29 -36 -53.5t-53 -42.5t-65.5 -28t-73.5 -10q-58 0 -107.5 20t-85.5 56.5t-56 88t-20 112.5q0 74 26.5 142t75.5 121t115.5 83.5t142.5 30.5q53 0 96.5 -13t76.5 -38t54 -59 t30 -76z"/>
<glyph glyph-name="gcommaaccent" horiz-adv-x="568" unicode="ģ" d="M403 583l-17 -68h-91l17 66q5 22 14.5 39.5t24 30t34.5 19.5t45 7l-9 -35q-12 0 -21.5 -4t-16.5 -11.5t-12 -18.5t-8 -25h40zM363 41l15 60q-12 -19 -28.5 -35.5t-38 -28t-46 -17.5t-50.5 -6q-37 0 -68 12t-53.5 35t-35 55.5t-12.5 72.5q0 48 16.5 94.5t49 84t79 59.5 t104.5 22q28 0 52 -7t43 -20.5t31.5 -31t18.5 -37.5l21 84h83l-99 -398q-13 -53 -36.5 -94t-56 -69t-74 -42t-89.5 -14q-35 0 -67.5 8t-60.5 24t-47 40.5t-27 56.5l62 36q6 -25 19.5 -44t33 -32t41.5 -19t45 -6q35 0 63 10.5t49.5 30.5t37 49t25.5 67zM403 202l9 37 q5 21 5 41q0 10 -1 18q-4 28 -18.5 48t-38.5 30.5t-55 10.5q-40 0 -72.5 -16t-54.5 -44t-33.5 -64t-11.5 -75q0 -28 8 -49.5t23.5 -35.5t36.5 -21t46 -7q26 0 50.5 8.5t46 25t37.5 40t23 53.5z"/>
<glyph glyph-name="Hcircumflex" horiz-adv-x="730" unicode="Ĥ" d="M118 0h-88l157 630h88l-66 -266h386l66 266h88l-157 -630h-88l72 289h-386zM464 830h96l51 -126h-56l-51 76l-89 -76h-65z"/>
<glyph glyph-name="hcircumflex" horiz-adv-x="556" unicode="ĥ" d="M168 238l-60 -238h-83l157 630h83l-70 -280q14 21 32 39t39.5 31.5t46 21t49.5 7.5q40 0 69.5 -13.5t47 -38t21.5 -57.5q1 -10 1 -21q0 -24 -6 -50l-67 -269h-83l65 260q6 23 6 42v8q-2 22 -12 38t-28 24.5t-44 8.5q-25 0 -51 -10t-49 -28.5t-39.5 -45.5t-24.5 -59z M338 830h96l51 -126h-56l-51 76l-89 -76h-65z"/>
<glyph glyph-name="Hbar" horiz-adv-x="763" unicode="Ħ" d="M194 243l-60 -243h-88l109 438h-76l18 70h76l30 122h88l-30 -122h386l30 122h88l-30 -122h76l-17 -70h-77l-109 -438h-88l61 243h-387zM213 318h386l30 120h-386z"/>
<glyph glyph-name="hbar" horiz-adv-x="570" unicode="ħ" d="M182 238l-60 -238h-83l126 505h-75l13 52h75l18 73h83l-18 -73h137l-13 -52h-137l-39 -155q14 21 32 39t39.5 31.5t46 21t49.5 7.5q40 0 69.5 -13.5t47 -38t20 -46t2.5 -32.5q0 -24 -6 -50l-67 -269h-83l65 260q6 23 6 42q0 4 -1 17.5t-11 29t-28 24t-44 8.5 q-25 0 -51 -10t-49 -28.5t-39.5 -45.5t-24.5 -59z"/>
<glyph glyph-name="Itilde" horiz-adv-x="256" unicode="Ĩ" d="M187 630h88l-157 -630h-88zM152 704h-53q7 27 18 50t25.5 40t32.5 26.5t38 9.5q18 0 32 -9t30.5 -26t26 -24.5t21.5 -7.5q10 0 18.5 5t15 13.5t11.5 20t10 25.5h53q-7 -27 -17.5 -50t-25 -40t-32.5 -26.5t-38 -9.5q-18 0 -32 8.5t-30.5 25.5t-25.5 24.5t-22 7.5 q-10 0 -18.5 -5t-15.5 -13.5t-12.5 -19.5t-9.5 -25z"/>
<glyph glyph-name="itilde" horiz-adv-x="241" unicode="ĩ" d="M134 437h83l-109 -437h-83zM99 520h-53q7 28 18 51t25.5 40t32.5 26.5t39 9.5q18 0 31.5 -8.5t30 -26t26 -25t22.5 -7.5q10 0 18 5t14.5 13.5t12 20t9.5 25.5h53q-7 -28 -17.5 -51t-25 -40t-32 -26.5t-38.5 -9.5q-18 0 -31.5 9t-30 26t-26 24.5t-22.5 7.5q-10 0 -18.5 -5 t-15.5 -13.5t-12.5 -20t-9.5 -25.5z"/>
<glyph glyph-name="Imacron" horiz-adv-x="256" unicode="Ī" d="M187 630h88l-157 -630h-88zM119 709l14 60h263l-15 -60h-262z"/>
<glyph glyph-name="imacron" horiz-adv-x="241" unicode="ī" d="M134 437h83l-109 -437h-83zM70 531l14 59h260l-14 -59h-260z"/>
<glyph glyph-name="Ibreve" horiz-adv-x="256" unicode="Ĭ" d="M187 630h88l-157 -630h-88zM248 701q-28 0 -47 8t-30 24q-10 16 -12 40q0 4 -1 8q0 21 7 48h54q-4 -17 -4.5 -30t4.5 -22.5t15 -14.5t26 -5t28.5 5t22 14.5t16.5 22.5t11 30h59q-8 -32 -22 -56t-33 -40t-42.5 -24t-51.5 -8z"/>
<glyph glyph-name="ibreve" horiz-adv-x="241" unicode="ĭ" d="M134 437h83l-109 -437h-83zM196 504q-27 0 -47 10.5t-31 30t-13 46.5v11q0 22 6 48h53q-5 -20 -5 -36.5t5 -28.5t15.5 -18.5t26.5 -6.5t30 6.5t25 18.5t19.5 28.5t13.5 36.5h58q-8 -32 -23 -59t-36 -46.5t-45.5 -30t-51.5 -10.5z"/>
<glyph glyph-name="Iogonek" horiz-adv-x="256" unicode="Į" d="M187 630h88l-157 -630h-21q-19 -15 -33 -26q-20 -17 -33 -30t-19.5 -24.5t-6.5 -22.5q0 -5 2 -9.5t6 -7.5t9.5 -4.5t13.5 -1.5q7 0 14 1.5t14 4t14.5 5.5t15.5 7l-9 -45q-9 -6 -18 -10t-18.5 -7.5t-21 -5.5t-23.5 -2q-15 0 -27 3.5t-20.5 10t-13 16.5t-4.5 22 q0 20 9.5 38t25.5 34.5t35 30.5q14 10 33 23h-12z"/>
<glyph glyph-name="iogonek" horiz-adv-x="241" unicode="į" d="M267 630l-22 -92h-96l23 92h95zM134 437h83l-109 -437h-21q-19 -15 -33 -26q-20 -17 -33 -30t-19.5 -24.5t-6.5 -22.5q0 -5 2 -9.5t6 -7.5t9.5 -4.5t13.5 -1.5q7 0 14 1.5t14 4t14.5 5.5t15.5 7l-9 -45q-9 -6 -18 -10t-18.5 -7.5t-21 -5.5t-23.5 -2q-15 0 -27 3.5 t-20.5 10t-13 16.5t-4.5 22q0 20 9.5 38t25.5 34.5t36 30.5q13 10 32 23h-7z"/>
<glyph glyph-name="Idotaccent" horiz-adv-x="256" unicode="İ" d="M187 630h88l-157 -630h-88zM298 708h-96l23 92h95z"/>
<glyph glyph-name="dotlessi" horiz-adv-x="241" unicode="ı" d="M134 437h83l-109 -437h-83z"/>
<glyph glyph-name="IJ" horiz-adv-x="808" unicode="Ĳ" d="M199 630h88l-157 -630h-88zM646 220l102 410h88l-103 -411q-14 -55 -36 -98t-52.5 -72.5t-69.5 -45t-87 -15.5q-52 0 -92.5 18.5t-64.5 53t-30 81.5q-1 11 -1 23q0 37 13 78l94 21q-16 -45 -18 -81v-8q0 -31 10 -55q12 -27 35.5 -41t56.5 -14q32 0 57 10.5t43.5 30.5 t32 48.5t22.5 66.5z"/>
<glyph glyph-name="ij" horiz-adv-x="481" unicode="ĳ" d="M134 437h83l-109 -437h-83zM267 630l-22 -92h-96l23 92h95zM247 -71l127 508h83l-124 -497q-7 -29 -19 -51.5t-29 -37.5t-39 -23t-50 -8q-14 0 -28.5 3t-27.5 8t-24 11t-18 13l33 52q8 -7 14.5 -11t14 -7.5t16 -5.5t18.5 -2t18 3t15 9t12 15t8 21zM507 630l-22 -92h-96 l23 92h95z"/>
<glyph glyph-name="Jcircumflex" horiz-adv-x="551" unicode="Ĵ" d="M389 220l102 410h88l-103 -411q-14 -55 -36 -98t-52.5 -72.5t-69.5 -45t-87 -15.5q-52 0 -92.5 18.5t-64.5 53t-30 81.5q-1 11 -1 23q0 37 13 78l94 21q-16 -45 -18 -81v-8q0 -31 10 -55q12 -27 35.5 -41t56.5 -14q32 0 57 10.5t43.5 30.5t32 48.5t22.5 66.5zM532 830h96 l51 -126h-56l-51 76l-89 -76h-65z"/>
<glyph glyph-name="jcircumflex" horiz-adv-x="241" unicode="ĵ" d="M181 660h87l49 -146h-54l-47 96l-93 -96h-64zM7 -71l127 508h83l-124 -497q-7 -29 -19 -51.5t-29 -37.5t-39 -23t-50 -8q-14 0 -28.5 3t-27.5 8t-24 11t-18 13l33 52q8 -7 14.5 -11t14 -7.5t16 -5.5t18.5 -2t18 3t15 9t12 15t8 21z"/>
<glyph glyph-name="Kcommaaccent" horiz-adv-x="659" unicode="Ķ" d="M220 -122l17 69h90l-17 -66q-5 -22 -14.5 -39.5t-24 -30t-34.5 -19.5t-45 -7l9 35q12 0 21.5 4t16.5 11.5t11.5 18t8.5 24.5h-39zM586 0h-98l-176 315l-143 -114l-51 -201h-88l157 630h88l-82 -328l408 330l111 -2l-331 -266z"/>
<glyph glyph-name="kcommaaccent" horiz-adv-x="517" unicode="ķ" d="M136 -122l17 69h90l-17 -66q-5 -22 -14.5 -39.5t-24 -30t-34.5 -19.5t-45 -7l9 35q12 0 21.5 4t16.5 11.5t11.5 18t8.5 24.5h-39zM146 156l-38 -156h-83l157 630h83l-97 -388l263 195l112 -2l-243 -177l142 -258h-89l-119 215z"/>
<glyph glyph-name="kgreenlandic" horiz-adv-x="517" unicode="ĸ" d="M146 156l-38 -156h-83l109 437h82l-48 -195l263 195l112 -2l-243 -177l142 -258h-89l-119 215z"/>
<glyph glyph-name="Lacute" horiz-adv-x="608" unicode="Ĺ" d="M281 704h-62l85 126h106zM187 630h88l-138 -554h390l-19 -76h-478z"/>
<glyph glyph-name="lacute" horiz-adv-x="241" unicode="ĺ" d="M273 704h-62l85 126h106zM182 630h83l-157 -630h-83z"/>
<glyph glyph-name="Lcommaaccent" horiz-adv-x="608" unicode="Ļ" d="M186 -122l17 69h90l-17 -66q-5 -22 -14.5 -39.5t-24 -30t-34.5 -19.5t-45 -7l9 35q12 0 21.5 4t16.5 11.5t11.5 18t8.5 24.5h-39zM187 630h88l-138 -554h390l-19 -76h-478z"/>
<glyph glyph-name="lcommaaccent" horiz-adv-x="241" unicode="ļ" d="M-7 -122l17 69h90l-17 -66q-5 -22 -14.5 -39.5t-24 -30t-34.5 -19.5t-45 -7l9 35q12 0 21.5 4t16.5 11.5t11.5 18t8.5 24.5h-39zM182 630h83l-157 -630h-83z"/>
<glyph glyph-name="Lcaron" horiz-adv-x="608" unicode="Ľ" d="M497 474h-44l56 156h93zM187 630h88l-138 -554h390l-19 -76h-478z"/>
<glyph glyph-name="lcaron" horiz-adv-x="241" unicode="ľ" d="M352 483h-44l56 156h93zM182 630h83l-157 -630h-83z"/>
<glyph glyph-name="Ldot" horiz-adv-x="608" unicode="Ŀ" d="M436 380h95l-25 -100h-95zM187 630h88l-138 -554h390l-19 -76h-478z"/>
<glyph glyph-name="ldot" horiz-adv-x="383" unicode="ŀ" d="M397 369l-25 -100h-96l25 100h96zM182 630h83l-157 -630h-83z"/>
<glyph glyph-name="Lslash" horiz-adv-x="627" unicode="Ł" d="M528 0h-478l70 280l-87 -28l17 70l87 28l70 280h88l-63 -255l198 65l-17 -71l-199 -64l-57 -229h390z"/>
<glyph glyph-name="lslash" horiz-adv-x="319" unicode="ł" d="M141 0h-83l75 301l-95 -41l16 63l95 43l66 264h83l-57 -230l107 48l-16 -63l-107 -48z"/>
<glyph glyph-name="Nacute" horiz-adv-x="698" unicode="Ń" d="M493 704h-62l85 126h106zM282 630l231 -499l124 499h80l-157 -630h-71l-247 527l-131 -527h-81l157 630h95z"/>
<glyph glyph-name="nacute" horiz-adv-x="556" unicode="ń" d="M506 666l-138 -152h-59l97 152h100zM168 238l-60 -238h-83l109 437h83l-22 -87q14 21 32 39t39.5 31.5t46 21t49.5 7.5q40 0 69.5 -13.5t47 -38t21.5 -57.5q1 -10 1 -21q0 -24 -6 -50l-67 -269h-83l65 260q6 23 6 42v8q-2 22 -12 38t-28 24.5t-44 8.5q-25 0 -51 -10 t-49 -28.5t-39.5 -45.5t-24.5 -59z"/>
<glyph glyph-name="Ncommaaccent" horiz-adv-x="698" unicode="Ņ" d="M213 -122l17 69h90l-17 -66q-5 -22 -14.5 -39.5t-24 -30t-34.5 -19.5t-45 -7l9 35q12 0 21.5 4t16.5 11.5t11.5 18t8.5 24.5h-39zM282 630l231 -499l124 499h80l-157 -630h-71l-247 527l-131 -527h-81l157 630h95z"/>
<glyph glyph-name="ncommaaccent" horiz-adv-x="556" unicode="ņ" d="M147 -122l17 69h90l-17 -66q-5 -22 -14.5 -39.5t-24 -30t-34.5 -19.5t-45 -7l9 35q12 0 21.5 4t16.5 11.5t11.5 18t8.5 24.5h-39zM168 238l-60 -238h-83l109 437h83l-22 -87q14 21 32 39t39.5 31.5t46 21t49.5 7.5q40 0 69.5 -13.5t47 -38t21.5 -57.5q1 -10 1 -21 q0 -24 -6 -50l-67 -269h-83l65 260q6 23 6 42v8q-2 22 -12 38t-28 24.5t-44 8.5q-25 0 -51 -10t-49 -28.5t-39.5 -45.5t-24.5 -59z"/>
<glyph glyph-name="Ncaron" horiz-adv-x="698" unicode="Ň" d="M513 704h-95l-52 126h57l50 -77l90 77h64zM282 630l231 -499l124 499h80l-157 -630h-71l-247 527l-131 -527h-81l157 630h95z"/>
<glyph glyph-name="ncaron" horiz-adv-x="556" unicode="ň" d="M296 506l-48 146h54l46 -96l94 96h64l-122 -146h-88zM168 238l-60 -238h-83l109 437h83l-22 -87q14 21 32 39t39.5 31.5t46 21t49.5 7.5q40 0 69.5 -13.5t47 -38t21.5 -57.5q1 -10 1 -21q0 -24 -6 -50l-67 -269h-83l65 260q6 23 6 42v8q-2 22 -12 38t-28 24.5t-44 8.5 q-25 0 -51 -10t-49 -28.5t-39.5 -45.5t-24.5 -59z"/>
<glyph glyph-name="Eng" horiz-adv-x="698" unicode="Ŋ" d="M374 -180q-27 0 -50 6.5t-41 18t-30 26.5t-18 33l55 44q7 -13 14 -23.5t17 -18t23.5 -12t30.5 -4.5q22 0 38.5 7t29 22t22 38t17.5 55l-240 515l-131 -527h-81l157 630h95l231 -499l124 499h80l-162 -649q-10 -41 -27.5 -71.5t-40.5 -50.5t-51.5 -29.5t-61.5 -9.5z"/>
<glyph glyph-name="eng" horiz-adv-x="556" unicode="ŋ" d="M327 -71l83 331q6 23 6 42q0 4 -1 17.5t-11 29t-28 24t-44 8.5q-25 0 -51 -10t-49 -28.5t-40 -45.5t-25 -59l-59 -238h-83l109 437h83l-22 -87q14 21 32 39t39.5 31.5t46 21t49.5 7.5q40 0 69.5 -13.5t47 -38t20 -46t2.5 -32.5q0 -24 -6 -50l-82 -329q-8 -30 -20 -52 t-28.5 -37.5t-39 -23t-50.5 -7.5q-13 0 -27.5 3t-27.5 8t-24 11t-19 13l33 52q8 -6 15 -10.5t14 -8t15.5 -5.5t18.5 -2t18.5 3t15 9t12 15t8.5 21z"/>
<glyph glyph-name="Omacron" horiz-adv-x="741" unicode="Ō" d="M342 709l14 60h263l-15 -60h-262zM426 568q-57 0 -105 -24t-82.5 -66.5t-53 -98t-18.5 -117.5q0 -44 13 -81t38.5 -63.5t62.5 -41t83 -14.5q57 0 105 24t82.5 66.5t53 98t18.5 117.5q0 44 -13 81t-38.5 63.5t-62.5 41t-83 14.5zM427 642q64 0 116.5 -18.5t90.5 -54 t58.5 -86.5t20.5 -115q0 -74 -25 -142.5t-72 -122t-112 -84.5t-141 -31q-63 0 -115.5 18.5t-91 54t-59 87t-20.5 114.5q0 74 25 142.5t72 122t112 84.5t141 31z"/>
<glyph glyph-name="omacron" horiz-adv-x="547" unicode="ō" d="M215 531l14 59h260l-14 -59h-260zM300 386q-38 0 -69.5 -17t-53.5 -46.5t-33.5 -66.5t-11.5 -76q0 -30 8 -54.5t23.5 -41t37 -25t47.5 -8.5q38 0 69.5 17t53.5 46t33.5 66t11.5 77q0 30 -8 54.5t-23.5 41t-36.5 25t-48 8.5zM301 449q43 0 80 -13t64 -38t42 -61t15 -80 q0 -54 -18.5 -103t-52.5 -86.5t-81.5 -58.5t-102.5 -21q-43 0 -80 13t-64 38t-42 61t-15 80q0 54 18.5 103t52.5 86.5t81.5 58.5t102.5 21z"/>
<glyph glyph-name="Obreve" horiz-adv-x="741" unicode="Ŏ" d="M478 701q-28 0 -47 8t-30 24q-10 16 -12 40q0 4 -1 8q0 21 7 48h54q-4 -17 -4.5 -30t4.5 -22.5t15 -14.5t26 -5t28.5 5t22 14.5t16.5 22.5t11 30h59q-8 -32 -22 -56t-33 -40t-42.5 -24t-51.5 -8zM426 568q-57 0 -105 -24t-82.5 -66.5t-53 -98t-18.5 -117.5q0 -44 13 -81 t38.5 -63.5t62.5 -41t83 -14.5q57 0 105 24t82.5 66.5t53 98t18.5 117.5q0 44 -13 81t-38.5 63.5t-62.5 41t-83 14.5zM427 642q64 0 116.5 -18.5t90.5 -54t58.5 -86.5t20.5 -115q0 -74 -25 -142.5t-72 -122t-112 -84.5t-141 -31q-63 0 -115.5 18.5t-91 54t-59 87 t-20.5 114.5q0 74 25 142.5t72 122t112 84.5t141 31z"/>
<glyph glyph-name="obreve" horiz-adv-x="547" unicode="ŏ" d="M300 386q-38 0 -69.5 -17t-53.5 -46.5t-33.5 -66.5t-11.5 -76q0 -30 8 -54.5t23.5 -41t37 -25t47.5 -8.5q38 0 69.5 17t53.5 46t33.5 66t11.5 77q0 30 -8 54.5t-23.5 41t-36.5 25t-48 8.5zM301 449q43 0 80 -13t64 -38t42 -61t15 -80q0 -54 -18.5 -103t-52.5 -86.5 t-81.5 -58.5t-102.5 -21q-43 0 -80 13t-64 38t-42 61t-15 80q0 54 18.5 103t52.5 86.5t81.5 58.5t102.5 21zM342 504q-27 0 -47 10.5t-31 30t-13 46.5v11q0 22 6 48h53q-5 -20 -5 -36.5t5 -28.5t15.5 -18.5t26.5 -6.5t30 6.5t25 18.5t19.5 28.5t13.5 36.5h58q-8 -32 -23 -59 t-36 -46.5t-45.5 -30t-51.5 -10.5z"/>
<glyph glyph-name="Ohungarumlaut" horiz-adv-x="741" unicode="Ő" d="M426 568q-57 0 -105 -24t-82.5 -66.5t-53 -98t-18.5 -117.5q0 -44 13 -81t38.5 -63.5t62.5 -41t83 -14.5q57 0 105 24t82.5 66.5t53 98t18.5 117.5q0 44 -13 81t-38.5 63.5t-62.5 41t-83 14.5zM427 642q64 0 116.5 -18.5t90.5 -54t58.5 -86.5t20.5 -115q0 -74 -25 -142.5 t-72 -122t-112 -84.5t-141 -31q-63 0 -115.5 18.5t-91 54t-59 87t-20.5 114.5q0 74 25 142.5t72 122t112 84.5t141 31zM418 704h-52l83 126h96zM564 704h-51l83 126h96z"/>
<glyph glyph-name="ohungarumlaut" horiz-adv-x="547" unicode="ő" d="M275 506h-53l93 152h92zM426 506h-53l93 152h92zM300 386q-38 0 -69.5 -17t-53.5 -46.5t-33.5 -66.5t-11.5 -76q0 -30 8 -54.5t23.5 -41t37 -25t47.5 -8.5q38 0 69.5 17t53.5 46t33.5 66t11.5 77q0 30 -8 54.5t-23.5 41t-36.5 25t-48 8.5zM301 449q43 0 80 -13t64 -38 t42 -61t15 -80q0 -54 -18.5 -103t-52.5 -86.5t-81.5 -58.5t-102.5 -21q-43 0 -80 13t-64 38t-42 61t-15 80q0 54 18.5 103t52.5 86.5t81.5 58.5t102.5 21z"/>
<glyph glyph-name="OE" horiz-adv-x="1060" unicode="Œ" d="M605 559h-151q-70 0 -125.5 -22.5t-94 -64t-58.5 -98.5t-20 -125q0 -44 13.5 -77t40 -55.5t65.5 -34t90 -11.5h118zM346 0q-64 0 -116 16.5t-88.5 48.5t-55.5 78.5t-19 104.5q0 82 27.5 152.5t79.5 122t125.5 79.5t163.5 28h633l-19 -74h-388l-48 -192h295l-18 -75h-295 l-54 -215h397l-19 -74h-601z"/>
<glyph glyph-name="oe" horiz-adv-x="895" unicode="œ" d="M493 262h267q1 9 1 18q0 18 -5 37t-18.5 34.5t-35.5 24t-50 8.5q-29 0 -53.5 -9t-45 -25t-35.5 -38.5t-25 -49.5zM300 386q-39 0 -70.5 -17t-53.5 -46.5t-33 -66.5t-11 -76q0 -30 8 -54.5t23.5 -41t36.5 -25t48 -8.5q38 0 69.5 17t53.5 46t33.5 66t11.5 77q0 30 -8 54.5 t-23.5 41t-37 25t-47.5 8.5zM815 98q-15 -25 -38.5 -45.5t-52.5 -35t-61 -22t-65 -7.5q-29 0 -54 6t-46.5 17t-38 26.5t-28.5 35.5q-17 -19 -37 -35t-43.5 -27t-49.5 -17t-54 -6q-43 0 -80 13t-64 38t-42 61t-15 80q0 54 18.5 103t52.5 86.5t81.5 58.5t102.5 21q28 0 54 -6 t48 -18t39.5 -29t29.5 -38q18 21 38.5 37.5t44.5 28.5t50.5 18.5t54.5 6.5q49 0 84 -15t56 -40.5t30 -58.5t9 -71q0 -7 -0.5 -14t-1 -14.5t-2 -14.5t-2.5 -13h-353q-2 -14 -2 -26q0 -21 5.5 -44t22 -43.5t42 -31t59.5 -10.5q25 0 48 6t43.5 18t37 28.5t27.5 36.5z"/>
<glyph glyph-name="Racute" horiz-adv-x="666" unicode="Ŕ" d="M585 0h-98q-4 4 -7 11t-5.5 16.5t-3.5 20.5t-1 23q0 13 1.5 27t4 34t3.5 32t1 23q0 24 -6 40.5t-18 27.5t-30.5 16t-45.5 5h-195l-68 -276h-87l157 630h287q52 0 89 -11t59 -31t31.5 -47t9.5 -60q0 -38 -16 -69.5t-43 -54t-61.5 -35t-70.5 -14.5q23 -4 40 -14t27.5 -25 t16 -34.5t5.5 -43.5q0 -11 -0.5 -22.5t-2 -31t-2 -31.5t-0.5 -21q0 -15 1.5 -27t5.5 -21.5t9 -17t13 -12.5v-7zM256 557l-53 -211h188q42 0 75 7t57.5 21.5t37.5 39t13 58.5q0 19 -6.5 34.5t-21.5 27t-38.5 17.5t-57.5 6h-194zM460 704h-62l85 126h106z"/>
<glyph glyph-name="racute" horiz-adv-x="470" unicode="ŕ" d="M476 666l-138 -152h-59l97 152h100zM451 278l-76 -22q3 6 6 14t5 17t3.5 18t1.5 16q0 13 -3.5 23t-10.5 17t-18.5 11t-27.5 4q-26 0 -52.5 -12t-49.5 -33t-40.5 -49.5t-25.5 -59.5l-55 -222h-83l109 437h83l-26 -105q13 23 30.5 43.5t40 37t48.5 26.5t55 10q25 0 44.5 -8 t32.5 -22t19.5 -32.5t6.5 -40.5q0 -9 -1 -17t-3 -16.5t-5 -17.5t-8 -17z"/>
<glyph glyph-name="Rcommaaccent" horiz-adv-x="666" unicode="Ŗ" d="M220 -122l17 69h90l-17 -66q-5 -22 -14.5 -39.5t-24 -30t-34.5 -19.5t-45 -7l9 35q12 0 21.5 4t16.5 11.5t11.5 18t8.5 24.5h-39zM585 0h-98q-4 4 -7 11t-5.5 16.5t-3.5 20.5t-1 23q0 13 1.5 27t4 34t3.5 32t1 23q0 24 -6 40.5t-18 27.5t-30.5 16t-45.5 5h-195l-68 -276 h-87l157 630h287q52 0 89 -11t59 -31t31.5 -47t9.5 -60q0 -38 -16 -69.5t-43 -54t-61.5 -35t-70.5 -14.5q23 -4 40 -14t27.5 -25t16 -34.5t5.5 -43.5q0 -11 -0.5 -22.5t-2 -31t-2 -31.5t-0.5 -21q0 -15 1.5 -27t5.5 -21.5t9 -17t13 -12.5v-7zM256 557l-53 -211h188 q42 0 75 7t57.5 21.5t37.5 39t13 58.5q0 19 -6.5 34.5t-21.5 27t-38.5 17.5t-57.5 6h-194z"/>
<glyph glyph-name="rcommaaccent" horiz-adv-x="470" unicode="ŗ" d="M-5 -122l17 69h90l-17 -66q-5 -22 -14.5 -39.5t-24 -30t-34.5 -19.5t-45 -7l9 35q12 0 21.5 4t16.5 11.5t11.5 18t8.5 24.5h-39zM451 278l-76 -22q3 6 6 14t5 17t3.5 18t1.5 16q0 13 -3.5 23t-10.5 17t-18.5 11t-27.5 4q-26 0 -52.5 -12t-49.5 -33t-40.5 -49.5 t-25.5 -59.5l-55 -222h-83l109 437h83l-26 -105q13 23 30.5 43.5t40 37t48.5 26.5t55 10q25 0 44.5 -8t32.5 -22t19.5 -32.5t6.5 -40.5q0 -9 -1 -17t-3 -16.5t-5 -17.5t-8 -17z"/>
<glyph glyph-name="Rcaron" horiz-adv-x="666" unicode="Ř" d="M480 704h-95l-52 126h57l50 -77l90 77h64zM585 0h-98q-4 4 -7 11t-5.5 16.5t-3.5 20.5t-1 23q0 13 1.5 27t4 34t3.5 32t1 23q0 24 -6 40.5t-18 27.5t-30.5 16t-45.5 5h-195l-68 -276h-87l157 630h287q52 0 89 -11t59 -31t31.5 -47t9.5 -60q0 -38 -16 -69.5t-43 -54 t-61.5 -35t-70.5 -14.5q23 -4 40 -14t27.5 -25t16 -34.5t5.5 -43.5q0 -11 -0.5 -22.5t-2 -31t-2 -31.5t-0.5 -21q0 -15 1.5 -27t5.5 -21.5t9 -17t13 -12.5v-7zM256 557l-53 -211h188q42 0 75 7t57.5 21.5t37.5 39t13 58.5q0 19 -6.5 34.5t-21.5 27t-38.5 17.5t-57.5 6h-194z "/>
<glyph glyph-name="rcaron" horiz-adv-x="470" unicode="ř" d="M278 506l-48 146h54l46 -96l94 96h64l-122 -146h-88zM451 278l-76 -22q3 6 6 14t5 17t3.5 18t1.5 16q0 13 -3.5 23t-10.5 17t-18.5 11t-27.5 4q-26 0 -52.5 -12t-49.5 -33t-40.5 -49.5t-25.5 -59.5l-55 -222h-83l109 437h83l-26 -105q13 23 30.5 43.5t40 37t48.5 26.5 t55 10q25 0 44.5 -8t32.5 -22t19.5 -32.5t6.5 -40.5q0 -9 -1 -17t-3 -16.5t-5 -17.5t-8 -17z"/>
<glyph glyph-name="Sacute" horiz-adv-x="627" unicode="Ś" d="M20 146l71 55q8 -32 28 -58.5t48 -45t63 -28t74 -9.5q38 0 69.5 8t54 23.5t35 37t12.5 47.5q0 19 -6.5 33t-19.5 24.5t-33 19t-49 16.5l-106 28q-35 9 -61 22t-44 31.5t-27.5 42.5t-9.5 54q0 41 18.5 77t52.5 62.5t80.5 41t101.5 14.5q46 0 86.5 -11t73 -31t55.5 -47 t35 -59l-74 -41q-9 25 -25.5 46t-40.5 37t-52.5 25t-59.5 9q-34 0 -64 -8t-52 -22.5t-34 -35.5t-12 -47q0 -20 6.5 -34t19.5 -24t31.5 -17.5t44.5 -14.5l92 -25q41 -11 71.5 -25.5t51 -33.5t30.5 -43.5t10 -54.5q0 -45 -20.5 -82t-57.5 -62.5t-84.5 -39t-100.5 -13.5 q-49 0 -94.5 11t-83.5 31.5t-65 50t-39 65.5zM440 704h-62l85 126h106z"/>
<glyph glyph-name="sacute" horiz-adv-x="486" unicode="ś" d="M464 666l-138 -152h-59l97 152h100zM16 93l57 53q10 -22 26 -40t36 -30t42.5 -18.5t45.5 -6.5q24 0 44 5t35.5 14.5t23.5 22.5t8 28q0 13 -5 22t-14 15.5t-21.5 11t-31.5 10.5l-63 15q-28 7 -49.5 17.5t-36.5 24.5t-22.5 32t-7.5 41q0 30 14 55.5t39 44.5t57.5 29 t68.5 10q35 0 65 -8t53 -22t40.5 -32.5t29.5 -41.5l-57 -47q-7 18 -19 34t-28.5 28t-38 18.5t-46.5 6.5q-19 0 -37 -4.5t-32 -13t-22 -21t-8 -28.5q0 -12 4.5 -21t13 -15.5t21 -11.5t29.5 -9l70 -17q28 -7 49 -17.5t35.5 -25t22 -32t7.5 -39.5q0 -33 -15 -59.5t-41.5 -45 t-61 -28t-74.5 -9.5q-36 0 -68 8t-58.5 22t-46.5 33t-33 42z"/>
<glyph glyph-name="Scircumflex" horiz-adv-x="627" unicode="Ŝ" d="M20 146l71 55q8 -32 28 -58.5t48 -45t63 -28t74 -9.5q38 0 69.5 8t54 23.5t35 37t12.5 47.5q0 19 -6.5 33t-19.5 24.5t-33 19t-49 16.5l-106 28q-35 9 -61 22t-44 31.5t-27.5 42.5t-9.5 54q0 41 18.5 77t52.5 62.5t80.5 41t101.5 14.5q46 0 86.5 -11t73 -31t55.5 -47 t35 -59l-74 -41q-9 25 -25.5 46t-40.5 37t-52.5 25t-59.5 9q-34 0 -64 -8t-52 -22.5t-34 -35.5t-12 -47q0 -20 6.5 -34t19.5 -24t31.5 -17.5t44.5 -14.5l92 -25q41 -11 71.5 -25.5t51 -33.5t30.5 -43.5t10 -54.5q0 -45 -20.5 -82t-57.5 -62.5t-84.5 -39t-100.5 -13.5 q-49 0 -94.5 11t-83.5 31.5t-65 50t-39 65.5zM386 830h96l51 -126h-56l-51 76l-89 -76h-65z"/>
<glyph glyph-name="scircumflex" horiz-adv-x="486" unicode="ŝ" d="M296 660h87l49 -146h-54l-47 96l-93 -96h-64zM16 93l57 53q10 -22 26 -40t36 -30t42.5 -18.5t45.5 -6.5q24 0 44 5t35.5 14.5t23.5 22.5t8 28q0 13 -5 22t-14 15.5t-21.5 11t-31.5 10.5l-63 15q-28 7 -49.5 17.5t-36.5 24.5t-22.5 32t-7.5 41q0 30 14 55.5t39 44.5 t57.5 29t68.5 10q35 0 65 -8t53 -22t40.5 -32.5t29.5 -41.5l-57 -47q-7 18 -19 34t-28.5 28t-38 18.5t-46.5 6.5q-19 0 -37 -4.5t-32 -13t-22 -21t-8 -28.5q0 -12 4.5 -21t13 -15.5t21 -11.5t29.5 -9l70 -17q28 -7 49 -17.5t35.5 -25t22 -32t7.5 -39.5q0 -33 -15 -59.5 t-41.5 -45t-61 -28t-74.5 -9.5q-36 0 -68 8t-58.5 22t-46.5 33t-33 42z"/>
<glyph glyph-name="Scedilla" horiz-adv-x="627" unicode="Ş" d="M321 -114q0 -24 -11 -42.5t-29 -29.5t-40 -16.5t-43 -5.5q-20 0 -37.5 4.5t-32 11t-25 14.5t-17.5 16l33 39q6 -8 14 -16t18 -13.5t21.5 -9t23.5 -3.5q13 0 25 3t20.5 8.5t13 13.5t4.5 18q0 12 -7.5 19t-19.5 9t-26.5 0t-27.5 -8l-19 14l70 83l-22 4q-45 11 -83 31.5 t-65 50t-39 65.5l71 55q8 -32 28 -58.5t48 -45t63 -28t74 -9.5q38 0 69.5 8t54 23.5t35 37t12.5 47.5q0 19 -6.5 33t-19.5 24.5t-33 19t-49 16.5l-106 28q-35 9 -61 22t-44 31.5t-27.5 42.5t-9.5 54q0 41 18.5 77t52.5 62.5t80.5 41t101.5 14.5q46 0 86.5 -11t73 -31 t55.5 -47t35 -59l-74 -41q-9 25 -25.5 46t-40.5 37t-52.5 25t-59.5 9q-34 0 -64 -8t-52 -22.5t-34 -35.5t-12 -47q0 -20 6.5 -34t19.5 -24t31.5 -17.5t44.5 -14.5l92 -25q41 -11 71.5 -25.5t51 -33.5t30.5 -43.5t10 -54.5q0 -45 -20.5 -82t-57.5 -62.5t-84.5 -39 t-100.5 -13.5q-19 0 -37 2l-42 -49q11 2 22 2l16 -1q16 -2 30 -9t22 -19t8 -28z"/>
<glyph glyph-name="scedilla" horiz-adv-x="486" unicode="ş" d="M266 -114q0 -24 -11 -42.5t-29 -29.5t-40 -16.5t-43 -5.5q-20 0 -37.5 4.5t-32 11t-25 14.5t-17.5 16l33 39q6 -8 14 -16t18 -13.5t21.5 -9t23.5 -3.5q13 0 25 3t20.5 8.5t13 13.5t4.5 18q0 12 -7.5 19t-19.5 9t-26.5 0t-27.5 -8l-19 14l69 80q-10 2 -19 4 q-32 8 -58.5 22t-46.5 33t-33 42l57 53q10 -22 26 -40t36 -30t42.5 -18.5t45.5 -6.5q24 0 44 5t35.5 14.5t23.5 22.5t8 28q0 13 -5 22t-14 15.5t-21.5 11t-31.5 10.5l-63 15q-28 7 -49.5 17.5t-36.5 24.5t-22.5 32t-7.5 41q0 30 14 55.5t39 44.5t57.5 29t68.5 10q35 0 65 -8 t53 -22t40.5 -32.5t29.5 -41.5l-57 -47q-7 18 -19 34t-28.5 28t-38 18.5t-46.5 6.5q-19 0 -37 -4.5t-32 -13t-22 -21t-8 -28.5q0 -12 4.5 -21t13 -15.5t21 -11.5t29.5 -9l70 -17q28 -7 49 -17.5t35.5 -25t22 -32t7.5 -39.5q0 -33 -15 -59.5t-41.5 -45t-61 -28t-74.5 -9.5 h-13l-41 -47q11 2 22 2l16 -1q16 -2 30 -9t22 -19t8 -28z"/>
<glyph glyph-name="Scaron" horiz-adv-x="627" unicode="Š" d="M20 146l71 55q8 -32 28 -58.5t48 -45t63 -28t74 -9.5q38 0 69.5 8t54 23.5t35 37t12.5 47.5q0 19 -6.5 33t-19.5 24.5t-33 19t-49 16.5l-106 28q-35 9 -61 22t-44 31.5t-27.5 42.5t-9.5 54q0 41 18.5 77t52.5 62.5t80.5 41t101.5 14.5q46 0 86.5 -11t73 -31t55.5 -47 t35 -59l-74 -41q-9 25 -25.5 46t-40.5 37t-52.5 25t-59.5 9q-34 0 -64 -8t-52 -22.5t-34 -35.5t-12 -47q0 -20 6.5 -34t19.5 -24t31.5 -17.5t44.5 -14.5l92 -25q41 -11 71.5 -25.5t51 -33.5t30.5 -43.5t10 -54.5q0 -45 -20.5 -82t-57.5 -62.5t-84.5 -39t-100.5 -13.5 q-49 0 -94.5 11t-83.5 31.5t-65 50t-39 65.5zM461 704h-95l-52 126h57l50 -77l90 77h64z"/>
<glyph glyph-name="scaron" horiz-adv-x="486" unicode="š" d="M265 506l-48 146h54l46 -96l94 96h64l-122 -146h-88zM16 93l57 53q10 -22 26 -40t36 -30t42.5 -18.5t45.5 -6.5q24 0 44 5t35.5 14.5t23.5 22.5t8 28q0 13 -5 22t-14 15.5t-21.5 11t-31.5 10.5l-63 15q-28 7 -49.5 17.5t-36.5 24.5t-22.5 32t-7.5 41q0 30 14 55.5 t39 44.5t57.5 29t68.5 10q35 0 65 -8t53 -22t40.5 -32.5t29.5 -41.5l-57 -47q-7 18 -19 34t-28.5 28t-38 18.5t-46.5 6.5q-19 0 -37 -4.5t-32 -13t-22 -21t-8 -28.5q0 -12 4.5 -21t13 -15.5t21 -11.5t29.5 -9l70 -17q28 -7 49 -17.5t35.5 -25t22 -32t7.5 -39.5 q0 -33 -15 -59.5t-41.5 -45t-61 -28t-74.5 -9.5q-36 0 -68 8t-58.5 22t-46.5 33t-33 42z"/>
<glyph glyph-name="Tcommaaccent" horiz-adv-x="683" unicode="Ţ" d="M213 -122l17 69h90l-17 -66q-5 -22 -14.5 -39.5t-24 -30t-34.5 -19.5t-45 -7l9 35q12 0 21.5 4t16.5 11.5t11.5 18t8.5 24.5h-39zM330 0h-88l138 554h-256l19 76h603l-19 -76h-259z"/>
<glyph glyph-name="tcommaaccent" horiz-adv-x="433" unicode="ţ" d="M111 -122l17 69h90l-17 -66q-5 -22 -14.5 -39.5t-24 -30t-34.5 -19.5t-45 -7l9 35q12 0 21.5 4t16.5 11.5t11.5 18t8.5 24.5h-39zM72 437h94l36 121l87 25l-42 -146h186l-17 -63h-187l-69 -230q-6 -19 -6 -35q0 -17 8 -29q7 -10 19.5 -16t28.5 -6q20 0 39 4.5t37.5 14 t35.5 23.5t32 32l-1 -81q-13 -13 -30.5 -24.5t-38 -20t-43.5 -13.5t-47 -5q-34 0 -60 10.5t-42 31t-20 50.5q-1 7 0 15q0 24 8 53l67 226h-91z"/>
<glyph glyph-name="Tcaron" horiz-adv-x="683" unicode="Ť" d="M514 704h-95l-52 126h57l50 -77l90 77h64zM330 0h-88l138 554h-256l19 76h603l-19 -76h-259z"/>
<glyph glyph-name="tcaron" horiz-adv-x="433" unicode="ť" d="M400 521h-44l56 156h93zM72 437h94l36 121l87 25l-42 -146h186l-17 -63h-187l-69 -230q-6 -19 -6 -35q0 -17 8 -29q7 -10 19.5 -16t28.5 -6q20 0 39 4.5t37.5 14t35.5 23.5t32 32l-1 -81q-13 -13 -30.5 -24.5t-38 -20t-43.5 -13.5t-47 -5q-34 0 -60 10.5t-42 31t-20 50.5 q-1 7 0 15q0 24 8 53l67 226h-91z"/>
<glyph glyph-name="Tbar" horiz-adv-x="683" unicode="Ŧ" d="M539 296h-135l-74 -296h-88l74 296h-136l17 70h136l47 188h-256l19 76h603l-19 -76h-259l-47 -188h135z"/>
<glyph glyph-name="tbar" horiz-adv-x="475" unicode="ŧ" d="M381 51q-13 -13 -30.5 -24.5t-38 -20t-43.5 -13.5t-47 -5q-34 0 -60 10.5t-42 31t-18 39t-2 26.5q0 24 8 53l22 74h-85l14 54h87l29 98h-91l16 63h94l36 121l87 25l-42 -146h186l-17 -63h-187l-29 -98h189l-13 -54h-193l-23 -78q-6 -19 -6 -35q0 -18 7.5 -29t20 -16.5 t28.5 -5.5q20 0 39 4.5t37.5 14t35.5 23.5t32 32z"/>
<glyph glyph-name="Utilde" horiz-adv-x="666" unicode="Ũ" d="M349 704h-53q7 27 18 50t25.5 40t32.5 26.5t38 9.5q18 0 32 -9t30.5 -26t26 -24.5t21.5 -7.5q10 0 18.5 5t15 13.5t11.5 20t10 25.5h53q-7 -27 -17.5 -50t-25 -40t-32.5 -26.5t-38 -9.5q-18 0 -32 8.5t-30.5 25.5t-25.5 24.5t-22 7.5q-10 0 -18.5 -5t-15.5 -13.5 t-12.5 -19.5t-9.5 -25zM302 -12q-60 0 -107.5 18t-77.5 53q-31 35 -39 86q-3 18 -2 37q0 36 10 77l92 371h86l-94 -379q-8 -32 -8 -60q0 -9 1 -19q4 -36 22 -60.5t49 -37.5t72 -13q44 0 77.5 11.5t58 34t41.5 56t29 78.5l97 389h85l-99 -396q-16 -65 -42.5 -112t-62.5 -76.5 t-82.5 -43.5t-105.5 -14z"/>
<glyph glyph-name="utilde" horiz-adv-x="549" unicode="ũ" d="M382 199l59 238h83l-108 -437h-83l21 86q-14 -21 -31.5 -38.5t-38 -31t-44.5 -21t-49 -7.5q-40 0 -69 13.5t-45 37.5t-20 57q-1 9 -1 17q0 25 7 54l67 270h83l-65 -261q-6 -24 -6 -44v-6q1 -22 10 -37.5t26.5 -24t44.5 -8.5q24 0 49 10t47 28.5t38.5 45.5t24.5 59z M246 520h-53q7 28 18 51t25.5 40t32.5 26.5t39 9.5q18 0 31.5 -8.5t30 -26t26 -25t22.5 -7.5q10 0 18 5t14.5 13.5t12 20t9.5 25.5h53q-7 -28 -17.5 -51t-25 -40t-32 -26.5t-38.5 -9.5q-18 0 -31.5 9t-30 26t-26 24.5t-22.5 7.5q-10 0 -18.5 -5t-15.5 -13.5t-12.5 -20 t-9.5 -25.5z"/>
<glyph glyph-name="Umacron" horiz-adv-x="666" unicode="Ū" d="M317 709l14 60h263l-15 -60h-262zM302 -12q-60 0 -107.5 18t-77.5 53q-31 35 -39 86q-3 18 -2 37q0 36 10 77l92 371h86l-94 -379q-8 -32 -8 -60q0 -9 1 -19q4 -36 22 -60.5t49 -37.5t72 -13q44 0 77.5 11.5t58 34t41.5 56t29 78.5l97 389h85l-99 -396 q-16 -65 -42.5 -112t-62.5 -76.5t-82.5 -43.5t-105.5 -14z"/>
<glyph glyph-name="umacron" horiz-adv-x="549" unicode="ū" d="M382 199l59 238h83l-108 -437h-83l21 86q-14 -21 -31.5 -38.5t-38 -31t-44.5 -21t-49 -7.5q-40 0 -69 13.5t-45 37.5t-20 57q-1 9 -1 17q0 25 7 54l67 270h83l-65 -261q-6 -24 -6 -44v-6q1 -22 10 -37.5t26.5 -24t44.5 -8.5q24 0 49 10t47 28.5t38.5 45.5t24.5 59z M217 531l14 59h260l-14 -59h-260z"/>
<glyph glyph-name="Ubreve" horiz-adv-x="666" unicode="Ŭ" d="M447 701q-28 0 -47 8t-30 24q-10 16 -12 40q0 4 -1 8q0 21 7 48h54q-4 -17 -4.5 -30t4.5 -22.5t15 -14.5t26 -5t28.5 5t22 14.5t16.5 22.5t11 30h59q-8 -32 -22 -56t-33 -40t-42.5 -24t-51.5 -8zM302 -12q-60 0 -107.5 18t-77.5 53q-31 35 -39 86q-3 18 -2 37q0 36 10 77 l92 371h86l-94 -379q-8 -32 -8 -60q0 -9 1 -19q4 -36 22 -60.5t49 -37.5t72 -13q44 0 77.5 11.5t58 34t41.5 56t29 78.5l97 389h85l-99 -396q-16 -65 -42.5 -112t-62.5 -76.5t-82.5 -43.5t-105.5 -14z"/>
<glyph glyph-name="ubreve" horiz-adv-x="549" unicode="ŭ" d="M382 199l59 238h83l-108 -437h-83l21 86q-14 -21 -31.5 -38.5t-38 -31t-44.5 -21t-49 -7.5q-40 0 -69 13.5t-45 37.5t-20 57q-1 9 -1 17q0 25 7 54l67 270h83l-65 -261q-6 -24 -6 -44v-6q1 -22 10 -37.5t26.5 -24t44.5 -8.5q24 0 49 10t47 28.5t38.5 45.5t24.5 59z M344 504q-27 0 -47 10.5t-31 30t-13 46.5v11q0 22 6 48h53q-5 -20 -5 -36.5t5 -28.5t15.5 -18.5t26.5 -6.5t30 6.5t25 18.5t19.5 28.5t13.5 36.5h58q-8 -32 -23 -59t-36 -46.5t-45.5 -30t-51.5 -10.5z"/>
<glyph glyph-name="Uring" horiz-adv-x="666" unicode="Ů" d="M302 -12q-60 0 -107.5 18t-77.5 53q-31 35 -39 86q-3 18 -2 37q0 36 10 77l92 371h86l-94 -379q-8 -32 -8 -60q0 -9 1 -19q4 -36 22 -60.5t49 -37.5t72 -13q44 0 77.5 11.5t58 34t41.5 56t29 78.5l97 389h85l-99 -396q-16 -65 -42.5 -112t-62.5 -76.5t-82.5 -43.5 t-105.5 -14zM467 828q-13 0 -23 -4t-17 -11.5t-10.5 -18t-3.5 -23.5q0 -9 3 -17t9.5 -14t15.5 -9.5t20 -3.5q12 0 22 4t17 11.5t10.5 18t3.5 23.5q0 9 -3 17t-9 14t-15 9.5t-20 3.5zM469 871q21 0 38 -6.5t29 -18t18.5 -27.5t6.5 -34q0 -21 -7.5 -39.5t-21.5 -32.5 t-33 -21.5t-41 -7.5q-21 0 -38 6.5t-29 18t-18.5 27.5t-6.5 34q0 22 7.5 40.5t21 32t32.5 21t42 7.5z"/>
<glyph glyph-name="uring" horiz-adv-x="549" unicode="ů" d="M365 646q-12 0 -22 -4t-17 -11.5t-10.5 -18t-3.5 -23.5q0 -9 3 -17t9 -14t15 -9.5t20 -3.5q13 0 23 4t17 11.5t10.5 18t3.5 23.5q0 9 -3 17t-9.5 14t-15.5 9.5t-20 3.5zM368 690q21 0 38 -6.5t29 -18.5t18.5 -28t6.5 -34q0 -21 -7.5 -39.5t-21.5 -32.5t-33 -21.5 t-41 -7.5q-21 0 -38 6.5t-29 18t-18.5 27.5t-6.5 34q0 22 7.5 40.5t21 32.5t33 21.5t41.5 7.5zM382 199l59 238h83l-108 -437h-83l21 86q-14 -21 -31.5 -38.5t-38 -31t-44.5 -21t-49 -7.5q-40 0 -69 13.5t-45 37.5t-20 57q-1 9 -1 17q0 25 7 54l67 270h83l-65 -261 q-6 -24 -6 -44v-6q1 -22 10 -37.5t26.5 -24t44.5 -8.5q24 0 49 10t47 28.5t38.5 45.5t24.5 59z"/>
<glyph glyph-name="Uhungarumlaut" horiz-adv-x="666" unicode="Ű" d="M302 -12q-60 0 -107.5 18t-77.5 53q-31 35 -39 86q-3 18 -2 37q0 36 10 77l92 371h86l-94 -379q-8 -32 -8 -60q0 -9 1 -19q4 -36 22 -60.5t49 -37.5t72 -13q44 0 77.5 11.5t58 34t41.5 56t29 78.5l97 389h85l-99 -396q-16 -65 -42.5 -112t-62.5 -76.5t-82.5 -43.5 t-105.5 -14zM395 704h-52l83 126h96zM541 704h-51l83 126h96z"/>
<glyph glyph-name="uhungarumlaut" horiz-adv-x="549" unicode="ű" d="M382 199l59 238h83l-108 -437h-83l21 86q-14 -21 -31.5 -38.5t-38 -31t-44.5 -21t-49 -7.5q-40 0 -69 13.5t-45 37.5t-20 57q-1 9 -1 17q0 25 7 54l67 270h83l-65 -261q-6 -24 -6 -44v-6q1 -22 10 -37.5t26.5 -24t44.5 -8.5q24 0 49 10t47 28.5t38.5 45.5t24.5 59z M275 506h-53l93 152h92zM426 506h-53l93 152h92z"/>
<glyph glyph-name="Uogonek" horiz-adv-x="666" unicode="Ų" d="M302 -12q-60 0 -107.5 18t-77.5 53t-35.5 69.5t-5.5 53.5q0 36 10 77l92 371h86l-94 -379q-8 -32 -8 -60q0 -10 2.5 -32.5t20.5 -47t49 -37.5t72 -13q44 0 77.5 11.5t58 34t41.5 56t29 78.5l97 389h85l-99 -396q-16 -65 -42.5 -112t-62.5 -76.5t-83 -43.5 q-21 -16 -36 -28q-20 -17 -33 -30t-19.5 -24.5t-6.5 -22.5q0 -5 2 -9.5t6 -7.5t9.5 -4.5t13.5 -1.5q7 0 14 1.5t14 4t14.5 5.5t15.5 7l-9 -45q-9 -6 -18 -10t-18.5 -7.5t-21 -5.5t-23.5 -2q-15 0 -27 3.5t-20.5 10t-13 16.5t-4.5 22q0 20 9.5 38t25.5 34.5t35 30.5 q8 6 17 12q-15 -1 -31 -1z"/>
<glyph glyph-name="uogonek" horiz-adv-x="549" unicode="ų" d="M382 199l59 238h83l-108 -437h-29q-19 -15 -33 -26q-20 -17 -33 -30t-19.5 -24.5t-6.5 -22.5q0 -5 2 -9.5t6 -7.5t9.5 -4.5t13.5 -1.5q7 0 14 1.5t14 4t14.5 5.5t15.5 7l-9 -45q-9 -6 -18 -10t-18.5 -7.5t-21 -5.5t-23.5 -2q-15 0 -27 3.5t-20.5 10t-13 16.5t-4.5 22 q0 20 9.5 38t25.5 34.5t35 30.5q14 10 34 24l21 85q-14 -21 -31.5 -38.5t-38 -31t-44.5 -21t-49 -7.5q-40 0 -69 13.5t-45.5 37.5t-18.5 45t-2 29q0 25 7 54l67 270h83l-65 -261q-6 -24 -6 -44q0 -3 0.5 -15.5t9.5 -28t26.5 -24t44.5 -8.5q24 0 49 10t47 28.5t38.5 45.5 t24.5 59z"/>
<glyph glyph-name="Wcircumflex" horiz-adv-x="859" unicode="Ŵ" d="M572 630l4 -526h4l264 526h86l-323 -630h-103l-2 502h-4l-261 -502h-102l1 630h83l-4 -523h4l272 523h81zM524 830h96l51 -126h-56l-51 76l-89 -76h-65z"/>
<glyph glyph-name="wcircumflex" horiz-adv-x="683" unicode="ŵ" d="M406 660h87l49 -146h-54l-47 96l-93 -96h-64zM432 437l12 -332h4l185 332h81l-252 -437h-79l-12 328h-4l-184 -328h-80l-24 437h80l13 -331h4l186 331h70z"/>
<glyph glyph-name="Ycircumflex" horiz-adv-x="636" unicode="Ŷ" d="M343 325l268 305h98l-341 -381l-62 -249h-83l62 249l-151 381h87zM416 830h96l51 -126h-56l-51 76l-89 -76h-65z"/>
<glyph glyph-name="ycircumflex" horiz-adv-x="495" unicode="ŷ" d="M135 -39l28 41l-85 435h83l62 -341h4l213 341h86l-304 -466q-27 -41 -44 -65t-37.5 -44t-45 -31t-53.5 -11q-24 0 -43 8t-32.5 22t-19.5 32q-6 16 -6 34v6l68 28q-2 -15 0 -27.5t7.5 -21t14 -13t18.5 -4.5q11 0 21.5 5t20.5 14.5t20 23t24 34.5zM315 660h87l49 -146h-54 l-47 96l-93 -96h-64z"/>
<glyph glyph-name="Ydieresis" horiz-adv-x="636" unicode="Ÿ" d="M343 325l268 305h98l-341 -381l-62 -249h-83l62 249l-151 381h87zM479 708l22 91h80l-23 -91h-79zM322 708l23 91h79l-22 -91h-80z"/>
<glyph glyph-name="Zacute" horiz-adv-x="641" unicode="Ź" d="M136 74h415l-18 -74h-529l15 63l528 493h-401l19 74h515l-17 -66zM451 704h-62l85 126h106z"/>
<glyph glyph-name="zacute" horiz-adv-x="485" unicode="ź" d="M470 666l-138 -152h-59l97 152h100zM119 437h362l-15 -57l-345 -316h273l-15 -64h-377l14 57l341 316h-254z"/>
<glyph glyph-name="Zdotaccent" horiz-adv-x="641" unicode="Ż" d="M469 708h-96l23 92h95zM136 74h415l-18 -74h-529l15 63l528 493h-401l19 74h515l-17 -66z"/>
<glyph glyph-name="zdotaccent" horiz-adv-x="485" unicode="ż" d="M119 437h362l-15 -57l-345 -316h273l-15 -64h-377l14 57l341 316h-254zM367 538h-96l23 92h96z"/>
<glyph glyph-name="Zcaron" horiz-adv-x="641" unicode="Ž" d="M472 704h-95l-52 126h57l50 -77l90 77h64zM136 74h415l-18 -74h-529l15 63l528 493h-401l19 74h515l-17 -66z"/>
<glyph glyph-name="zcaron" horiz-adv-x="485" unicode="ž" d="M272 506l-48 146h54l46 -96l94 96h64l-122 -146h-88zM119 437h362l-15 -57l-345 -316h273l-15 -64h-377l14 57l341 316h-254z"/>
<glyph glyph-name="florin" horiz-adv-x="409" unicode="ƒ" d="M-16 -102h-10t-10.5 0.5t-11 1.5t-10.5 2l18 62q3 -1 6 -1.5l6 -1t5.5 -0.5h5.5q18 0 32.5 6.5t25.5 18t20 28t16 38.5l93 263h-85l14 61h92l45 126q11 31 27.5 56.5t37.5 44t47.5 28t56.5 9.5q6 0 12.5 -0.5t13.5 -1.5t13.5 -2t14.5 -3l-16 -61l-17.5 2.5l-7 1t-7.5 0.5 q-17 0 -32 -6t-27 -17.5t-21.5 -28t-17.5 -38.5l-39 -110h99l-15 -61h-105l-99 -279q-12 -34 -28 -59.5t-36.5 -43t-47 -26.5t-58.5 -9z"/>
<glyph glyph-name="Aringacute" horiz-adv-x="668" unicode="Ǻ" d="M496 0l-28 185h-283l-118 -185h-90l410 630h95l102 -630h-88zM410 537l-181 -283h228l-43 283h-4zM506 770q0 9 -3.5 17t-10 13.5t-16 8.5t-21.5 3q-13 0 -23 -4t-17.5 -11t-11 -16.5t-3.5 -20.5q0 -10 3.5 -17.5t10 -13t16 -8.5t21.5 -3q13 0 23.5 4t17.5 11t10.5 16.5 t3.5 20.5zM351 758q0 20 7.5 37.5t22 30.5t34 20.5t42.5 7.5q21 0 39.5 -6t31.5 -17t20 -26.5t7 -32.5q0 -20 -7.5 -37.5t-22 -30.5t-34 -20.5t-42.5 -7.5q-21 0 -39.5 6t-31.5 17t-20 26.5t-7 32.5zM622 1000l-119 -105h-60l77 105h102z"/>
<glyph glyph-name="aringacute" horiz-adv-x="609" unicode="ǻ" d="M381 86q-12 -21 -29 -38.5t-38.5 -31t-47.5 -21t-54 -7.5q-38 0 -68.5 13t-52 36t-32.5 55t-11 70q0 52 17.5 103t50.5 93t80.5 66.5t104.5 24.5q27 0 50.5 -8t42.5 -23t31.5 -35t17.5 -43l29 97h81l-94 -333q-3 -12 -1.5 -20.5t6 -14.5t11.5 -9t16 -3t18 1.5t17 5 t15 7.5t14 9l-6 -62q-8 -7 -17 -12.5t-19 -9t-20 -5t-21 -1.5q-21 0 -38.5 6.5t-30 19t-18 28.5t-5.5 31q0 5 1 11zM407 197l6 24q5 23 5 44q0 10 -2.5 30t-16.5 42.5t-37.5 35t-52.5 12.5q-39 0 -71.5 -18t-55.5 -49t-35.5 -70t-12.5 -81q0 -27 7.5 -48.5t21.5 -36 t34.5 -22t46.5 -7.5t51.5 10.5t48.5 30.5t39.5 46.5t23.5 56.5zM421 584q0 9 -3.5 17t-9.5 13.5t-15.5 8.5t-21.5 3q-13 0 -23.5 -4t-17.5 -11t-10.5 -17t-3.5 -21q0 -9 3.5 -17t10 -13.5t16 -8.5t21.5 -3q13 0 23 4t17 11t10.5 17t3.5 21zM267 572q0 20 7.5 37.5t21.5 30.5 t34 20.5t43 7.5q21 0 39 -6t31 -17.5t20 -26.5t7 -33q0 -20 -7.5 -37.5t-21.5 -30.5t-33.5 -20.5t-42.5 -7.5q-22 0 -40 6t-31 17.5t-20 26.5t-7 33zM537 813l-118 -104h-61l77 104h102z"/>
<glyph glyph-name="AEacute" horiz-adv-x="1035" unicode="Ǽ" d="M832 704h-62l85 126h106zM441 0l46 184h-248l-165 -184h-97l569 630h525l-19 -74h-388l-48 -192h295l-18 -75h-295l-54 -215h397l-19 -74h-481zM581 565l-279 -311h202z"/>
<glyph glyph-name="aeacute" horiz-adv-x="822" unicode="ǽ" d="M625 666l-138 -152h-59l97 152h100zM333 175l9 37l-108 -9q-32 -2 -56.5 -8t-42.5 -16.5t-27.5 -26.5t-9.5 -39q0 -13 4.5 -23.5t12.5 -18.5t20.5 -12t28.5 -4q28 0 55.5 9.5t51 26.5t40 39t22.5 45zM428 262h266q1 10 1 19q1 17 -3 32q-6 23 -20 38.5t-35.5 24 t-49.5 8.5q-29 0 -54 -9t-45 -25t-35.5 -38.5t-24.5 -49.5zM534 -12q-33 0 -61.5 8t-51 22.5t-38.5 36t-26 47.5q-14 -21 -35 -41t-47.5 -35.5t-58.5 -25t-67 -9.5q-29 0 -54 8.5t-43 24t-27.5 36.5t-9.5 45q0 35 15.5 61.5t44.5 45.5t69 30t89 14l122 10q2 6 3.5 12.5l3 13 t2 13t0.5 13.5q0 14 -4 25.5t-12.5 21t-22 14.5t-31.5 5q-23 0 -44.5 -5.5t-39.5 -15.5t-32.5 -23.5t-24.5 -30.5l-67 28q18 26 40 47t48 35.5t57 22t66 7.5q24 0 44 -5.5t35.5 -15.5t26 -23.5t16.5 -29.5q17 17 37 30.5t42.5 23.5t47 15t49.5 5q49 0 84 -15t55.5 -40.5 t30 -58.5t9.5 -71q0 -7 -0.5 -14t-1.5 -14t-2 -14.5t-3 -13.5h-352q-2 -14 -2 -28q0 -20 4 -36q6 -28 22.5 -49t42.5 -31.5t59 -10.5q25 0 48.5 6t44 18t37 28.5t26.5 36.5l53 -44q-15 -25 -38.5 -45.5t-52.5 -35t-60.5 -22t-64.5 -7.5z"/>
<glyph glyph-name="Oslashacute" horiz-adv-x="741" unicode="Ǿ" d="M363 -12q-31 0 -59 4.5t-54 13t-48 21.5t-41 30l-91 -86l-41 38l95 89q-11 17 -20 35.5t-15 39t-9 43t-3 46.5q0 74 25 142.5t72 122t112 84.5t141 31q31 0 59.5 -4.5t54.5 -13t48 -21.5t41 -30l72 68l41 -37l-77 -72q11 -17 20 -35.5t15 -39t9 -43t3 -46.5 q0 -74 -25 -142.5t-72 -122t-112 -84.5t-141 -31zM364 62q57 0 105 24t82.5 66.5t53 98t18.5 117.5q0 14 -1.5 27.5t-4.5 26.5t-7 25t-9 23l-379 -356q13 -12 28.5 -22t33 -16.5t38 -10t42.5 -3.5zM167 262q0 -14 1.5 -28t4.5 -26.5t7 -24.5t9 -23l379 355q-12 13 -27.5 23 t-33 16.5t-38 10t-43.5 3.5q-57 0 -105 -24t-82.5 -66.5t-53 -98t-18.5 -117.5zM513 704h-62l85 126h106z"/>
<glyph glyph-name="oslashacute" horiz-adv-x="547" unicode="ǿ" d="M247 -12q-20 0 -38.5 3t-35.5 8t-32 13.5t-28 18.5l-71 -67l-36 33l73 69q-8 12 -14 25t-10.5 27t-6.5 29.5t-2 32.5q0 54 18.5 103t52.5 86.5t81.5 58.5t102.5 21q20 0 38.5 -3t35.5 -8t32.5 -13.5t28.5 -18.5l66 62l37 -33l-69 -66q8 -11 13.5 -24t10 -27t6.5 -29.5 t2 -31.5q0 -54 -18.5 -103t-52.5 -86.5t-81.5 -58.5t-102.5 -21zM248 49q39 0 71 17t54.5 46.5t34 67.5t11.5 78q0 8 -0.5 15t-1.5 14t-2.5 13.5t-3.5 12.5l-247 -233q8 -8 17.5 -13.5t20 -9.5t22 -6t24.5 -2zM129 179q0 -8 0.5 -15.5t1.5 -14.5t3 -14t4 -13l246 234 q-7 8 -16.5 14t-20 10t-22.5 6t-25 2q-39 0 -71 -17t-54.5 -47t-34 -67.5t-11.5 -77.5zM500 666l-138 -152h-59l97 152h100z"/>
<glyph glyph-name="Scommaaccent" horiz-adv-x="627" unicode="Ș" d="M183 -122l17 69h90l-17 -66q-5 -22 -14.5 -39.5t-24 -30t-34.5 -19.5t-45 -7l9 35q12 0 21.5 4t16.5 11.5t11.5 18t8.5 24.5h-39zM20 146l71 55q8 -32 28 -58.5t48 -45t63 -28t74 -9.5q38 0 69.5 8t54 23.5t35 37t12.5 47.5q0 19 -6.5 33t-19.5 24.5t-33 19t-49 16.5 l-106 28q-35 9 -61 22t-44 31.5t-27.5 42.5t-9.5 54q0 41 18.5 77t52.5 62.5t80.5 41t101.5 14.5q46 0 86.5 -11t73 -31t55.5 -47t35 -59l-74 -41q-9 25 -25.5 46t-40.5 37t-52.5 25t-59.5 9q-34 0 -64 -8t-52 -22.5t-34 -35.5t-12 -47q0 -20 6.5 -34t19.5 -24t31.5 -17.5 t44.5 -14.5l92 -25q41 -11 71.5 -25.5t51 -33.5t30.5 -43.5t10 -54.5q0 -45 -20.5 -82t-57.5 -62.5t-84.5 -39t-100.5 -13.5q-49 0 -94.5 11t-83.5 31.5t-65 50t-39 65.5z"/>
<glyph glyph-name="scommaaccent" horiz-adv-x="486" unicode="ș" d="M109 -122l17 69h90l-17 -66q-5 -22 -14.5 -39.5t-24 -30t-34.5 -19.5t-45 -7l9 35q12 0 21.5 4t16.5 11.5t11.5 18t8.5 24.5h-39zM16 93l57 53q10 -22 26 -40t36 -30t42.5 -18.5t45.5 -6.5q24 0 44 5t35.5 14.5t23.5 22.5t8 28q0 13 -5 22t-14 15.5t-21.5 11t-31.5 10.5 l-63 15q-28 7 -49.5 17.5t-36.5 24.5t-22.5 32t-7.5 41q0 30 14 55.5t39 44.5t57.5 29t68.5 10q35 0 65 -8t53 -22t40.5 -32.5t29.5 -41.5l-57 -47q-7 18 -19 34t-28.5 28t-38 18.5t-46.5 6.5q-19 0 -37 -4.5t-32 -13t-22 -21t-8 -28.5q0 -12 4.5 -21t13 -15.5t21 -11.5 t29.5 -9l70 -17q28 -7 49 -17.5t35.5 -25t22 -32t7.5 -39.5q0 -33 -15 -59.5t-41.5 -45t-61 -28t-74.5 -9.5q-36 0 -68 8t-58.5 22t-46.5 33t-33 42z"/>
<glyph glyph-name="uni0237" horiz-adv-x="241" unicode="ȷ" d="M7 -71l127 508h83l-124 -497q-7 -29 -19 -51.5t-29 -37.5t-39 -23t-50 -8q-14 0 -28.5 3t-27.5 8t-24 11t-18 13l33 52q8 -7 14.5 -11t14 -7.5t16 -5.5t18.5 -2t18 3t15 9t12 15t8 21z"/>
<glyph glyph-name="circumflex" d="M325 660h87l49 -146h-54l-47 96l-93 -96h-64z" unicode="ˆ"/>
<glyph glyph-name="caron" d="M288 506l-48 146h54l46 -96l94 96h64l-122 -146h-88z" unicode="ˇ"/>
<glyph glyph-name="breve" d="M335 504q-27 0 -47 10.5t-31 30t-13 46.5v11q0 22 6 48h53q-5 -20 -5 -36.5t5 -28.5t15.5 -18.5t26.5 -6.5t30 6.5t25 18.5t19.5 28.5t13.5 36.5h58q-8 -32 -23 -59t-36 -46.5t-45.5 -30t-51.5 -10.5z" unicode="˘"/>
<glyph glyph-name="dotaccent" d="M386 538h-96l23 92h96z" unicode="˙"/>
<glyph glyph-name="ring" d="M357 646q-12 0 -22 -4t-17 -11.5t-10.5 -18t-3.5 -23.5q0 -9 3 -17t9 -14t15 -9.5t20 -3.5q13 0 23 4t17 11.5t10.5 18t3.5 23.5q0 9 -3 17t-9.5 14t-15.5 9.5t-20 3.5zM360 690q21 0 38 -6.5t29 -18.5t18.5 -28t6.5 -34q0 -21 -7.5 -39.5t-21.5 -32.5t-33 -21.5 t-41 -7.5q-21 0 -38 6.5t-29 18t-18.5 27.5t-6.5 34q0 22 7.5 40.5t21 32.5t33 21.5t41.5 7.5z" unicode="˚"/>
<glyph glyph-name="ogonek" d="M208 12h55q-31 -22 -51 -38.5t-33 -29.5t-19.5 -24.5t-6.5 -22.5q0 -5 2 -9.5t6 -7.5t9.5 -4.5t13.5 -1.5q7 0 14 1.5t14 4t14.5 5.5t15.5 7l-9 -45q-9 -6 -18 -10t-18.5 -7.5t-21 -5.5t-23.5 -2q-15 0 -27 3.5t-20.5 10t-13 16.5t-4.5 22q0 20 9.5 38t25.5 34.5 t35.5 30.5t50.5 35z" unicode="˛"/>
<glyph glyph-name="tilde" d="M237 520h-53q7 28 18 51t25.5 40t32.5 26.5t39 9.5q18 0 31.5 -8.5t30 -26t26 -25t22.5 -7.5q10 0 18 5t14.5 13.5t12 20t9.5 25.5h53q-7 -28 -17.5 -51t-25 -40t-32 -26.5t-38.5 -9.5q-18 0 -31.5 9t-30 26t-26 24.5t-22.5 7.5q-10 0 -18.5 -5t-15.5 -13.5t-12.5 -20 t-9.5 -25.5z" unicode="˜"/>
<glyph glyph-name="hungarumlaut" d="M236 506h-53l93 152h92zM387 506h-53l93 152h92z" unicode="˝"/>
<glyph glyph-name="Wgrave" horiz-adv-x="859" unicode="Ẁ" d="M577 704h-55l-65 126h97zM572 630l4 -526h4l264 526h86l-323 -630h-103l-2 502h-4l-261 -502h-102l1 630h83l-4 -523h4l272 523h81z"/>
<glyph glyph-name="wgrave" horiz-adv-x="683" unicode="ẁ" d="M432 437l12 -332h4l185 332h81l-252 -437h-79l-12 328h-4l-184 -328h-80l-24 437h80l13 -331h4l186 331h70zM419 666l23 -152h-50l-61 152h88z"/>
<glyph glyph-name="Wacute" horiz-adv-x="859" unicode="Ẃ" d="M578 704h-62l85 126h106zM572 630l4 -526h4l264 526h86l-323 -630h-103l-2 502h-4l-261 -502h-102l1 630h83l-4 -523h4l272 523h81z"/>
<glyph glyph-name="wacute" horiz-adv-x="683" unicode="ẃ" d="M574 666l-138 -152h-59l97 152h100zM432 437l12 -332h4l185 332h81l-252 -437h-79l-12 328h-4l-184 -328h-80l-24 437h80l13 -331h4l186 331h70z"/>
<glyph glyph-name="Wdieresis" horiz-adv-x="859" unicode="Ẅ" d="M586 708l22 91h80l-23 -91h-79zM429 708l23 91h79l-22 -91h-80zM572 630l4 -526h4l264 526h86l-323 -630h-103l-2 502h-4l-261 -502h-102l1 630h83l-4 -523h4l272 523h81z"/>
<glyph glyph-name="wdieresis" horiz-adv-x="683" unicode="ẅ" d="M304 532l22 91h80l-23 -91h-79zM460 532l23 91h79l-22 -91h-80zM432 437l12 -332h4l185 332h81l-252 -437h-79l-12 328h-4l-184 -328h-80l-24 437h80l13 -331h4l186 331h70z"/>
<glyph glyph-name="Ygrave" horiz-adv-x="636" unicode="Ỳ" d="M343 325l268 305h98l-341 -381l-62 -249h-83l62 249l-151 381h87zM469 704h-55l-65 126h97z"/>
<glyph glyph-name="ygrave" horiz-adv-x="495" unicode="ỳ" d="M135 -39l28 41l-85 435h83l62 -341h4l213 341h86l-304 -466q-27 -41 -44 -65t-37.5 -44t-45 -31t-53.5 -11q-24 0 -43 8t-32.5 22t-19.5 32q-6 16 -6 34v6l68 28q-2 -15 0 -27.5t7.5 -21t14 -13t18.5 -4.5q11 0 21.5 5t20.5 14.5t20 23t24 34.5zM327 666l23 -152h-50 l-61 152h88z"/>
<glyph glyph-name="endash" d="M69 224l15 61h386l-15 -61h-386z" unicode="–"/>
<glyph glyph-name="emdash" horiz-adv-x="1020" unicode="—" d="M69 224l15 61h887l-16 -61h-886z"/>
<glyph glyph-name="quoteleft" horiz-adv-x="253" unicode="‘" d="M245 504l-22 -104h-107l27 122q7 28 18.5 50t29 37.5t42.5 24t57 8.5l-11 -53q-17 0 -30 -3.5t-22.5 -11t-16 -20t-10.5 -31.5l-5 -19h50z"/>
<glyph glyph-name="quoteright" horiz-adv-x="253" unicode="’" d="M158 528l21 101h106l-27 -119q-7 -27 -18.5 -48t-29 -36.5t-41.5 -23.5t-56 -8l11 51q17 0 30 3.5t22.5 10.5t15.5 19.5t10 30.5l5 19h-49z"/>
<glyph glyph-name="quotesinglbase" horiz-adv-x="253" unicode="‚" d="M28 10l22 104h107l-27 -122q-7 -28 -18.5 -50t-29 -37.5t-42.5 -24t-57 -8.5l11 53q17 0 30 3.5t22.5 11t16 20t10.5 31.5l5 19h-50z"/>
<glyph glyph-name="quotedblleft" horiz-adv-x="441" unicode="“" d="M434 504l-22 -104h-107l27 122q7 28 18.5 50t29 37.5t42.5 24t57 8.5l-11 -53q-17 0 -30 -3.5t-22.5 -11t-16 -20t-10.5 -31.5l-5 -19h50zM245 504l-22 -104h-107l27 122q7 28 18.5 50t29 37.5t42.5 24t57 8.5l-11 -53q-17 0 -30 -3.5t-22.5 -11t-16 -20t-10.5 -31.5 l-5 -19h50z"/>
<glyph glyph-name="quotedblright" horiz-adv-x="441" unicode="”" d="M346 526l22 104h107l-27 -122q-7 -28 -18.5 -50t-29 -37.5t-42.5 -24t-57 -8.5l11 53q17 0 30 3.5t22.5 11t16 20t10.5 31.5l5 19h-50zM157 526l22 104h107l-27 -122q-7 -28 -18.5 -50t-29 -37.5t-42.5 -24t-57 -8.5l11 53q17 0 30 3.5t22.5 11t16 20t10.5 31.5l5 19h-50 z"/>
<glyph glyph-name="quotedblbase" horiz-adv-x="441" unicode="„" d="M28 10l22 104h107l-27 -122q-7 -28 -18.5 -50t-29 -37.5t-42.5 -24t-57 -8.5l11 53q17 0 30 3.5t22.5 11t16 20t10.5 31.5l5 19h-50zM217 10l22 104h107l-27 -122q-7 -28 -18.5 -50t-29 -37.5t-42.5 -24t-57 -8.5l11 53q17 0 30 3.5t22.5 11t16 20t10.5 31.5l5 19h-50z "/>
<glyph glyph-name="bullet" horiz-adv-x="353" unicode="•" d="M308 256q0 -26 -9.5 -48.5t-26 -38.5t-39 -25t-47.5 -9t-47 9t-38.5 25t-25.5 38.5t-9 48.5t9 48t25.5 38.5t38.5 25.5t47 9t47.5 -9t39 -25.5t26 -38.5t9.5 -48z"/>
<glyph glyph-name="guilsinglleft" horiz-adv-x="277" unicode="‹" d="M47 184l18 69l190 139l-23 -94l-119 -87l85 -88l-19 -78z"/>
<glyph glyph-name="guilsinglright" horiz-adv-x="277" unicode="›" d="M232 252l-18 -69l-190 -139l23 94l119 87l-85 88l19 78z"/>
<glyph glyph-name="fraction" horiz-adv-x="214" unicode="⁄" d="M450 630l-564 -630h-72l564 630h72z"/>
<glyph glyph-name="uni2070" horiz-adv-x="446" unicode="⁰" d="M253 288q22 0 40 8t32 24.5t25 42t19 60.5q3 9 4.5 18t3 17.5t2 16.5t0.5 15q0 22 -5 39t-15 29t-24.5 18t-32.5 6q-23 0 -41 -8t-32.5 -24.5t-25 -41.5t-19.5 -60q-2 -9 -3.5 -18.5t-2.5 -18t-1.5 -16.5t-0.5 -15q0 -22 5 -39t15 -29t24.5 -18t32.5 -6zM251 232 q-35 0 -62.5 11t-46.5 31t-28.5 48t-9.5 62q0 8 0.5 16t1.5 16.5t3 17.5l4 18q10 45 27.5 80t42 59t54.5 36t65 12q36 0 63.5 -11t46.5 -31t28.5 -48t9.5 -63q0 -8 -0.5 -16.5t-1.5 -17t-2.5 -17t-3.5 -17.5q-10 -45 -27.5 -80t-42.5 -58.5t-55.5 -35.5t-65.5 -12z"/>
<glyph glyph-name="uni2074" horiz-adv-x="427" unicode="⁴" d="M340 572l-189 -177h145zM422 631l-59 -236h69l-14 -58h-69l-25 -98h-67l24 98h-204l17 68l241 226h87z"/>
<glyph glyph-name="uni2075" horiz-adv-x="400" unicode="⁵" d="M226 577q-2 -8 -7 -23t-11 -32.5t-11.5 -32t-8.5 -20.5q8 7 17 13t19.5 10t23 6.5t25.5 2.5q27 0 49 -8t37.5 -23.5t24 -36.5t8.5 -46q0 -34 -12.5 -62.5t-34.5 -49t-52.5 -32t-64.5 -11.5q-32 0 -59 9t-46 26t-29 39.5t-9 49.5l68 9v-5q0 -14 5 -27t15.5 -23.5t25.5 -16 t32 -5.5q21 0 38.5 6.5t29.5 19t18.5 30t6.5 37.5q0 15 -4.5 27.5t-13 21.5t-21 14t-28.5 5q-13 0 -24 -2.5t-20.5 -7t-17.5 -11.5t-15 -15l-67 13q9 21 19.5 47t20.5 54t19 55t15 49h238q0 -14 -3.5 -25.5t-10.5 -20t-18.5 -13.5t-27.5 -5q-11 0 -28.5 1t-37.5 2.5t-39.5 3 t-33.5 3.5z"/>
<glyph glyph-name="uni2076" horiz-adv-x="418" unicode="⁶" d="M341 376q0 15 -5 27.5t-14.5 21.5t-23 13.5t-30.5 4.5q-19 0 -35.5 -6t-29 -17.5t-19.5 -28t-7 -36.5q0 -15 5 -27.5t14.5 -21.5t22.5 -14t30 -5q19 0 35.5 6t29.5 17.5t20 28.5t7 37zM305 583q-25 0 -46.5 -11t-39 -31t-29.5 -49t-19 -64q9 16 21 28.5t27 21t32 12.5 t36 4q30 0 52.5 -8.5t37 -24t22 -36t7.5 -44.5q0 -33 -12.5 -61t-34.5 -47.5t-51 -30t-60 -10.5q-33 0 -60 10t-45.5 29t-28.5 46.5t-10 60.5q0 49 13.5 95.5t40 84t64.5 59.5t86 22q29 0 51.5 -7.5t38 -21t25 -31.5t12.5 -39l-62 -16q-2 13 -7 23.5t-14 18.5t-21 12.5 t-26 4.5z"/>
<glyph glyph-name="uni2077" horiz-adv-x="380" unicode="⁷" d="M337 568h-215l16 63h297l-10 -42q-46 -37 -80.5 -78t-59.5 -85t-42.5 -90t-30.5 -97h-76q13 51 32 97t44 87t56 77.5t69 67.5z"/>
<glyph glyph-name="uni2078" horiz-adv-x="408" unicode="⁸" d="M234 284q20 0 36 5t27.5 14.5t17.5 22.5t6 29q0 14 -5.5 25t-16.5 18.5t-26 11.5t-33 4q-19 0 -34.5 -5t-26.5 -14.5t-17 -22.5t-6 -28q0 -14 5.5 -25t16 -19t25 -12t31.5 -4zM271 464q17 0 31 5t24 14.5t15.5 22t5.5 27.5q0 13 -5 23t-14 17t-21 10.5t-26 3.5 q-17 0 -31 -5t-24.5 -14t-16 -21.5t-5.5 -26.5t5 -24.5t14 -17.5t21.5 -10.5t26.5 -3.5zM233 232q-33 0 -60 8t-46.5 22t-30 34t-10.5 44q0 21 7.5 39t21 31.5t32 22.5t40.5 12q-11 5 -20 12t-16 16.5t-11 21t-4 25.5q0 27 11.5 49.5t32 38t46.5 23.5t55 8q30 0 55 -7 t42.5 -20t27 -31.5t9.5 -42.5q0 -20 -6 -36.5t-17.5 -29.5t-28 -22t-37.5 -15q14 -4 25.5 -11.5t20 -18.5t13.5 -24.5t5 -28.5q0 -28 -12 -50.5t-34 -38t-50.5 -23.5t-60.5 -8z"/>
<glyph glyph-name="uni2079" horiz-adv-x="418" unicode="⁹" d="M222 287q25 0 46.5 11t38.5 31.5t29 49t18 63.5q-8 -16 -20 -28.5t-27 -21t-32 -12.5t-35 -4q-29 0 -52 9t-38 24.5t-22.5 36t-7.5 43.5q0 33 12.5 61t34.5 48t51 30.5t60 10.5q33 0 60 -10t45.5 -29.5t28.5 -47t10 -60.5q0 -49 -13.5 -95.5t-39.5 -83.5t-64.5 -59 t-85.5 -22q-29 0 -52 7t-39 20.5t-25.5 31.5t-12.5 39l63 17q1 -13 6.5 -24t14.5 -19t21 -12.5t27 -4.5zM185 494q0 -15 5 -27.5t14.5 -21t23 -13.5t30.5 -5q19 0 35.5 6t29 18t19.5 28.5t7 36.5q0 15 -5 27.5t-14.5 21t-23 13.5t-30.5 5q-18 0 -34.5 -6t-29.5 -17.5 t-20 -28.5t-7 -37z"/>
<glyph glyph-name="uni2080" horiz-adv-x="446" unicode="₀" d="M169 -50q22 0 40 8t32 24.5t25 42t19 60.5q3 9 4.5 18t3 17.5t2 16.5t0.5 15q0 22 -5 39t-15 29t-24.5 18t-32.5 6q-23 0 -41 -8.5t-32 -25t-25 -41.5t-20 -60q-2 -9 -3.5 -18t-2.5 -17.5t-1.5 -16.5t-0.5 -15q0 -22 5 -39t15 -29t24.5 -18t32.5 -6zM167 -106 q-35 0 -62.5 10.5t-46.5 30.5t-28.5 48t-9.5 63q0 8 0.5 16t1.5 16.5t3 17.5l4 18q10 45 27.5 80t42 59t55 36t64.5 12q36 0 63.5 -11t46.5 -31t28.5 -48t9.5 -63q0 -8 -0.5 -16.5t-1.5 -17t-2.5 -17t-3.5 -17.5q-10 -45 -27.5 -80t-42.5 -58.5t-55.5 -35.5t-65.5 -12z"/>
<glyph glyph-name="uni2081" horiz-adv-x="298" unicode="₁" d="M128 -99h-71l71 284h-102l13 51h28q24 0 40.5 3t28.5 9.5t21.5 17.5t18.5 29h49z"/>
<glyph glyph-name="uni2082" horiz-adv-x="394" unicode="₂" d="M90 -40h187l-14 -59h-296l11 44l147 104l74 51q-3 -2 12 12q17 16 27 34t10 39q0 13 -4 23.5t-12 18t-20 11.5t-27 4q-20 0 -36 -7.5t-27.5 -21.5t-18 -33.5t-7.5 -42.5l-68 14q3 33 15 60.5t33 47.5t50 31t63 11q31 0 55.5 -8.5t40.5 -23.5t24.5 -35t8.5 -43 q0 -29 -10.5 -52.5t-28.5 -42.5t-39 -34.5t-58 -40.5z"/>
<glyph glyph-name="uni2083" horiz-adv-x="395" unicode="₃" d="M216 23q0 11 -3.5 20t-11.5 15.5t-20 10t-28 3.5q-5 0 -9.5 -0.5l-9 -1l-9 -1t-8.5 -1.5l14 57q2 0 7 -1t9 -1t9 -0.5t11 -0.5q15 0 30 4t27.5 12.5t20 22t7.5 31.5q0 11 -4 20.5t-12.5 16.5t-20.5 11t-27 4q-17 0 -31.5 -4.5t-26.5 -14t-20.5 -23.5t-13.5 -32l-64 16 q9 27 23.5 48t35 36t46.5 23t56 8q31 0 55.5 -7.5t40 -21.5t23.5 -32t8 -40q0 -23 -8.5 -41t-22.5 -30.5t-31 -20.5t-35 -11q15 -4 27 -11.5t20 -17.5t12.5 -22t4.5 -25q0 -31 -12.5 -54.5t-34 -40t-49.5 -24.5t-59 -8q-37 0 -65 9.5t-46.5 27t-25.5 38t-7 39.5q0 7 1 15 l67 7q-1 -7 -1 -14q0 -10 3.5 -22t14 -23t25.5 -16.5t34 -5.5q18 0 33.5 4.5t27 13.5t17.5 23t6 33z"/>
<glyph glyph-name="uni2084" horiz-adv-x="427" unicode="₄" d="M248 234l-189 -177h145zM330 293l-59 -236h70l-15 -58h-69l-25 -98h-67l24 98h-204l17 68l241 226h87z"/>
<glyph glyph-name="uni2085" horiz-adv-x="400" unicode="₅" d="M134 239q-2 -8 -7 -23t-11 -32.5t-11.5 -32t-8.5 -20.5q8 7 17 13t20 10t23 6.5t26 2.5q26 0 48 -8t37.5 -23.5t24 -36.5t8.5 -46q0 -34 -12.5 -62.5t-34.5 -49t-52 -32t-64 -11.5q-33 0 -60 9t-46 26t-28 38.5t-9 45.5v5l67 9v-5q0 -14 5 -27.5t15.5 -24t25.5 -16 t32 -5.5q21 0 38.5 7t29.5 19.5t18.5 30t6.5 37.5q0 15 -4.5 27.5t-13 21.5t-21 14t-28.5 5q-13 0 -24 -2.5t-20.5 -7t-17.5 -11.5t-15 -15l-67 13q9 20 19.5 46t20.5 54t19 55.5t15 49.5h239q0 -14 -3.5 -26t-11 -20.5t-19 -13t-27.5 -4.5q-11 0 -29 1t-38.5 2.5t-39.5 3 t-32 3.5z"/>
<glyph glyph-name="uni2086" horiz-adv-x="418" unicode="₆" d="M249 38q0 15 -5 27.5t-14.5 21.5t-23 13.5t-30.5 4.5q-19 0 -35.5 -6t-29 -18t-19.5 -28.5t-7 -36.5q0 -15 5 -27.5t14.5 -21.5t22.5 -13.5t30 -4.5q19 0 35.5 6t29.5 17.5t20 28.5t7 37zM213 245q-25 0 -46.5 -11t-39 -31t-29.5 -49t-19 -64q9 16 21 28.5t27 21t32 12.5 t36 4q29 0 52 -9t38 -24.5t22.5 -36t7.5 -43.5q0 -33 -12.5 -61t-35 -47.5t-51.5 -30t-60 -10.5q-33 0 -60 10t-45.5 29t-28.5 46.5t-10 60.5q0 49 13.5 95.5t40 84t64.5 59.5t86 22q29 0 51.5 -7.5t38.5 -21t25 -31.5t12 -39l-62 -17q-2 13 -7 24t-14 19t-21 12.5t-26 4.5z "/>
<glyph glyph-name="uni2087" horiz-adv-x="380" unicode="₇" d="M245 230h-215l16 63h297l-10 -43q-46 -37 -80.5 -78t-59.5 -84.5t-42.5 -89.5t-30.5 -97h-76q13 51 32 97t44 87t56.5 77.5t68.5 67.5z"/>
<glyph glyph-name="uni2088" horiz-adv-x="408" unicode="₈" d="M142 -54q20 0 36 5t27.5 14.5t17.5 22.5t6 29q0 14 -5.5 25t-16 18.5t-25.5 11.5t-33 4q-19 0 -35 -5t-27 -14.5t-17 -22.5t-6 -29q0 -13 5.5 -24t16 -19t25 -12t31.5 -4zM179 125q17 0 31 5t24 14.5t15.5 22t5.5 27.5q0 13 -5 23.5t-14 17.5t-21 10.5t-26 3.5 q-17 0 -31 -5t-24.5 -14t-16 -21.5t-5.5 -26.5t5 -24.5t14 -18t21.5 -11t26.5 -3.5zM141 -106q-33 0 -60 7.5t-46.5 22t-30 34.5t-10.5 44q0 21 7.5 39t21 31.5t32 22.5t40.5 12q-11 5 -20 12t-16 16t-11 21t-4 26q0 27 11.5 49.5t32 38t46.5 23.5t55 8q30 0 55 -7t42.5 -20 t27 -31.5t9.5 -42.5q0 -20 -6 -36.5t-17.5 -29.5t-27.5 -22t-37 -15q13 -4 24.5 -11.5t20 -18.5t13.5 -24.5t5 -28.5q0 -28 -12 -50.5t-33.5 -38t-50 -23.5t-61.5 -8z"/>
<glyph glyph-name="uni2089" horiz-adv-x="418" unicode="₉" d="M130 -51q25 0 46.5 11t38.5 31.5t29 49t18 63.5q-8 -16 -20 -28.5t-27 -21t-32 -12.5t-35 -4q-30 0 -52.5 8.5t-37.5 24t-22.5 36t-7.5 44.5q0 33 12.5 61t35 48t51 30.5t59.5 10.5q33 0 60 -10.5t45.5 -29.5t28.5 -46.5t10 -60.5q0 -49 -13.5 -95.5t-39.5 -84t-64.5 -59 t-85.5 -21.5q-29 0 -52 7.5t-39 20.5t-25 31t-12 39l62 16q2 -13 7 -23.5t14 -18.5t21 -12.5t27 -4.5zM93 156q0 -15 5 -27.5t14.5 -21t23 -13.5t30.5 -5q19 0 35.5 6t29.5 17.5t20 28.5t7 37q0 15 -5 27.5t-14.5 21t-23.5 13.5t-31 5q-18 0 -34.5 -6t-29.5 -17.5t-20 -28.5 t-7 -37z"/>
<glyph glyph-name="Euro" horiz-adv-x="651" unicode="€" d="M613 165q-19 -40 -44.5 -72.5t-58.5 -56t-73.5 -36t-86.5 -12.5q-53 0 -95.5 17.5t-72.5 49.5t-46.5 75.5t-17.5 95.5h-85l13 52h74q1 9 2.5 18l3 18t3.5 18l4 18h-68l12 52h72q19 50 47 93t66 76.5t85 52t101 18.5q47 0 84.5 -13.5t64.5 -38t43 -58.5t21 -75l-80 -25 q-3 30 -12.5 55t-26.5 43.5t-41.5 28.5t-54.5 10q-38 0 -70.5 -13t-59 -35.5t-46.5 -52.5t-34 -66h204l-22 -52h-199q-3 -9 -5 -18t-3.5 -18t-3 -17.5t-2.5 -18.5h184l-23 -52h-163q1 -38 12.5 -69t31 -52.5t46.5 -33t60 -11.5q37 0 67.5 10.5t54.5 30.5t42 47t31 62z"/>
<glyph glyph-name="commaaccent" d="M133 -122l17 69h90l-17 -66q-5 -22 -14.5 -39.5t-24 -30t-34.5 -19.5t-45 -7l9 35q12 0 21.5 4t16.5 11.5t11.5 18t8.5 24.5h-39z" unicode=""/>
<glyph glyph-name="caron.Slovak" d="M320 483h-44l56 156h93z"/>
<glyph glyph-name="commaturn" d="M394 583l-17 -68h-91l17 66q5 22 14.5 39.5t24 30t34.5 19.5t45 7l-9 -35q-12 0 -21.5 -4t-16.5 -11.5t-12 -18.5t-8 -25h40z"/>
<glyph glyph-name="grave.cap" d="M457 704h-55l-65 126h97z"/>
<glyph glyph-name="acute.cap" d="M365 704h-62l85 126h106z"/>
<glyph glyph-name="circumflex.cap" d="M365 830h96l51 -126h-56l-51 76l-89 -76h-65z"/>
<glyph glyph-name="tilde.cap" d="M284 704h-53q7 27 18 50t25.5 40t32.5 26.5t38 9.5q18 0 32 -9t30.5 -26t26 -24.5t21.5 -7.5q10 0 18.5 5t15 13.5t11.5 20t10 25.5h53q-7 -27 -17.5 -50t-25 -40t-32.5 -26.5t-38 -9.5q-18 0 -32 8.5t-30.5 25.5t-25.5 24.5t-22 7.5q-10 0 -18.5 -5t-15.5 -13.5 t-12.5 -19.5t-9.5 -25z"/>
<glyph glyph-name="macron.cap" d="M252 709l14 60h263l-15 -60h-262z"/>
<glyph glyph-name="breve.cap" d="M381 701q-28 0 -47 8t-30 24q-10 16 -12 40q0 4 -1 8q0 21 7 48h54q-4 -17 -4.5 -30t4.5 -22.5t15 -14.5t26 -5t28.5 5t22 14.5t16.5 22.5t11 30h59q-8 -32 -22 -56t-33 -40t-42.5 -24t-51.5 -8z"/>
<glyph glyph-name="dotaccent.cap" d="M431 708h-96l23 92h95z"/>
<glyph glyph-name="dieresis.cap" d="M421 708l22 91h80l-23 -91h-79zM264 708l23 91h79l-22 -91h-80z"/>
<glyph glyph-name="ring.cap" d="M403 828q-13 0 -23 -4t-17 -11.5t-10.5 -18t-3.5 -23.5q0 -9 3 -17t9.5 -14t15.5 -9.5t20 -3.5q12 0 22 4t17 11.5t10.5 18t3.5 23.5q0 9 -3 17t-9 14t-15 9.5t-20 3.5zM405 871q21 0 38 -6.5t29 -18t18.5 -27.5t6.5 -34q0 -21 -7.5 -39.5t-21.5 -32.5t-33 -21.5 t-41 -7.5q-21 0 -38 6.5t-29 18t-18.5 27.5t-6.5 34q0 22 7.5 40.5t21 32t32.5 21t42 7.5z"/>
<glyph glyph-name="hungarumlaut.cap" d="M286 704h-52l83 126h96zM432 704h-51l83 126h96z"/>
<glyph glyph-name="caron.cap" d="M429 704h-95l-52 126h57l50 -77l90 77h64z"/>
<glyph glyph-name="two.dnom" d="M115 60h187l-14 -59h-296l11 44l147 104l74 51q-3 -2 12 12q17 16 27 34t10 39q0 13 -4 23.5t-12 18t-20 11.5t-27 4q-20 0 -36 -7.5t-27.5 -21.5t-18 -33.5t-7.5 -42.5l-68 14q3 33 15 60.5t33 47.5t50 31t63 11q31 0 55.5 -8.5t40.5 -23.5t24.5 -35t8.5 -43 q0 -29 -10.5 -52.5t-28.5 -42.5t-39 -34.5t-58 -40.5z" horiz-adv-x="394"/>
<glyph glyph-name="four.dnom" d="M273 334l-189 -177h145zM355 393l-59 -236h70l-15 -58h-69l-25 -98h-67l24 98h-204l17 68l241 226h87z" horiz-adv-x="427"/>
</font>
</defs>
</svg>
